<?xml version="1.0" encoding="UTF-8" standalone="no"?>
<svg
   xmlns:dc="http://purl.org/dc/elements/1.1/"
   xmlns:cc="http://creativecommons.org/ns#"
   xmlns:rdf="http://www.w3.org/1999/02/22-rdf-syntax-ns#"
   xmlns:svg="http://www.w3.org/2000/svg"
   xmlns="http://www.w3.org/2000/svg"
   xmlns:sodipodi="http://sodipodi.sourceforge.net/DTD/sodipodi-0.dtd"
   xmlns:inkscape="http://www.inkscape.org/namespaces/inkscape"
   version="1.0"
   width="640.000000pt"
   height="640.000000pt"
   viewBox="0 0 640.000000 640.000000"
   preserveAspectRatio="xMidYMid meet">

  <g
     transform="translate(0.000000,640.000000) scale(0.100000,-0.100000)"
     fill="#ff69b4"
     stroke="none"
     id="g36">
    <path
       d="M1640 6349 c-295 -19 -562 -109 -812 -272 -43 -28 -78 -55 -78 -59 0 -4 -5 -8 -11 -8 -24 0 -214 -188 -280 -276 -24 -32 -46 -61 -49 -64 -15 -13 -98 -153 -132 -222 -156 -316 -198 -707 -113 -1049 28 -111 78 -253 114 -319 65 -121 115 -204 131 -220 3 -3 21 -25 40 -50 153 -198 347 -356 575 -468 151 -74 325 -129 490 -154 123 -18 404 -15 525 5 194 33 450 133 610 238 36 24 67 46 70 49 3 3 30 24 60 46 78 59 219 200 283 285 l28 37 -28 33 c-15 19 -38 42 -51 52 -12 10 -28 24 -35 32 -6 7 -102 105 -212 219 l-200 206 -23 -27 c-31 -39 -34 -42 -71 -96 -78 -114 -248 -251 -380 -306 -74 -31 -236 -61 -330 -61 -330 0 -644 193 -790 487 -58 116 -82 209 -88 337 -20 408 253 770 661 878 111 29 307 31 421 4 210 -50 404 -186 531 -371 21 -32 43 -63 49 -71 7 -10 29 7 95 76 47 49 165 170 263 270 l178 181 -21 27 c-51 66 -90 109 -159 176 -100 96 -101 98 -144 126 -20 14 -37 28 -37 33 0 4 -6 7 -14 7 -8 0 -16 4 -18 8 -4 10 -105 72 -117 72 -5 0 -11 3 -13 8 -6 13 -151 79 -243 110 -230 79 -438 107 -675 91z"
       id="path28" />
    <path
       d="M4052 6350 c-250 -35 -466 -143 -648 -325 -159 -159 -243 -306 -296 -524 -29 -118 -31 -378 -4 -496 61 -270 148 -448 344 -705 125 -164 449 -469 696 -655 346 -261 542 -405 553 -405 7 0 21 7 30 15 10 8 115 87 233 175 118 88 222 166 230 173 8 7 44 34 80 62 36 27 92 72 126 100 33 27 76 62 95 77 66 53 265 244 322 309 32 36 69 77 81 90 52 56 177 234 223 316 132 236 187 436 187 683 1 203 -30 344 -114 511 -104 207 -285 383 -505 492 -170 84 -299 112 -505 111 -160 -1 -235 -14 -370 -64 -122 -45 -117 -45 -212 -7 -47 19 -121 43 -164 52 -93 20 -293 27 -382 15z m298 -733 c98 -35 132 -59 310 -224 14 -13 29 -23 35 -23 5 1 57 43 115 96 142 129 237 173 371 174 140 0 250 -44 344 -138 104 -104 141 -207 132 -364 -18 -294 -242 -596 -732 -986 -49 -40 -94 -75 -100 -80 -52 -41 -123 -92 -130 -92 -16 0 -202 143 -383 295 -104 87 -320 309 -380 390 -71 96 -146 236 -172 320 -44 145 -36 296 23 414 49 98 187 203 303 230 76 18 194 12 264 -12z"
       id="path30" />
    <path
       d="M230 1570 l0 -1540 370 0 370 0 0 814 c0 534 3 817 10 821 6 3 14 -4 20 -17 5 -13 21 -41 34 -63 14 -22 37 -62 52 -90 15 -27 82 -147 149 -265 68 -118 133 -233 145 -255 110 -196 178 -318 199 -360 14 -27 29 -52 32 -55 6 -5 22 -34 96 -168 30 -54 53 -72 53 -42 0 5 25 51 56 102 31 51 66 108 76 127 19 34 133 224 292 491 44 74 89 151 100 170 10 19 22 37 27 38 5 2 9 8 9 14 0 9 42 85 95 173 46 74 100 166 110 186 14 27 25 24 25 -8 1 -16 2 -383 3 -818 l2 -790 370 0 370 0 0 1535 0 1535 -380 3 -381 2 -37 -67 c-44 -79 -217 -374 -245 -418 -16 -25 -171 -292 -232 -400 -45 -79 -83 -140 -90 -145 -4 -3 -11 -16 -15 -29 -4 -12 -17 -38 -30 -57 -13 -19 -45 -73 -71 -119 -26 -47 -51 -85 -55 -85 -7 0 -159 265 -159 277 0 4 -6 14 -14 22 -13 16 -40 64 -122 216 -24 44 -48 87 -54 95 -5 8 -19 33 -30 55 -11 22 -33 63 -50 90 -53 89 -130 233 -130 244 0 5 -3 11 -8 13 -7 3 -84 134 -143 246 l-33 62 -393 0 -393 0 0 -1540z"
       id="path32" />
    <path
       d="M3722 1573 l3 -1538 660 -3 c795 -3 835 0 1042 98 145 69 285 183 365 297 18 27 36 50 39 53 19 14 92 185 111 255 48 185 30 414 -46 575 -41 86 -119 196 -187 262 -64 62 -81 91 -61 100 7 3 48 63 94 138 36 59 83 230 93 335 18 185 -70 477 -183 608 -75 86 -109 121 -156 154 -28 21 -53 40 -56 44 -15 18 -181 91 -257 112 -152 44 -211 47 -854 47 l-609 0 2 -1537z m1078 906 c86 -13 159 -48 209 -98 58 -58 74 -100 75 -201 1 -75 -2 -90 -26 -131 -41 -70 -87 -105 -178 -133 -73 -23 -97 -26 -241 -26 l-159 0 0 300 0 300 128 0 c70 0 156 -5 192 -11z m160 -1201 c97 -18 176 -82 215 -173 26 -62 24 -179 -5 -235 -25 -50 -79 -103 -125 -125 -88 -41 -146 -49 -355 -50 l-205 0 -3 297 -2 297 82 4 c120 5 334 -3 398 -15z"
       id="path34" />
  </g>
  <path
     style="fill:#f04370;fill-opacity:0;stroke-width:1.161"
     d="M 208.34076,428.35982 C 191.369,426.84575 167.90245,420.45794 146.68771,411.57727 94.353024,389.66955 48.811305,342.36421 29.98471,290.35492 5.3378353,222.26685 16.007674,149.62508 58.98912,92.888799 67.918391,81.102 90.183779,57.939385 97.03427,53.310543 c 2.284949,-1.543929 9.07679,-6.128987 15.09297,-10.189019 37.25051,-25.138571 82.72497,-37.5712233 130.99655,-35.814271 33.55782,1.221412 65.23548,9.598316 94.114,24.887691 10.91358,5.778067 24.03783,13.724167 25.574,15.483843 0.31928,0.365724 3.45397,2.799757 6.96599,5.40896 9.98482,7.418078 39.47392,38.240144 39.47392,41.258219 0,1.083246 -62.13497,64.765164 -66.68077,68.340884 -2.53495,1.994 -2.6223,1.91998 -9.89928,-8.39029 -16.06934,-22.76756 -39.9768,-40.20307 -65.2519,-47.58767 -10.86018,-3.17301 -40.7265,-4.40198 -54.19658,-2.23014 -36.38022,5.86574 -70.64216,32.50421 -86.34267,67.13095 -6.57633,14.50379 -9.28791,27.86096 -9.35394,46.07737 -0.0716,19.74751 2.44378,31.57422 10.19599,47.9393 9.29499,19.62193 21.76779,34.38333 39.27317,46.47934 29.85125,20.62688 63.45392,26.34549 100.13326,17.04101 24.01016,-6.09067 47.19506,-23.1138 65.69989,-48.23906 4.67745,-6.3509 8.8057,-11.54913 9.17388,-11.55163 0.36818,-0.002 4.78273,4.30565 9.81013,9.57368 5.0274,5.26802 20.26903,20.88043 33.87028,34.69423 13.60125,13.81381 24.72954,25.77198 24.72954,26.57372 0,4.74216 -28.94824,34.16882 -46.43991,47.20742 -22.87382,17.05054 -52.12663,30.34084 -82.52046,37.49116 -17.70724,4.16573 -48.75403,5.63654 -73.11157,3.46358 z"
     id="path58"
     transform="scale(0.75000002)" />
  <path
     style="fill:#f04370;fill-opacity:1;stroke-width:1.161"
     d="M 208.97959,428.48249 C 179.26216,425.28445 141.55083,411.83121 115.86872,395.26589 75.396873,369.16096 44.171586,330.69179 29.622801,289.01194 20.29409,262.28673 17.180754,244.23346 17.28439,217.46534 17.415374,183.6335 23.93955,155.44774 38.341738,126.49335 49.613653,103.83211 58.839504,91.004657 78.285023,70.956948 133.17331,14.368877 219.52975,-7.1138139 298.18512,16.252912 c 13.47719,4.003767 38.90557,14.52128 40.89034,16.912782 0.75965,0.915331 2.01266,1.664238 2.78444,1.664238 0.7718,0 6.98889,3.702916 13.81575,8.228704 15.30225,10.14443 34.07243,26.939461 45.63875,40.836273 l 8.72762,10.486137 -16.06723,16.374104 c -45.03093,45.89101 -52.13206,52.94553 -53.2953,52.94553 -0.69384,0 -4.34746,-4.3102 -8.11912,-9.57823 -16.17907,-22.59792 -37.56436,-38.4196 -63.2089,-46.76445 -8.63566,-2.81008 -12.19267,-3.27858 -28.47314,-3.75022 -20.0379,-0.5805 -31.08183,0.57918 -42.7638,4.49048 -38.90438,13.02576 -66.75129,42.78142 -78.11223,83.46637 -1.67116,5.98466 -2.09548,11.63123 -2.05024,27.28344 0.0521,18.01375 0.32916,20.6278 3.17368,29.94018 9.74664,31.90849 31.79569,58.03975 61.17592,72.50218 25.82243,12.71109 53.34119,15.40572 84.08488,8.23356 23.64349,-5.51575 47.60998,-23.14003 66.77395,-49.10367 l 8.54036,-11.57061 31.74846,32.46857 c 17.46166,17.85771 33.13062,33.88488 34.81992,35.61594 l 3.07145,3.14737 -4.71483,6.24475 c -11.17543,14.80175 -33.88463,35.59117 -52.53898,48.09745 -21.01752,14.09061 -55.4429,27.77679 -81.2524,32.30276 -11.53114,2.02211 -51.2358,3.11395 -63.85488,1.75594 z"
     id="path883"
     transform="scale(0.75000002)" />
  <path
     style="fill:#f04370;fill-opacity:1;stroke-width:0.820949"
     d="M 31.256137,644.27159 V 439.44472 h 52.053118 52.053125 l 6.73026,12.47928 c 3.70165,6.8636 8.79243,15.82221 11.31282,19.90802 2.5204,4.08581 7.40259,12.78544 10.8493,19.33251 3.44671,6.54707 8.4902,15.78275 11.20775,20.52373 2.71755,4.74099 10.2313,18.22508 16.69722,29.96466 6.46592,11.73957 13.41637,24.11538 15.44544,27.5018 2.02906,3.38642 6.0921,10.59025 9.02899,16.00851 7.8693,14.51816 16.86841,29.39813 17.80695,29.4437 1.19056,0.0578 19.00584,-28.64873 21.06754,-33.94704 0.4367,-1.12226 2.37829,-4.44711 4.31464,-7.38854 1.93636,-2.94143 9.80074,-16.24616 17.47641,-29.56606 7.67567,-13.3199 19.77442,-34.00783 26.8861,-45.97316 7.1117,-11.96534 17.60239,-29.96097 23.31264,-39.99029 l 10.38229,-18.23513 50.69362,-0.031 50.69362,-0.031 V 643.8611 848.2775 h -49.25696 -49.25696 l -0.0112,-106.92866 c -0.007,-58.81076 -0.23397,-107.75987 -0.50623,-108.77579 -0.27225,-1.01593 -0.94735,-1.84714 -1.50022,-1.84714 -1.01218,0 -24.90707,39.5782 -28.48722,47.1847 -1.05744,2.24667 -2.47676,4.747 -3.15404,5.55628 -0.67729,0.8093 -5.8727,9.31507 -11.54535,18.90173 -5.67266,9.58667 -21.51438,36.26331 -35.20381,59.28143 -13.68944,23.01812 -25.26827,42.93657 -25.73075,44.26322 l -0.84086,2.4121 -2.1874,-2.44813 c -1.20307,-1.34646 -4.71867,-7.04197 -7.81245,-12.65667 -3.09377,-5.6147 -6.60819,-11.68626 -7.8098,-13.49235 -1.20163,-1.80608 -4.15935,-6.97807 -6.57273,-11.49329 -5.33276,-9.97713 -24.93399,-45.12653 -33.64878,-60.33978 -3.49177,-6.09555 -13.01422,-22.90448 -21.16098,-37.35319 -21.3102,-37.79478 -22.2662,-39.40557 -23.38683,-39.40557 -1.67339,0 -2.01619,19.60617 -2.1351,122.11622 l -0.11122,95.84584 H 80.102624 31.256137 Z"
     id="path885"
     transform="scale(0.75000002)" />
  <path
     style="fill:#f04370;fill-opacity:1;stroke-width:0.820949"
     d="m 541.95506,848.48289 -44.94698,-0.21941 -3.2e-4,-86.80838 c -1.7e-4,-47.74461 -0.24614,-139.7521 -0.54659,-204.46109 l -0.54627,-117.65269 85.30961,0.34884 c 92.57942,0.37858 91.00137,0.30408 107.35669,5.0684 21.31825,6.21003 33.65179,12.58928 48.96504,25.32609 4.43311,3.68724 16.1972,16.83165 19.89914,22.23398 7.22889,10.54926 14.26381,28.4464 17.9788,45.73885 2.83934,13.21647 2.67081,31.45527 -0.41162,44.547 -3.55404,15.09474 -7.40643,25.2005 -13.09298,34.34608 -2.79456,4.49444 -6.30761,9.61394 -7.80677,11.37665 -2.00757,2.36049 -2.57984,3.66465 -2.17196,4.94977 0.30459,0.95967 4.17359,5.61339 8.59778,10.34161 17.88169,19.11049 27.33605,35.66378 32.25696,56.47755 1.50811,6.37879 1.74875,9.91294 1.76079,25.85991 0.0157,20.76058 -0.76902,25.55234 -6.60743,40.34801 -5.75031,14.57242 -8.57646,19.85712 -15.58289,29.13893 -12.53794,16.60971 -28.42863,29.72826 -47.54453,39.25039 -12.91115,6.43137 -23.08772,9.9128 -33.82026,11.56998 -9.53221,1.47185 -53.75087,2.85116 -83.5755,2.60697 -11.28805,-0.0924 -40.74988,-0.26677 -65.47071,-0.38744 z m 103.23438,-88.04277 c 17.81479,-1.22824 27.80724,-4.59529 35.79017,-12.05982 9.40121,-8.79071 11.7895,-15.11728 11.26459,-29.83984 -0.31401,-8.80707 -0.56482,-10.06627 -2.98378,-14.97985 -5.11756,-10.39525 -15.51323,-18.3141 -27.25673,-20.76269 -7.15956,-1.49281 -39.31529,-2.80678 -53.96221,-2.20504 l -10.87758,0.4469 0.009,37.02998 c 0.005,20.36649 0.23802,38.41534 0.51789,40.10855 l 0.50885,3.07856 17.74824,-0.0122 c 9.76153,-0.007 22.92022,-0.36878 29.24153,-0.8046 z m -9.20627,-159.27121 c 8.72413,-0.8486 20.47438,-4.33986 26.50917,-7.87649 4.48478,-2.62825 9.86819,-8.54179 12.97613,-14.25391 1.93074,-3.54856 2.44042,-5.6536 2.76674,-11.42683 0.48119,-8.51359 -0.86658,-18.04755 -3.26351,-23.08544 -2.3508,-4.94097 -10.59859,-12.9363 -16.66573,-16.15562 -10.17158,-5.39719 -24.83836,-7.62786 -50.26449,-7.6447 l -10.87758,-0.007 v 40.63699 40.637 l 15.3928,-0.0212 c 8.46604,-0.0116 19.00795,-0.37282 23.42647,-0.8026 z"
     id="path887"
     transform="scale(0.75000002)" />
  <path
     style="fill:#d6001c;fill-opacity:1;stroke-width:0.820949"
     d="m 615.96298,413.88046 c -18.55463,-13.2494 -70.32991,-52.30692 -80.37028,-60.62862 -25.66397,-21.27092 -60.96751,-55.24888 -72.48025,-69.75876 -35.19347,-44.35546 -51.47749,-85.13641 -51.47749,-128.91779 0,-10.42372 1.32804,-25.42372 2.94369,-33.24845 1.7866,-8.65267 6.62875,-22.886854 10.65431,-31.319851 12.52422,-26.236515 38.79645,-52.928022 66.08477,-67.139406 25.17981,-13.1133054 48.8467,-18.0148017 77.91056,-16.1355571 19.72438,1.2753615 25.13787,2.4907787 47.6384,10.6955871 8.42375,3.07172 8.46482,3.067255 25.8599,-2.811321 20.65465,-6.9801305 23.4698,-7.4026908 49.25696,-7.3936084 18.12625,0.00639 23.50667,0.2790118 29.5244,1.4960079 21.47268,4.3425345 45.04487,15.4078625 63.21078,29.6725855 7.58031,5.95242 21.38964,19.892972 26.8558,27.111005 11.81135,15.59683 21.29656,35.865148 25.18617,53.818628 5.06849,23.39493 4.30094,54.16547 -1.96846,78.91422 -6.27363,24.76543 -20.61089,52.24468 -41.52827,79.59437 -16.44543,21.50258 -46.17215,50.68245 -76.13954,74.73889 -23.69119,19.01819 -88.91249,67.99449 -90.54765,67.99449 -0.69061,0 -5.46682,-3.00708 -10.6138,-6.68242 z m 17.06805,-95.27643 c 6.92595,-4.7879 27.4503,-21.13475 42.94401,-34.20323 13.83556,-11.66989 40.06551,-37.94857 48.46148,-48.55152 20.56323,-25.96851 30.34966,-49.57444 30.34966,-73.20665 0,-19.16516 -7.63183,-35.30698 -22.42279,-47.42571 -10.95892,-8.97899 -22.17502,-13.13833 -37.17638,-13.78636 -20.58611,-0.88927 -31.77019,3.54671 -51.22899,20.31915 -14.47407,12.47587 -17.32176,14.76469 -18.36977,14.76469 -0.57452,0 -4.7114,-3.35309 -9.19306,-7.45131 -17.53471,-16.03451 -27.58637,-22.71466 -38.93407,-25.8749 -7.11424,-1.98125 -25.45348,-2.43588 -32.4275,-0.80386 -16.8285,3.93807 -35.57486,18.78087 -42.06923,33.30912 -4.75461,10.63632 -6.80788,25.61598 -5.17628,37.76367 1.51614,11.28801 3.85773,18.58141 9.8839,30.78561 6.87344,13.92008 13.14867,23.71356 21.81232,34.04152 9.44857,11.26368 36.12147,37.80801 47.56631,47.33705 24.39657,20.31269 46.49586,37.20464 48.71232,37.23405 0.6035,0.008 3.87413,-1.90508 7.26807,-4.25132 z"
     id="path889"
     transform="scale(0.75000002)" />
</svg>
