<?xml version="1.0" encoding="UTF-8" standalone="no"?>
<svg
   xmlns:dc="http://purl.org/dc/elements/1.1/"
   xmlns:cc="http://creativecommons.org/ns#"
   xmlns:rdf="http://www.w3.org/1999/02/22-rdf-syntax-ns#"
   xmlns:svg="http://www.w3.org/2000/svg"
   xmlns="http://www.w3.org/2000/svg"
   xmlns:sodipodi="http://sodipodi.sourceforge.net/DTD/sodipodi-0.dtd"
   xmlns:inkscape="http://www.inkscape.org/namespaces/inkscape"
   version="1.0"
   width="16.5205in"
   height="4.4190655in"
   viewBox="0 0 1189.476 318.17271">
   
  <path
     style="fill:#f04370;fill-opacity:0;stroke-width:0.87075"
     d="M 143.77327,317.42375 C 131.04445,316.28819 113.44454,311.49734 97.53348,304.83683 58.282465,288.40604 24.126175,252.92704 10.006228,213.92007 -8.4789286,162.85401 -0.47654933,108.37269 31.759536,65.820474 38.456489,56.980375 55.155531,39.608413 60.293399,36.136781 62.007111,34.978834 67.100992,31.540041 71.613127,28.495017 99.55101,9.641088 133.65686,0.31659854 169.86054,1.6343128 c 25.16837,0.916059 48.92661,7.1987372 70.5855,18.6657692 8.18519,4.33355 18.02838,10.293125 19.1805,11.612882 0.23946,0.274293 2.59048,2.099818 5.2245,4.05672 7.48861,5.563559 29.60544,28.680109 29.60544,30.943665 0,0.812435 -46.60123,48.573871 -50.01058,51.255661 -1.90121,1.4955 -1.96673,1.43999 -7.42446,-6.29271 -12.05201,-17.075674 -29.9826,-30.152307 -48.93893,-35.690757 -8.14513,-2.379758 -30.54487,-3.301486 -40.64743,-1.672606 -27.28517,4.399306 -52.981625,24.378159 -64.757008,50.348213 -4.932247,10.87784 -6.965932,20.89572 -7.015455,34.55803 -0.0537,14.81063 1.832835,23.68067 7.646993,35.95448 6.971243,14.71644 16.325843,25.78749 29.45488,34.8595 22.38844,15.47016 47.59044,19.75912 75.09995,12.78076 18.00762,-4.568 35.39629,-17.33535 49.27491,-36.1793 3.50809,-4.76317 6.60428,-8.66184 6.88041,-8.66372 0.27614,-10e-4 3.58705,3.22924 7.3576,7.18026 3.77055,3.95102 15.20177,15.66032 25.40271,26.02067 10.20094,10.36036 18.54716,19.32899 18.54716,19.93029 0,3.55662 -21.71118,25.62662 -34.82994,35.40557 -17.15536,12.78791 -39.09497,22.75563 -61.89034,28.11837 -13.28043,3.1243 -36.56553,4.22741 -54.83368,2.59769 z"
     id="path58" />
  <path
     style="fill:#f04370;fill-opacity:1;stroke-width:0.87075"
     d="M 143.77326,317.42374 C 121.48519,315.02521 93.201695,304.93528 73.940119,292.51129 43.586229,272.93259 20.167269,244.08071 9.2556789,212.82082 2.2591389,192.77691 -0.07586115,179.23696 0.00186885,159.16087 0.10006885,133.78699 4.9932389,112.64767 15.794879,90.931884 24.248819,73.935953 31.168209,64.315363 45.752349,49.279581 86.918559,6.8385259 151.68588,-9.2734925 210.67741,8.2515529 c 10.1079,3.0028251 29.17919,10.8909601 30.66776,12.6845871 0.56974,0.686498 1.5095,1.248179 2.08833,1.248179 0.57885,0 5.24167,2.777187 10.36182,6.171528 11.47668,7.608322 25.55432,20.204596 34.22906,30.627205 l 6.54571,7.864603 -12.05042,12.280579 c -33.7732,34.418246 -39.09904,39.709146 -39.97147,39.709146 -0.52038,0 -3.2606,-3.23265 -6.08934,-7.18368 -12.13431,-16.948431 -28.17328,-28.814691 -47.40669,-35.073329 -6.47674,-2.10756 -9.1445,-2.458935 -21.35485,-2.812665 -15.02843,-0.435375 -23.31137,0.434385 -32.07285,3.36786 -29.17829,9.76932 -50.063461,32.086054 -58.584171,62.599774 -1.25337,4.48849 -1.57161,8.72342 -1.53768,20.46258 0.0391,13.51031 0.24687,15.47085 2.38026,22.45513 7.30998,23.93137 23.846761,43.52982 45.881941,54.37664 19.36682,9.53332 40.00589,11.55429 63.06366,6.17517 17.73262,-4.13681 35.70748,-17.35502 50.08047,-36.82775 l 6.40527,-8.67796 23.81134,24.35143 c 13.09625,13.39328 24.84797,25.41366 26.11494,26.71195 l 2.30359,2.36053 -3.53612,4.68356 c -8.38158,11.10132 -25.41348,26.69338 -39.40424,36.07309 -15.76314,10.56796 -41.58218,20.8326 -60.93931,24.22707 -8.64835,1.51659 -38.42685,2.33547 -47.89116,1.31696 z"
     id="path883" />
  <path
     style="fill:#f04370;fill-opacity:1;stroke-width:0.615712"
     d="M 630.9326,154.56845 V 0.9482983 h 39.03984 39.03984 l 5.0477,9.3594607 c 2.77623,5.1477 6.59432,11.866657 8.48461,14.931015 1.8903,3.064358 5.55194,9.58908 8.13698,14.499383 2.58503,4.910303 6.36765,11.837063 8.40581,15.392798 2.03816,3.555742 7.67348,13.66881 12.52292,22.473495 4.84944,8.804678 10.06227,18.086536 11.58408,20.626353 1.52179,2.539807 4.56907,7.942687 6.77174,12.006377 5.90197,10.88862 12.65131,22.0486 13.35521,22.08278 0.89292,0.0434 14.25438,-21.48655 15.80066,-25.46028 0.32752,-0.8417 1.78371,-3.33534 3.23598,-5.54141 1.45227,-2.206067 7.35055,-12.184617 13.1073,-22.174542 5.75676,-9.989925 14.83082,-25.505873 20.16458,-34.479871 5.33378,-8.974005 13.20179,-22.470728 17.48448,-29.992718 l 7.78672,-13.6763482 38.02021,-0.02325 38.02022,-0.02325 V 154.26058 307.57289 h -36.94272 -36.94272 l -0.008,-80.1965 c -0.005,-44.10807 -0.17548,-80.8199 -0.37967,-81.58184 -0.20419,-0.76195 -0.71052,-1.38536 -1.12517,-1.38536 -0.75913,0 -18.6803,29.68365 -21.36541,35.38853 -0.79308,1.685 -1.85757,3.56025 -2.36553,4.16721 -0.50797,0.60697 -4.40453,6.9863 -8.65902,14.1763 -4.25449,7.19 -16.13578,27.19748 -26.40286,44.46107 -10.26708,17.26359 -18.9512,32.20243 -19.29806,33.19742 l -0.63064,1.80907 -1.64055,-1.8361 c -0.90231,-1.00984 -3.53901,-5.28147 -5.85934,-9.4925 -2.32033,-4.21103 -4.95614,-8.7647 -5.85735,-10.11926 -0.90122,-1.35456 -3.11951,-5.23356 -4.92955,-8.61997 -3.99957,-7.48285 -18.70049,-33.8449 -25.23659,-45.25484 -2.61882,-4.57166 -9.76066,-17.17836 -15.87073,-28.01489 -15.98265,-28.34609 -16.69965,-29.55418 -17.54012,-29.55418 -1.25505,0 -1.51215,14.70463 -1.60133,91.58717 l -0.0834,71.88438 h -36.63485 -36.63486 z"
     id="path885" />
  <path
     style="fill:#f04370;fill-opacity:1;stroke-width:0.615712"
     d="m 1000.0248,306.85618 -33.71021,-0.16455 -2.4e-4,-65.10629 c -1.3e-4,-35.80846 -0.1846,-104.81408 -0.40994,-153.34582 L 965.49471,0 1029.4769,0.26163 c 69.4346,0.283935 68.2511,0.22806 80.5175,3.8013001 15.9887,4.6575228 25.2389,9.4419599 36.7238,18.9945679 3.3249,2.76543 12.1479,12.623738 14.9244,16.675486 5.4216,7.911945 10.6978,21.3348 13.4841,34.304138 2.1295,9.912353 2.0031,23.591451 -0.3087,33.410248 -2.6656,11.32106 -5.5549,18.90038 -9.8198,25.75956 -2.0959,3.37083 -4.7307,7.21046 -5.855,8.53249 -1.5057,1.77037 -1.9349,2.74849 -1.629,3.71233 0.2284,0.71975 3.1302,4.21004 6.4483,7.7562 13.4113,14.33287 20.5021,26.74784 24.1927,42.35817 1.1311,4.78409 1.3116,7.4347 1.3206,19.39493 0.012,15.57044 -0.5767,19.16426 -4.9555,30.26101 -4.3128,10.92931 -6.4324,14.89284 -11.6872,21.8542 -9.4035,12.45728 -21.3215,22.29619 -35.6584,29.43779 -9.6834,4.82353 -17.3158,7.4346 -25.3652,8.67749 -7.1492,1.10388 -40.3132,2.13837 -62.6816,1.95522 -8.4661,-0.0693 -30.5624,-0.20007 -49.1031,-0.29058 z m 77.4258,-66.03208 c 13.3611,-0.92118 20.8555,-3.44646 26.8427,-9.04486 7.0509,-6.59303 8.8421,-11.33796 8.4484,-22.37988 -0.2355,-6.60531 -0.4236,-7.54971 -2.2378,-11.23489 -3.8382,-7.79644 -11.635,-13.73558 -20.4426,-15.57202 -5.3697,-1.11961 -29.4865,-2.10508 -40.4716,-1.65378 l -8.1582,0.33518 0.01,27.77248 c 0,15.27487 0.1785,28.81151 0.3884,30.08142 l 0.3817,2.30892 13.3112,-0.009 c 7.3211,-0.005 17.1901,-0.27659 21.9311,-0.60345 z m -6.9047,-119.45341 c 6.5431,-0.63645 15.3558,-3.25489 19.8819,-5.90736 3.3636,-1.97119 7.4011,-6.40635 9.7321,-10.69044 1.4481,-2.66142 1.8303,-4.2402 2.0751,-8.570117 0.3608,-6.385193 -0.65,-13.535663 -2.4477,-17.314081 -1.7631,-3.705727 -7.9489,-9.702225 -12.4993,-12.116715 -7.6287,-4.047893 -18.6287,-5.720895 -37.6983,-5.733525 l -8.1582,-0.0053 v 30.477743 30.477745 l 11.5446,-0.0159 c 6.3495,-0.009 14.2559,-0.27961 17.5698,-0.60195 z"
     id="path887" />
  <path
     style="fill:#d6001c;fill-opacity:1;stroke-width:0.615712"
     d="m 452.97293,306.56423 c -13.91598,-9.93705 -52.74744,-39.2302 -60.27772,-45.47147 -19.24797,-15.95319 -45.72563,-41.43666 -54.36018,-52.31907 -26.39511,-33.2666 -38.60812,-63.85231 -38.60812,-96.68835 0,-7.81779 0.99603,-19.06779 2.20776,-24.93633 1.33995,-6.48951 4.97157,-17.16515 7.99074,-23.48989 9.39316,-19.67739 29.09734,-39.69602 49.56358,-50.35456 18.88485,-9.8349799 36.63502,-13.5110999 58.43292,-12.1016699 14.79328,0.95652 18.8534,1.86809 35.7288,8.0216898 6.31781,2.3037901 6.34861,2.3004401 19.39492,-2.10849 15.49099,-5.2350998 17.60235,-5.5520198 36.94273,-5.5451998 13.59468,0.005 17.63,0.20925 22.1433,1.122 16.10451,3.2569 33.78365,11.5558999 47.40808,22.2544399 5.68528,4.46432 16.04228,14.91973 20.14188,20.33326 8.8585,11.69762 15.9724,26.89886 18.8896,40.36397 3.8014,17.5462 3.2257,40.6241 -1.4763,59.18566 -4.7053,18.57408 -15.4582,39.18352 -31.1462,59.69578 -12.33412,16.12694 -34.62916,38.01184 -57.1047,56.05417 -17.7684,14.26365 -66.68437,50.99587 -67.91074,50.99587 -0.51796,0 -4.10012,-2.25531 -7.96035,-5.01181 z m 12.80103,-71.45733 c 5.19447,-3.59092 20.58773,-15.85106 32.20801,-25.65242 10.37667,-8.75242 30.04914,-28.46143 36.34611,-36.41364 15.42243,-19.47639 22.76225,-37.18083 22.76225,-54.90499 0,-14.37387 -5.72387,-26.48024 -16.81709,-35.56928 -8.21919,-6.73425 -16.63127,-9.85375 -27.88229,-10.33978 -15.43958,-0.66695 -23.82764,2.66004 -38.42174,15.23937 -10.85556,9.356903 -12.99132,11.073523 -13.77733,11.073523 -0.43089,0 -3.53355,-2.514823 -6.8948,-5.588493 -13.15103,-12.02588 -20.68977,-17.03599 -29.20055,-19.40617 -5.33568,-1.48594 -19.09011,-1.82691 -24.32063,-0.6029 -12.62137,2.95355 -26.68114,14.08566 -31.55192,24.981843 -3.56596,7.977237 -5.10591,19.211987 -3.88221,28.322757 1.13711,8.466 2.8933,13.93605 7.41293,23.0892 5.15508,10.44006 9.8615,17.78517 16.35924,25.53115 7.08642,8.44776 27.0911,28.356 35.67473,35.50278 18.29743,15.23452 34.8719,27.90348 36.53424,27.92554 0.45263,0.006 2.9056,-1.42881 5.45105,-3.18849 z"
     id="path889" />
</svg>
