<?xml version="1.0" standalone="no"?>
<!DOCTYPE svg PUBLIC "-//W3C//DTD SVG 20010904//EN"
 "http://www.w3.org/TR/2001/REC-SVG-20010904/DTD/svg10.dtd">
<svg version="1.0" xmlns="http://www.w3.org/2000/svg"
 width="640.000000pt" height="640.000000pt" viewBox="0 0 640.000000 640.000000"
 preserveAspectRatio="xMidYMid meet">

<g transform="translate(0.000000,640.000000) scale(0.100000,-0.100000)"
fill="#ff69b4" stroke="none">
<path d="M1640 6349 c-295 -19 -562 -109 -812 -272 -43 -28 -78 -55 -78 -59 0
-4 -5 -8 -11 -8 -24 0 -214 -188 -280 -276 -24 -32 -46 -61 -49 -64 -15 -13
-98 -153 -132 -222 -156 -316 -198 -707 -113 -1049 28 -111 78 -253 114 -319
65 -121 115 -204 131 -220 3 -3 21 -25 40 -50 153 -198 347 -356 575 -468 151
-74 325 -129 490 -154 123 -18 404 -15 525 5 194 33 450 133 610 238 36 24 67
46 70 49 3 3 30 24 60 46 78 59 219 200 283 285 l28 37 -28 33 c-15 19 -38 42
-51 52 -12 10 -28 24 -35 32 -6 7 -102 105 -212 219 l-200 206 -23 -27 c-31
-39 -34 -42 -71 -96 -78 -114 -248 -251 -380 -306 -74 -31 -236 -61 -330 -61
-330 0 -644 193 -790 487 -58 116 -82 209 -88 337 -20 408 253 770 661 878
111 29 307 31 421 4 210 -50 404 -186 531 -371 21 -32 43 -63 49 -71 7 -10 29
7 95 76 47 49 165 170 263 270 l178 181 -21 27 c-51 66 -90 109 -159 176 -100
96 -101 98 -144 126 -20 14 -37 28 -37 33 0 4 -6 7 -14 7 -8 0 -16 4 -18 8 -4
10 -105 72 -117 72 -5 0 -11 3 -13 8 -6 13 -151 79 -243 110 -230 79 -438 107
-675 91z"/>
<path d="M4052 6350 c-250 -35 -466 -143 -648 -325 -159 -159 -243 -306 -296
-524 -29 -118 -31 -378 -4 -496 61 -270 148 -448 344 -705 125 -164 449 -469
696 -655 346 -261 542 -405 553 -405 7 0 21 7 30 15 10 8 115 87 233 175 118
88 222 166 230 173 8 7 44 34 80 62 36 27 92 72 126 100 33 27 76 62 95 77 66
53 265 244 322 309 32 36 69 77 81 90 52 56 177 234 223 316 132 236 187 436
187 683 1 203 -30 344 -114 511 -104 207 -285 383 -505 492 -170 84 -299 112
-505 111 -160 -1 -235 -14 -370 -64 -122 -45 -117 -45 -212 -7 -47 19 -121 43
-164 52 -93 20 -293 27 -382 15z m298 -733 c98 -35 132 -59 310 -224 14 -13
29 -23 35 -23 5 1 57 43 115 96 142 129 237 173 371 174 140 0 250 -44 344
-138 104 -104 141 -207 132 -364 -18 -294 -242 -596 -732 -986 -49 -40 -94
-75 -100 -80 -52 -41 -123 -92 -130 -92 -16 0 -202 143 -383 295 -104 87 -320
309 -380 390 -71 96 -146 236 -172 320 -44 145 -36 296 23 414 49 98 187 203
303 230 76 18 194 12 264 -12z"/>
<path d="M230 1570 l0 -1540 370 0 370 0 0 814 c0 534 3 817 10 821 6 3 14 -4
20 -17 5 -13 21 -41 34 -63 14 -22 37 -62 52 -90 15 -27 82 -147 149 -265 68
-118 133 -233 145 -255 110 -196 178 -318 199 -360 14 -27 29 -52 32 -55 6 -5
22 -34 96 -168 30 -54 53 -72 53 -42 0 5 25 51 56 102 31 51 66 108 76 127 19
34 133 224 292 491 44 74 89 151 100 170 10 19 22 37 27 38 5 2 9 8 9 14 0 9
42 85 95 173 46 74 100 166 110 186 14 27 25 24 25 -8 1 -16 2 -383 3 -818 l2
-790 370 0 370 0 0 1535 0 1535 -380 3 -381 2 -37 -67 c-44 -79 -217 -374
-245 -418 -16 -25 -171 -292 -232 -400 -45 -79 -83 -140 -90 -145 -4 -3 -11
-16 -15 -29 -4 -12 -17 -38 -30 -57 -13 -19 -45 -73 -71 -119 -26 -47 -51 -85
-55 -85 -7 0 -159 265 -159 277 0 4 -6 14 -14 22 -13 16 -40 64 -122 216 -24
44 -48 87 -54 95 -5 8 -19 33 -30 55 -11 22 -33 63 -50 90 -53 89 -130 233
-130 244 0 5 -3 11 -8 13 -7 3 -84 134 -143 246 l-33 62 -393 0 -393 0 0
-1540z"/>
<path d="M3722 1573 l3 -1538 660 -3 c795 -3 835 0 1042 98 145 69 285 183
365 297 18 27 36 50 39 53 19 14 92 185 111 255 48 185 30 414 -46 575 -41 86
-119 196 -187 262 -64 62 -81 91 -61 100 7 3 48 63 94 138 36 59 83 230 93
335 18 185 -70 477 -183 608 -75 86 -109 121 -156 154 -28 21 -53 40 -56 44
-15 18 -181 91 -257 112 -152 44 -211 47 -854 47 l-609 0 2 -1537z m1078 906
c86 -13 159 -48 209 -98 58 -58 74 -100 75 -201 1 -75 -2 -90 -26 -131 -41
-70 -87 -105 -178 -133 -73 -23 -97 -26 -241 -26 l-159 0 0 300 0 300 128 0
c70 0 156 -5 192 -11z m160 -1201 c97 -18 176 -82 215 -173 26 -62 24 -179 -5
-235 -25 -50 -79 -103 -125 -125 -88 -41 -146 -49 -355 -50 l-205 0 -3 297 -2
297 82 4 c120 5 334 -3 398 -15z"/>
</g>
</svg>
