<?xml version="1.0" encoding="UTF-8"?>
<svg width="1280" height="1280" inkscape:version="1.0 (4035a4fb49, 2020-05-01)" sodipodi:docname="combtransparentrainbow.svg" version="1.1" viewBox="0 0 1280 1280" xmlns="http://www.w3.org/2000/svg" xmlns:cc="http://creativecommons.org/ns#" xmlns:dc="http://purl.org/dc/elements/1.1/" xmlns:inkscape="http://www.inkscape.org/namespaces/inkscape" xmlns:rdf="http://www.w3.org/1999/02/22-rdf-syntax-ns#" xmlns:sodipodi="http://sodipodi.sourceforge.net/DTD/sodipodi-0.dtd">
 <metadata>
  <rdf:RDF>
   <cc:Work rdf:about="">
    <dc:format>image/svg+xml</dc:format>
    <dc:type rdf:resource="http://purl.org/dc/dcmitype/StillImage"/>
    <dc:title/>
   </cc:Work>
  </rdf:RDF>
 </metadata>
 <sodipodi:namedview bordercolor="#666666" borderopacity="1" gridtolerance="10" guidetolerance="10" inkscape:current-layer="g253" inkscape:cx="640" inkscape:cy="200.34841" inkscape:pageopacity="0" inkscape:pageshadow="2" inkscape:window-height="850" inkscape:window-maximized="1" inkscape:window-width="1368" inkscape:window-x="-6" inkscape:window-y="-6" inkscape:zoom="0.8359833" objecttolerance="10" pagecolor="#ffffff" showgrid="false"/>
 <g inkscape:groupmode="layer" inkscape:label="Image">
  <g transform="translate(-8.5714 -8.2857)" stroke-width="1.3333">
   <path d="m853.16 1276.3c-88.274-0.2867-107.78-0.6711-109-2.1481-1.0943-1.3185-1.4032-83.996-1.1567-309.66l0.33618-307.86h258.67l16.802 3.6343c40.141 8.6825 69.642 23.592 95.697 48.366 15.934 15.15 26.446 29.346 35.545 48 13.187 27.034 17.693 45.215 18.859 76.083 0.6378 16.889 0.3304 24.277-1.4538 34.948-4.301 25.722-14.755 51.311-29.733 72.778l-7.3088 10.476 11.9 11.524c65.356 63.296 72.823 160.92 17.963 234.86-9.9849 13.458-27.863 30.821-42.362 41.144-14.257 10.15-42.233 24.026-57.907 28.721-24.678 7.3926-48.844 10.327-80.667 9.796-10.267-0.1713-67.046-0.4687-126.18-0.6607zm136.84-140.78c12.592-3.5558 26.525-11 33.133-17.702 24.66-25.013 15.745-69.91-17.048-85.86-15.225-7.4054-20.03-7.99-65.669-7.99h-41.691l-0.36242 54.333c-0.19934 29.883-0.16482 55.728 0.0767 57.433l0.43914 3.0997 41.561-0.5274c33.848-0.4294 43.046-0.9466 49.561-2.7863zm-18.667-238.87c33.563-9.5279 49.664-34.096 42.74-65.215-3.9215-17.627-14.911-30.508-33.15-38.858-12.774-5.848-23.052-7.2312-53.924-7.2564l-28.333-0.0231v114.97l32.333-0.67227c24.834-0.51629 34.189-1.1989 40.333-2.9433zm-926.72 377.65c-0.34826-0.9166-0.47943-140.27-0.29149-309.67l0.34172-308 159.28-0.68763 3.2214 5.0105c1.7718 2.7558 14.905 26.01 29.185 51.677 14.28 25.667 33.024 59.267 41.653 74.667 8.629 15.4 24.249 43.3 34.712 62 10.462 18.7 23.229 41.5 28.37 50.667s10.047 16.667 10.901 16.667c1.4703 0 15.471-23.634 110.97-187.33 22.033-37.767 40.973-69.717 42.088-71 1.8862-2.1715 7.3264-2.3333 78.44-2.3333 74.183 0 76.453 0.0753 77.793 2.579 0.93993 1.7563 1.3802 100.17 1.3802 308.5 0 256.6-0.29292 306.17-1.8169 307.43-1.3148 1.0912-22.409 1.4126-76.333 1.1632l-74.516-0.3446-0.66667-160.33c-0.38304-92.122-1.1724-160.48-1.8555-160.67-1.1548-0.32367-6.3002 8.0783-43.481 71-9.7499 16.5-25.95 43.8-36 60.667s-27.144 45.667-37.986 64c-35.105 59.362-38.814 65.323-40.903 65.725-1.4579 0.2808-9.2492-12.34-26.749-43.331-13.581-24.05-40.436-71.627-59.678-105.73-59.078-104.7-63.273-112-64.327-112-0.5617 0-1.0213 71.58-1.0213 159.07 0 121.94-0.37344 159.44-1.6 160.67-2.3726 2.3726-150.21 2.3074-151.12-0.067zm265.38-628.34c-75.139-10.655-137.65-40.51-189.82-90.655-52.945-50.889-86.045-116.01-95.455-187.79-2.3964-18.281-2.7198-57.623-0.62953-76.598 10.78-97.862 68.722-186.04 156.34-237.92 66.771-39.536 148.93-54.545 227.57-41.57 75.308 12.426 145.67 52.16 195.74 110.54 6.9188 8.0667 13.197 16.001 13.952 17.633 1.2501 2.7028-1.4578 5.878-30.493 35.757-17.526 18.035-41.491 42.762-53.256 54.949-15.153 15.697-22.003 21.923-23.491 21.352-1.1553-0.44333-6.7819-7.6052-12.504-15.915-34.904-50.694-86.596-78.685-145.34-78.702-46.346-0.0133-86.712 16.356-120.48 48.858-21.635 20.824-36.121 43.194-44.82 69.215-20.439 61.141-4.4657 125.57 42.615 171.9 18.408 18.112 44.409 34.108 68.744 42.293 31.468 10.584 74.568 10.771 106.63 0.46467 39.14-12.582 68.979-37.271 101.01-83.577 2.3682-3.4239 5.1685-6.2252 6.2227-6.2252 1.9042 0 105.24 105.26 107.6 109.6 2.8482 5.2461-41.186 51.708-68.126 71.882-44.743 33.505-89.039 52.663-144.99 62.706-20.531 3.6852-76.399 4.7213-97.007 1.799zm565.17-58.322c-58.158-43.714-62.316-46.976-91.34-71.667-86.211-73.34-137.24-140.62-155-204.36-10.621-38.124-12.098-48.735-12.104-86.969-4e-3 -27.227 0.25276-30.417 3.5841-44.432 10.495-44.152 31.023-80.33 62.6-110.33 18.45-17.526 36.337-29.895 58.626-40.54 18.111-8.6498 33.15-13.713 54.294-18.28 15.328-3.3107 19.347-3.6365 44.838-3.6342 25.326 0.00221 29.592 0.34367 44.667 3.5751 9.1667 1.965 22.967 6.0275 30.667 9.0278 25.395 9.8951 22.884 9.3554 29.474 6.3358 11.27-5.1643 36.578-13.103 50.493-15.839 35.144-6.9095 78.266-4.0367 114.03 7.5968 15.108 4.9137 40.576 17.455 54.884 27.025 23.142 15.48 46.913 39.164 62.382 62.157 7.9854 11.869 20.864 38.236 25.294 51.783 16.034 49.041 12.646 114.15-8.89 170.88-22.228 58.556-72.394 121.09-149.67 186.58-27.182 23.035-41.155 33.976-93.317 73.068l-54.683 40.98-13.626 0.0391zm87.075-121.22c57.633-44.32 98.517-82.371 125.42-116.73 10.221-13.054 26.983-39.214 31.02-48.412 8.2131-18.713 11.055-31.197 11.68-51.305 0.7019-22.586-0.5869-29.327-8.5833-44.896-14.412-28.061-40.409-46.035-73.089-50.534-12.071-1.6619-20.955-0.92938-35.294 2.91-15.75 4.2176-26.438 10.708-45.637 27.714-25.699 22.763-27.69 24.271-30.237 22.895-1.2023-0.64968-11.714-9.6557-23.358-20.013-16.91-15.041-23.352-19.885-32-24.061-19.772-9.5481-36.786-12.232-56.161-8.86-22.387 3.8967-40.482 13.627-55.19 29.678-8.8988 9.7115-18.801 27.674-21.592 39.168-2.2355 9.2054-2.266 32.783-0.0561 43.333 4.7969 22.902 11.406 38.258 25.898 60.172 29.214 44.176 77.374 91.097 148.08 144.27 7.9622 5.9879 15.271 10.887 16.241 10.887 0.97016 0 11.256-7.2991 22.857-16.22z" fill="#e796ab"/>
   <path d="m47.667 1273.7c-2.2138-0.557-2.3333-16.323-2.3333-307.68 0-278.8 0.19432-307.17 2.109-307.9 1.16-0.44513 36.145-0.80932 77.745-0.80932 58.477 0 76.122 0.37812 77.78 1.6667 1.1792 0.91667 16.375 27.167 33.768 58.333 17.393 31.167 38.346 68.667 46.563 83.333 8.2162 14.667 26.524 47.367 40.684 72.667 14.16 25.3 25.986 46.279 26.279 46.62 1.6497 1.9178 6.5841-5.3308 24.929-36.62 21.941-37.422 101.37-173.28 119.52-204.42 6.1163-10.497 12.18-19.652 13.474-20.345 1.4192-0.75953 31.892-1.1228 76.754-0.91508l74.4 0.34456 0.33619 307.25c0.26504 242.23-0.012 307.47-1.3061 308.27-2.2089 1.3652-143.91 1.4314-146.02 0.068-1.308-0.8449-1.7333-35.433-2-162.66-0.22305-106.42-0.79396-161.67-1.672-161.83-1.5721-0.2763 1.1667-4.8064-88.21 145.9-38.597 65.083-70.84 118.32-71.65 118.3-0.81035-0.021-11.318-17.571-23.351-39-19.751-35.175-63.113-112.15-108.7-192.96-9.3075-16.5-17.511-30.595-18.23-31.322-0.86193-0.87192-1.7352-0.6449-2.5644 0.66666-0.76932 1.2169-1.2653 64.168-1.2778 162.18-0.0187 146.58-0.20439 160.26-2.1855 161.02-2.407 0.9236-141.14 0.7761-144.83-0.154zm698.49-1.0961c-1.9687-1.9687-2.1526-28.126-2.1526-306.15 0-207 0.44039-304.82 1.3802-306.57 1.3483-2.5193 4.0284-2.5785 115.67-2.5579 62.858 0.012 121.38 0.60864 130.04 1.3267 29.713 2.4619 55.334 9.2827 78.908 21.007 17.823 8.864 29.036 16.829 44.202 31.396 31.358 30.12 47.723 65.292 52.542 112.92 4.1408 40.924-6.687 81.201-31.358 116.64-3.9519 5.6777-6.8868 11.004-6.5219 11.836s3.9147 4.2134 7.8884 7.5134c27.747 23.043 49.231 62.198 56.038 102.13 3.2131 18.85 2.0083 49.404-2.6918 68.263-8.1095 32.539-24.549 61.344-48.834 85.568-27.628 27.558-61.315 45.535-103.23 55.088-11.65 2.6553-16.484 2.759-150.88 3.2362-126.43 0.4489-139.04 0.3005-141-1.6597zm243.58-135.07c21.499-5.8313 37.436-17.334 44.518-32.129 2.7713-5.7898 3.6898-10.036 4.1547-19.209 1.297-25.588-9.4797-44.949-31.119-55.907-14.727-7.4577-18.068-7.9066-64.282-8.6381-33.225-0.5258-43.45-0.3023-45 0.9837-1.7274 1.4337-2.0052 9.5475-2.0052 58.568 0 43.719 0.38616 57.301 1.6667 58.618 1.311 1.3488 10.203 1.5889 41.667 1.125 35.404-0.5218 41.195-0.9138 50.401-3.4107zm-21.734-238.46c20.562-4.0748 36.559-15.115 44.102-30.436 3.3473-6.7992 4.3233-10.742 4.8841-19.731 1.5665-25.11-8.8343-44.187-30.26-55.501-15.32-8.09-23.983-9.711-55.709-10.424-15.574-0.35004-29.831-0.25654-31.681 0.20778l-3.3636 0.84422 0.34732 58.304 0.34734 58.304 16 0.77656c21.144 1.0262 42.997 0.10026 55.333-2.3446zm-647.33-253.93c-98.934-9.3662-189.48-62.988-243.96-144.47-25.799-38.588-42.097-80.651-49.615-128.05-3.2873-20.726-3.2462-70.041 0.076094-91.323 22.679-145.28 139.08-254.54 288.37-270.71 22.478-2.4338 71.519-1.0573 91.79 2.5763 81.146 14.546 150.14 54.716 201 117.03 4.2167 5.1662 7.6667 10.167 7.6667 11.113 0 0.94583-7.65 9.589-17 19.207-9.35 9.618-32.584 33.527-51.631 53.132-19.047 19.605-35.367 35.645-36.266 35.645-0.89935 0-5.9759-6.3769-11.281-14.171-36.226-53.22-92.602-82.559-153.82-80.051-26.583 1.0887-47.64 6.4285-70.646 17.915-51.159 25.543-86.209 71.588-96.8 127.16-2.159 11.329-2.1504 42.055 0.0152 54.476 12.178 69.85 69.113 127.33 140.76 142.11 16.223 3.3463 49.838 3.4071 66.367 0.12 45.604-9.0693 83.86-35.478 114.87-79.295 5.8127-8.2135 11.31-14.934 12.217-14.934 2.3456 0 106.03 106.95 105.59 108.91-0.73148 3.1891-25.966 31.69-39.518 44.633-68.487 65.409-163 97.975-258.19 88.964zm605.25-21.504c-36.769-26.248-128.87-97.122-151.91-116.9-27.431-23.546-73.654-70.592-81.378-82.827-1.6843-2.668-4.1652-5.9464-5.5133-7.2853-1.3481-1.3389-3.351-3.7656-4.451-5.3926-1.1-1.627-4.6523-6.4402-7.8939-10.696-3.2417-4.2557-6.7289-9.2749-7.7494-11.154-1.0205-1.8788-3.5864-6.116-5.702-9.416s-8.1576-14.7-13.427-25.333c-5.269-10.633-10.401-20.926-11.404-22.872-1.0032-1.9465-1.824-4.2558-1.824-5.1318 0-0.87602-0.8434-3.4834-1.8742-5.7943-2.2048-4.9426-5.277-14.046-7.2677-21.535-4.3822-16.486-5.8105-24.713-7.6389-44-5.5487-58.53 7.8131-111.35 38.603-152.59 35.229-47.192 82.651-77.927 137.94-89.403 31.137-6.4627 61.381-6.4327 92.903 0.092 11.613 2.4038 18.739 4.7733 46.79 15.559 5.3846 2.0704 5.6049 2.0349 16.667-2.6906 49.79-21.27 106.62-23.48 159.21-6.1931 16.766 5.511 44.317 19.546 59.328 30.223 25.134 17.877 52.964 49 67.697 75.707 31.066 56.314 33.772 133.35 7.0434 200.52-20.849 52.402-53.109 97.689-106.87 150.03-33.395 32.51-54.737 49.835-140.95 114.42-48.123 36.05-51.506 38.333-56.785 38.333-4.4702 0-7.2306-1.1542-13.552-5.6667zm33.991-154.67c36.702-27.764 69.132-55.33 92.916-78.98 42.639-42.398 62.77-72.374 73.219-109.02 4.288-15.04 4.6248-17.585 4.6248-34.947 0-25.675-3.4326-37.643-15.547-54.207-25.672-35.101-72.729-47.965-114.04-31.177-13.065 5.3086-13.378 5.5523-58.086 45.151l-3.0109 2.6668-4.3224-3.1652c-2.3773-1.7409-11.622-9.7119-20.544-17.713-29.752-26.682-41.993-32.566-70.473-33.874-13.689-0.62859-17.648-0.31612-27.128 2.1412-28.461 7.3774-49.583 24.593-62.176 50.674-11.147 23.087-11.067 50.664 0.24297 83.405 9.2054 26.649 29.59 58.555 52.459 82.108 1.8128 1.8671 6.94 7.2671 11.394 12 9.858 10.476 34.551 33.486 44.569 41.532 4.0333 3.2392 13.852 11.171 21.818 17.626 28.376 22.991 50.609 39.447 53.295 39.447 1.5 0 10.857-6.15 20.794-13.667z" fill="#fce046"/>
   <path d="m47.667 1273.7c-2.2138-0.557-2.3333-16.323-2.3333-307.68 0-278.8 0.19432-307.17 2.109-307.9 1.16-0.44513 36.145-0.80932 77.745-0.80932 58.477 0 76.122 0.37812 77.78 1.6667 1.1792 0.91667 16.375 27.167 33.768 58.333 17.393 31.167 38.346 68.667 46.563 83.333 8.2162 14.667 26.524 47.367 40.684 72.667 14.16 25.3 25.986 46.279 26.279 46.62 1.6497 1.9178 6.5841-5.3308 24.929-36.62 21.941-37.422 101.37-173.28 119.52-204.42 6.1163-10.497 12.18-19.652 13.474-20.345 1.4192-0.75953 31.892-1.1228 76.754-0.91508l74.4 0.34456 0.33619 307.25c0.26504 242.23-0.012 307.47-1.3061 308.27-2.2089 1.3652-143.91 1.4314-146.02 0.068-1.308-0.8449-1.7333-35.433-2-162.66-0.22305-106.42-0.79396-161.67-1.672-161.83-1.5721-0.2763 1.1667-4.8064-88.21 145.9-38.597 65.083-70.84 118.32-71.65 118.3-0.81035-0.021-11.318-17.571-23.351-39-19.751-35.175-63.113-112.15-108.7-192.96-9.3075-16.5-17.511-30.595-18.23-31.322-0.86193-0.87192-1.7352-0.6449-2.5644 0.66666-0.76932 1.2169-1.2653 64.168-1.2778 162.18-0.0187 146.58-0.20439 160.26-2.1855 161.02-2.407 0.9236-141.14 0.7761-144.83-0.154zm698.49-1.0961c-1.9687-1.9687-2.1526-28.126-2.1526-306.15 0-207 0.44039-304.82 1.3802-306.57 1.3483-2.5193 4.0284-2.5785 115.67-2.5579 62.858 0.012 121.38 0.60864 130.04 1.3267 29.713 2.4619 55.334 9.2827 78.908 21.007 17.823 8.864 29.036 16.829 44.202 31.396 31.358 30.12 47.723 65.292 52.542 112.92 4.1408 40.924-6.687 81.201-31.358 116.64-3.9519 5.6777-6.8868 11.004-6.5219 11.836s3.9147 4.2134 7.8884 7.5134c27.747 23.043 49.231 62.198 56.038 102.13 3.2131 18.85 2.0083 49.404-2.6918 68.263-8.1095 32.539-24.549 61.344-48.834 85.568-27.628 27.558-61.315 45.535-103.23 55.088-11.65 2.6553-16.484 2.759-150.88 3.2362-126.43 0.4489-139.04 0.3005-141-1.6597zm243.58-135.07c21.499-5.8313 37.436-17.334 44.518-32.129 2.7713-5.7898 3.6898-10.036 4.1547-19.209 1.297-25.588-9.4797-44.949-31.119-55.907-14.727-7.4577-18.068-7.9066-64.282-8.6381-33.225-0.5258-43.45-0.3023-45 0.9837-1.7274 1.4337-2.0052 9.5475-2.0052 58.568 0 43.719 0.38616 57.301 1.6667 58.618 1.311 1.3488 10.203 1.5889 41.667 1.125 35.404-0.5218 41.195-0.9138 50.401-3.4107zm-21.734-238.46c20.562-4.0748 36.559-15.115 44.102-30.436 3.3473-6.7992 4.3233-10.742 4.8841-19.731 1.5665-25.11-8.8343-44.187-30.26-55.501-15.32-8.09-23.983-9.711-55.709-10.424-15.574-0.35004-29.831-0.25654-31.681 0.20778l-3.3636 0.84422 0.34732 58.304 0.34734 58.304 16 0.77656c21.144 1.0262 42.997 0.10026 55.333-2.3446zm-647.33-253.93c-98.934-9.3662-189.48-62.988-243.96-144.47-25.799-38.588-42.097-80.651-49.615-128.05-3.2873-20.726-3.2462-70.041 0.076094-91.323 22.679-145.28 139.08-254.54 288.37-270.71 22.478-2.4338 71.519-1.0573 91.79 2.5763 81.146 14.546 150.14 54.716 201 117.03 4.2167 5.1662 7.6667 10.167 7.6667 11.113 0 0.94583-7.65 9.589-17 19.207-9.35 9.618-32.584 33.527-51.631 53.132-19.047 19.605-35.367 35.645-36.266 35.645-0.89935 0-5.9759-6.3769-11.281-14.171-36.226-53.22-92.602-82.559-153.82-80.051-26.583 1.0887-47.64 6.4285-70.646 17.915-51.159 25.543-86.209 71.588-96.8 127.16-2.159 11.329-2.1504 42.055 0.0152 54.476 12.178 69.85 69.113 127.33 140.76 142.11 16.223 3.3463 49.838 3.4071 66.367 0.12 45.604-9.0693 83.86-35.478 114.87-79.295 5.8127-8.2135 11.31-14.934 12.217-14.934 2.3456 0 106.03 106.95 105.59 108.91-0.73148 3.1891-25.966 31.69-39.518 44.633-68.487 65.409-163 97.975-258.19 88.964zm605.24-21.504c-18.322-13.064-105.69-79.418-127.24-96.641-12.833-10.255-31.133-25.83-40.667-34.612-19.916-18.346-54.062-53.333-60.427-61.916-2.3781-3.207-8.3871-11.231-13.353-17.831-17.606-23.398-32.547-47.817-41.607-68-2.3043-5.1333-4.7306-10.533-5.3918-12-3.1109-6.9003-5.1662-14.588-4.1673-15.587 0.60786-0.60787 30.759-0.9495 67.002-0.75916l65.897 0.34604 10.024 14.998c13.379 20.018 28.022 37.243 50.266 59.128 21.336 20.991 27.662 26.832 37.757 34.859 4.0333 3.207 13.852 11.112 21.818 17.567 28.376 22.991 50.609 39.447 53.295 39.447 1.5 0 10.857-6.15 20.794-13.667 71.164-53.833 121.03-102.39 145.49-141.67 3.1973-5.1333 6.4401-9.7741 7.2064-10.313 2.1496-1.5115 132.43-1.2494 133.37 0.26836 1.2128 1.9624-10.508 29.563-19.505 45.932-21.877 39.801-48.73 73.904-89.266 113.36-33.4 32.512-54.743 49.838-140.95 114.42-48.123 36.05-51.506 38.333-56.785 38.333-4.4687 0-7.2347-1.1558-13.561-5.6667zm205.42-411.38c-1.8301-0.26235-4.343-3.6328-7.9524-10.667-6.47-12.608-23.771-30.522-36.705-38.006-21.858-12.647-51.605-16.152-75.333-8.876-16.731 5.1303-26.14 11.163-49.059 31.457-11.884 10.523-22.208 19.134-22.941 19.135-0.73333 7.7e-4 -8.8333-6.6736-18-14.832-24.262-21.593-28.843-25.04-40.667-30.597-30.111-14.153-64.956-11.671-92.978 6.622-12.234 7.9866-26.388 23.304-32.785 35.48l-4.9033 9.3333h-130.67l0.43967-8c1.3066-23.774 13.209-59.623 28.032-84.431 2.3324-3.9035 5.0458-9.0035 6.0297-11.333 2.6911-6.3722 17.648-24.213 30.447-36.319 39.356-37.222 84.309-57.143 140.16-62.115 19.591-1.7438 40.676-0.30439 62.888 4.2932 11.613 2.4038 18.739 4.7733 46.79 15.559 5.3846 2.0704 5.6049 2.0349 16.667-2.6906 49.79-21.27 106.62-23.48 159.21-6.1931 16.766 5.511 44.317 19.546 59.328 30.223 13.826 9.8343 38.87 33.869 47.925 45.994 9.265 12.407 26.694 46.591 31.788 62.345 6.2659 19.38 12.082 50.077 9.901 52.258-0.8939 0.89385-121.88 2.1819-127.62 1.3587z" fill="#e06e8d"/>
   <path d="m52 1272.2-4.6667-0.8705-0.33621-304.6c-0.18492-167.53 0.15739-305.09 0.76068-305.69 1.2097-1.2097 152.82-1.6635 154.77-0.46316 0.66571 0.41143 6.3007 9.8994 12.522 21.085 38.54 69.288 94.554 169.58 99.602 178.34 2.7479 4.7667 11.427 20.186 19.287 34.264 7.8599 14.079 15.14 26.302 16.177 27.163 2.8066 2.3292 4.7403 0.17296 13.661-15.233 4.3082-7.4403 13.98-24.028 21.494-36.861 7.5133-12.833 19.083-32.633 25.711-44 6.6275-11.367 17.007-29.067 23.067-39.333s18.499-31.567 27.645-47.333c27.938-48.164 39.018-67.08 42.761-73l3.5828-5.6667h150.63v611.83l-4.3333 0.4179c-2.3833 0.2298-35.383 0.2572-73.333 0.061l-69-0.3568v-162.56c0-122.72-0.38251-162.8-1.5606-163.53-2.1453-1.3258-4.8819 2.4103-17.682 24.14-6.0477 10.267-16.697 28.267-23.666 40-6.9686 11.733-19.757 33.333-28.419 48-8.6617 14.667-28.053 47.367-43.092 72.667-15.039 25.3-29.822 50.2-32.852 55.333-12.981 21.994-14.678 24.667-15.66 24.667-0.96902 0-7.735-9.8491-7.735-11.26 0-0.3553-3.2032-6.2172-7.1182-13.026-3.915-6.8093-21.075-37.28-38.133-67.714-17.058-30.433-32.975-58.633-35.371-62.667-5.1489-8.6683-9.4877-16.379-18.381-32.667-3.6037-6.6-8.2263-14.7-10.273-18-3.2686-5.2711-16.845-29.33-28.46-50.435-4.1639-7.5657-7.1312-9.7832-9.0457-6.7596-0.66517 1.0505-1.1872 71.978-1.1988 162.86l-0.0204 161h-64.5c-35.475 0-66.225 0.2417-68.333 0.5371-2.1083 0.2955-5.9333 0.1455-8.5-0.3333zm726.33 0.1728-31.667-0.4249v-611.95l123.67 0.0259c130.92 0.0275 135.98 0.23146 159.3 6.4222 54.188 14.389 91.105 42.553 116.11 88.581 14.613 26.896 22.872 69.678 19.62 101.64-3.1055 30.522-14.036 59.113-32.48 84.961-3.4187 4.791-6.2159 9.1355-6.2159 9.6544 0 0.51895 6.7626 7.6428 15.028 15.831 27.012 26.759 42.48 56.108 49.558 94.034 5.7632 30.88 0.3519 70.125-13.933 101.04-25.139 54.413-75.05 92.706-139.99 107.4-12.354 2.7959-15.312 2.8708-120 3.0379-59.033 0.094-121.58-0.02-139-0.2535zm202.33-131.67c27.302-4.4461 46.467-16.556 54.921-34.702 4.8233-10.352 5.9277-29.437 2.4049-41.556-6.3269-21.764-24.471-37.044-50.27-42.336-13.186-2.7049-88.839-3.1253-91.456-0.5082-2.3017 2.3017-2.3017 117.16 0 119.47 2.4548 2.4548 68.848 2.1677 84.4-0.365zm-24.037-238.17c29.988-3.6258 49.16-15.232 58.311-35.3 2.5845-5.6676 2.9962-8.8378 3.0255-23.294 0.033-16.406-0.054-16.908-4.4808-25.631-9.6385-18.995-26.028-30.008-52.152-35.042-12.885-2.4828-62.661-2.7332-65.067-0.32732-1.1958 1.1958-1.6 16.365-1.6 60.043v58.443l3 1.1347c4.4262 1.6742 45.047 1.6556 58.963-0.0269zm-633.05-258.51c-91.956-8.9312-170.67-50.75-229.8-122.09-23.896-28.829-47.731-76.013-57.55-113.93-7.8321-30.243-10.008-47.184-10.102-78.667-0.091267-30.571 1.2266-44.073 6.7673-69.333 3.3146-15.112 9.706-36.853 13.131-44.667 0.96432-2.2 4.2269-9.7 7.2501-16.667 9.7433-22.452 24.294-46.034 41.96-68 14.517-18.051 44.131-46.184 60.768-57.728 46.397-32.194 92-50.705 145.33-58.992 21.671-3.3673 67.353-4.0809 89.333-1.3956 56.749 6.933 111.37 28.13 154.69 60.033 21.501 15.835 49.308 42.548 63.532 61.033l6.1291 7.9652-8.5838 8.8753c-63.393 65.546-94.958 97.373-95.958 96.755-0.67-0.41408-4.0169-5.0564-7.4375-10.316-18.955-29.147-40.969-49.035-71.843-64.906-48.011-24.68-108.56-24.803-156.52-0.31809-20.182 10.301-31.631 18.578-47.449 34.3-15.997 15.9-24.776 27.897-34.318 46.896-33.047 65.8-19.131 144.76 34.638 196.55 37.313 35.937 83.526 53.778 133.13 51.398 34.599-1.6604 60.048-9.8534 87.254-28.091 21.626-14.497 38.093-31.356 57.209-58.573 3.9212-5.5828 7.6247-9.8446 8.2298-9.4705 1.041 0.64338 34.073 34.124 82.459 83.579l21.781 22.262-6.411 8.4046c-8.9328 11.711-36.132 39.378-50.734 51.609-44.93 37.632-100.12 62.119-159.79 70.897-19.917 2.9302-59.765 4.2652-77.089 2.5826zm602.33-20.351c-18.322-13.064-105.69-79.418-127.24-96.641-12.833-10.255-31.133-25.83-40.667-34.612-19.916-18.346-54.062-53.333-60.427-61.916-2.3781-3.207-8.3871-11.231-13.353-17.831-17.606-23.398-32.547-47.817-41.607-68-2.3043-5.1333-4.7306-10.533-5.3918-12-3.1109-6.9003-5.1662-14.588-4.1673-15.587 0.60786-0.60787 30.759-0.9495 67.002-0.75916l65.897 0.34604 10.024 14.998c13.379 20.018 28.022 37.243 50.266 59.128 21.336 20.991 27.662 26.832 37.757 34.859 4.0333 3.207 13.852 11.112 21.818 17.567 28.376 22.991 50.609 39.447 53.295 39.447 1.5 0 10.857-6.15 20.794-13.667 71.164-53.833 121.03-102.39 145.49-141.67 3.1973-5.1333 6.4401-9.7741 7.2064-10.313 2.1496-1.5115 132.43-1.2494 133.37 0.26836 1.2128 1.9624-10.508 29.563-19.505 45.932-21.877 39.801-48.73 73.904-89.266 113.36-33.4 32.512-54.743 49.838-140.95 114.42-48.123 36.05-51.506 38.333-56.785 38.333-4.4687 0-7.2347-1.1558-13.561-5.6667zm205.42-411.38c-1.8301-0.26235-4.343-3.6328-7.9524-10.667-6.47-12.608-23.771-30.522-36.705-38.006-21.858-12.647-51.605-16.152-75.333-8.876-16.731 5.1303-26.14 11.163-49.059 31.457-11.884 10.523-22.208 19.134-22.941 19.135-0.73333 7.7e-4 -8.8333-6.6736-18-14.832-24.262-21.593-28.843-25.04-40.667-30.597-30.111-14.153-64.956-11.671-92.978 6.622-12.234 7.9866-26.388 23.304-32.785 35.48l-4.9033 9.3333h-130.67l0.43967-8c0.61499-11.19 4.992-30.776 10.261-45.912 20.95-60.189 67.133-107.9 127.97-132.19 5.8667-2.343 18.467-6.2183 28-8.6116 48.48-12.171 92.053-8.9484 139.91 10.348l13.265 5.3483 6.7442-2.9403c14.4-6.2782 38.089-13.601 52.744-16.304 22.255-4.1054 57.355-4.1121 78.989-0.01504 95.559 18.097 167.26 91.318 180.44 184.27 0.987 6.9598 1.3673 13.081 0.8451 13.604-0.8939 0.89385-121.88 2.1819-127.62 1.3587z" fill="#ee426f"/>
   <path d="m56.615 1269.2c-0.48178-0.7795 0.18019-2.5844 1.4711-4.0108 2.1939-2.4243 2.5065-2.4491 4.7926-0.3802 1.8588 1.6822 2.0876 2.6444 0.95366 4.0108-1.7812 2.1462-5.9889 2.3679-7.2173 0.3802zm752.79 0.1302c-1.5174-0.9403-1.2037-1.3786 1.4662-2.0487 1.8682-0.4689 45.337-0.6908 96.597-0.4931 51.26 0.1976 97.297-0.1328 102.3-0.7344 8.5778-1.0306 9.0601-1.2683 8.3461-4.113-0.8621-3.4349 1.7212-4.6078 10.217-4.6387 6.3641-0.023 6.5089 2.0547 0.2144 3.0761-2.6321 0.4272-5.6727 1.5128-6.7569 2.4126-1.6999 1.4108-1.5459 1.872 1.119 3.3506l3.0902 1.7146-3.3333 0.256c-1.8334 0.1408-5.1334 0.4666-7.3334 0.724-9.5904 1.1221-204.16 1.5889-205.93 0.494zm-164.07-0.5702c0-1.2946 3.7565-1.7811 5.4542-0.7064 1.3676 0.8658 0.88095 1.1952-1.7876 1.21-2.0167 0.011-3.6667-0.2154-3.6667-0.5036zm-595.05-4.3052c-1.5376-1.5376-1.1601-600.22 0.37899-601.17 1.3922-0.86042 2.6718 595.11 1.2877 599.72-0.39498 1.3161-1.145 1.9661-1.6667 1.4445zm594.4-3.6619c-2.4112-1.7632-2.3974-1.8768 0.41183-3.3803l2.907-1.5557v-296.03c0-197.02 0.44597-295.76 1.3333-295.21 0.88239 0.54534 1.3333 100.53 1.3333 295.64 0 276.3 0.14325 294.97 2.2803 297.34 1.9672 2.1737 2.0129 2.6888 0.33333 3.7512-2.7647 1.7487-5.7112 1.5596-8.5991-0.5521zm-579.02-1.1623c0.71616-2.1485 123.47-2.4916 124-0.3466 0.21774 0.871-21.322 1.4536-62.116 1.68-49.751 0.2761-62.335 0.01-61.889-1.3334zm449.93 0.8008c-0.46895-0.469-0.53353-1.369-0.14353-2 0.7919-1.2813 120.46-1.611 123.77-0.341 1.1558 0.4435 1.7694 1.3435 1.3637 2-0.8322 1.3466-123.65 1.6816-124.99 0.341zm234.07-0.7892c0.71454-2.1436 61.007-2.4976 61.01-0.3582 9.4e-4 0.8401-11.387 1.4659-30.786 1.6916-24.403 0.2839-30.671 0.01-30.224-1.3334zm146.38 0.3687c-1.7274-1.1002-1.7269-1.3405 4e-3 -2.0046 3.6115-1.3859 104.65-0.148 104.29 1.2777-0.43856 1.7576-101.57 2.4624-104.3 0.7269zm155.96-0.4998c0-2.1649 8.6338-4.7044 10.307-3.0316 1.3772 1.3772-1.4067 3.3579-6.0149 4.2795-3.3844 0.6769-4.2917 0.4131-4.2917-1.2479zm-993.96-3.7009c-1.4203-5.8777-0.14252-592.53 1.2906-592.53 1.784 0 2.5252 592.67 0.74343 594.46-0.79442 0.7944-1.5485 0.079-2.034-1.9304zm1014.3-1.467c0.8377-2.5129 11.674-7.7258 16.059-7.7258 5.7138 0 2.5013 3.4127-4.225 4.4883-2.8243 0.4516-5.8864 1.7265-6.8048 2.8331-1.9874 2.3946-5.7951 2.7008-5.0296 0.4044zm-6.7473-8.6176c0.5652-2.9349 5.767-3.3332 5.767-0.4416 0 1.1-1.4033 2.1988-3.1186 2.4416-2.4184 0.3425-3.013-0.1065-2.6484-2zm26.434-3.237c-1.4241-1.9197-3.7277-2.7692-8-2.9503-3.3-0.1398-6-0.8543-6-1.5876 0-2.0717 11.097-2.3642 17.538-0.4623 6.2045 1.832 7.384 4.1848 3.2161 6.4154-3.534 1.8913-4.4425 1.701-6.7543-1.4152zm16.889-10.094c-1.8179-1.8179-0.7957-4.5453 2.1111-5.6327 7.5085-2.8089 9-2.9968 9-1.134 0 4.1897-8.5072 9.3706-11.111 6.7667zm19.111-14.968c0-2.9372 2.7859-4.3837 5.3685-2.7876 1.48 0.9147 1.4886 1.4756 0.049 3.21-2.39 2.8797-5.4177 2.6437-5.4177-0.4224zm10.667-12.143c0-2.8019 4.3589-8 6.7085-8 2.9213 0 2.8607 4.2437-0.1056 7.4012-3.7156 3.9551-6.6029 4.217-6.6029 0.5988zm-790.67 0c0-0.7333 0.6-1.3333 1.3333-1.3333 0.73334 0 1.3333-1.5 1.3333-3.3333 0-1.8334 0.5-3.3334 1.1111-3.3334 2.4987 0 2.6953 1.9163 0.56628 5.5205-2.2483 3.806-4.344 5.0023-4.344 2.4795zm782.22-4.8889c-1.5739-1.5738-0.9467-5.4702 1.0008-6.2176 2.184-0.8381 3.7158 2.1792 2.5925 5.1065-0.8208 2.1391-2.1533 2.5511-3.5933 1.1111zm-789.51-8.8352c-0.57074-1.315-0.6636-2.765-0.20634-3.2223 1.354-1.354 2.4454 0.548 1.8223 3.1754-0.55246 2.3293-0.62434 2.3314-1.6159 0.047zm812.1-4.3849c-1.7749-4.6255-0.8331-6.8862 3.2054-7.6939 2.5286-0.5057 4.5821-2.0481 5.5474-4.1667 1.4878-3.2653 4.2868-4.4322 5.5866-2.3291 0.3517 0.5691-1.4611 4.4691-4.0285 8.6667-4.7031 7.6894-8.6651 9.8117-10.311 5.523zm-817.25-4.1132c-1.6119-1.6119-0.92563-5.4784 1.1111-6.2599 1.4492-0.5561 2-2.8293 2-8.2538 0-8.7104 3.0508-9.7709 3.7584-1.3064 0.78042 9.3368-3.4985 19.191-6.8695 15.82zm26.372-4.5993c0.54902-1.7481 0.92252-4.0785 0.82998-5.1785-1.2023-14.293-0.37512-16.389 4.854-12.302l2.9445 2.3017-2.9682 8.5635c-1.6325 4.7099-3.7985 8.8402-4.8134 9.1785-1.3949 0.465-1.6016-0.1605-0.84689-2.5635zm-33.038-6.0674c-0.48889-0.4888-0.86981-2.4388-0.84649-4.3333 0.0408-3.3164 0.1152-3.3482 2-0.8563 2.9992 3.9654 2.0214 8.3646-1.1535 5.1896zm-3.9-9.944c-2.7894-1.561-3.1649-5.4067-0.42532-4.3555 1.759 0.675 3.9776 4.425 3.1234 5.2793-0.20671 0.2067-1.4208-0.209-2.6981-0.9238zm846.55-1.7774c-1.0875-2.8339 0.3447-6.0563 2.6917-6.0563 1.3256 0 1.8114 1.1361 1.524 3.5638-0.4804 4.0585-3.0352 5.569-4.2157 2.4925zm-840.54-2.924c-0.91667-0.3783-1.6667-2.1777-1.6667-3.9987 0-2.8251 0.53783-3.2489 3.6667-2.8889 2.9037 0.3341 3.6667 1.1117 3.6667 3.737 0 3.2808-2.2799 4.5484-5.6667 3.1506zm42.333-1.6899c0-3.2661 1.9232-5.4424 4.8093-5.4424 3.8159 0 4.0629 1.464 0.75236 4.46-2.6624 2.4094-5.5617 2.9215-5.5617 0.9824zm534-7.3602-12-1.5667 9.3333-0.5911c5.1333-0.3251 19.683-0.3817 32.333-0.1259 18.612 0.3765 23 0.8217 23 2.3333 0 1.5279-3.7029 1.8361-20.333 1.6926-11.183-0.097-25.733-0.8806-32.333-1.7423zm89.333 0.6684c-6.4707-1.2566-4.9852-4.5237 2.638-5.8017 4.9274-0.8261 7.5043-2.1396 10-5.0971 1.8491-2.1913 4.5989-4.7044 6.1106-5.5847 12.754-7.4264 21.901-16.804 21.938-22.492 0.027-4.0618 1.9603-7.0237 3.8306-5.8678 1.8448 1.1402 1.9443 5.6493 0.149 6.7588-0.7333 0.4533-1.3333 1.8673-1.3333 3.1423s-2.25 5.3784-5 9.1185c-4.1937 5.7036-5.8373 6.9135-10.192 7.502-5.7202 0.7731-7.4233 2.518-7.4541 7.6372-0.028 4.5896-2.3487 6.6-7.6204 6.6-2.42 0-4.4 0.5789-4.4 1.2865 0 2.1757-4.4581 3.6147-8.6666 2.7975zm181.48-7.7506c0.494-4.5278 1.6949-8.3491 2.9331-9.3334 4.7237-3.7549 5.7739-0.6867 1.587 4.6362-1.4668 1.8647-2.6667 5.409-2.6667 7.877 0 2.4678-0.6052 4.4868-1.345 4.4868-0.8455 0-1.0343-2.8473-0.5084-7.6666zm-860.81 3.0672c0-4.3286 1.3571-7.5432 2.8064-6.6476 1.9787 1.2229 1.3549 8.2332-0.80638 9.0625-1.4335 0.5501-2-0.1339-2-2.4149zm660 0.576c0-1.4259 9.1038-3.3173 10.284-2.1366 1.2268 1.2267 0.24604 1.7007-5.2844 2.5542-2.75 0.4243-5 0.2364-5-0.4176zm-667.96-7.6432c0.0524-2.8818 3.0555-7 5.1046-7 2.1233 0 1.8938 2.1894-0.63367 6.0469-2.5162 3.8402-4.5312 4.2697-4.4709 0.9531zm78.624-1.6667c0-1.4815 0.88889-2.6667 2-2.6667 2.2441 0 2.3342 0.2442 1.1907 3.2243-1.1432 2.9792-3.1907 2.6214-3.1907-0.5576zm653.9-5.7922c-1.2797-3.3346-0.03-8.2078 2.1047-8.2078 1.3875 0 2 1.3951 2 4.5556 0 4.7276-2.7523 7.1765-4.1047 3.6522zm133.6-9.8745c0.9065-11.196 1.2567-12.333 3.7957-12.333 2.7168 0 2.7378 8.634 0.034 13.819-1.0955 2.1005-1.9918 4.6505-1.9918 5.6666 0 1.0162-0.5774 1.8476-1.2832 1.8476-0.7672 0-0.9901-3.6186-0.5544-9zm-780.72 5.5556c0.064-1.5533 0.37992-1.8692 0.80555-0.8056 0.38516 0.9625 0.3378 2.1125-0.1052 2.5556-0.44305 0.443-0.75819-0.3445-0.70029-1.75zm-84.528-3.9252c-3.5326-1.8134-7.5975-3.297-9.033-3.297-1.5458 0-3.1184-1.3374-3.8571-3.2801-0.68589-1.8041-2.5085-4.5416-4.0503-6.0834-2.8267-2.8267-2.9901-5.4076-0.39699-6.2719 0.77344-0.2579 1.782 1.4098 2.2412 3.7058 0.51944 2.5973 1.8291 4.4346 3.4662 4.8627 1.4472 0.3785 2.9916 1.8233 3.432 3.2108 0.78804 2.4829 1.4312 2.6372 12.621 3.0269 4.0011 0.1393 4.6667 0.622 4.6667 3.3847 0 4.4341-1.6359 4.5676-9.0897 0.7415zm73.3 2.4692c-3.0093-3.0094 3.6258-16.433 8.1227-16.433 2.6333 0 1.9403 6.0057-1 8.6667-1.4667 1.3273-2.6667 3.1468-2.6667 4.0434 0 2.1014-3.3111 4.8677-4.456 3.7228zm13.789-4.2908c0-1.2703 3.6571-5.4754 4.7619-5.4754 1.7786 0 0.15687 4.128-2.0952 5.3333-1.6126 0.863-2.6667 0.9192-2.6667 0.1421zm790.88-8.1421c0-1.8333 0.3027-2.5833 0.6725-1.6667 0.3699 0.9167 0.3699 2.4167 0 3.3334-0.3698 0.9166-0.6725 0.1666-0.6725-1.6667zm-784.21-13.333c0-1.4667 0.6-2.6667 1.3333-2.6667 0.73334 0 1.3333 1.2 1.3333 2.6667 0 1.4666-0.6 2.6666-1.3333 2.6666-0.73333 0-1.3333-1.2-1.3333-2.6666zm-108.02-1c-0.0107-1.2834-0.56003-3.1859-1.2196-4.2279-1.0208-1.6129-1.7117-1.5587-4.6462 0.364-3.7165 2.4351-4.1802 1.6324-2.1468-3.716 1.6765-4.4095 3.3468-4.3115 8.1356 0.4773 4.1634 4.1634 5.2237 9.4359 1.8974 9.4359-1.1 0-2.0092-1.05-2.0204-2.3333zm115.51-3.6198c-4.1371-6.314-1.9363-9.7663 3.1846-4.9954 1.6866 1.5713 2.2968 3.3906 1.7888 5.3333-0.99751 3.8145-2.3111 3.7252-4.9734-0.3379zm632.03-1.3802c-0.8755-2.2816 0.2496-6 1.8155-6 0.5764 0 1.3934 0.9 1.8155 2 0.8756 2.2816-0.2496 6-1.8155 6-0.5764 0-1.3934-0.9-1.8155-2zm-618.84-16.645c-0.9834-1.5911 0.26476-4.0217 2.0652-4.0217 1.6224 0 1.6329 3.6088 0.0135 4.6097-0.68267 0.4219-1.6181 0.1573-2.0787-0.588zm-150.49-2.3866c-1.1658-1.8863 0.67878-7.1244 2.3166-6.5785 1.9733 0.6577 1.9344 6.5754-0.0476 7.236-0.84946 0.2832-1.8705-0.013-2.269-0.6575zm768.48-3.6417c-1.8062-4.7505-1.7267-4.9299 1.3358-3.0173 2.8769 1.7966 3.4775 4.3654 1.3308 5.6921-0.7347 0.4541-1.9347-0.7496-2.6666-2.6748zm-614.41-5.9303c-2.9227-3.9531-4.0025-10.73-1.7098-10.73 0.66792 0 2.5431 2.7448 4.1671 6.0996 3.5827 7.4009 1.9147 10.544-2.4573 4.6302zm748.01 1.7916c-1.4395-2.5722-0.7729-12.4 1.3195-19.452 1.1154-3.7595 1.0552-5.9147-0.2534-9.0741-1.226-2.9598-1.3061-4.5539-0.2805-5.5795 2.2698-2.2698 7.854 10.496 5.9353 13.568-0.8013 1.2831-1.8798 6.6249-2.3967 11.871-0.9772 9.9163-2.2252 12.418-4.3242 8.6668zm9.5502 0.1453c-1.0247-2.6703 0.4875-6.3822 2.1751-5.3392 1.7668 1.092 1.7392 7.3392-0.032 7.3392-0.7564 0-1.7206-0.9-2.1427-2zm-916.93-2.8889c-0.48889-0.4889-0.88889-2.0389-0.88889-3.4444 0-3.458 3.2202-2.2264 3.7594 1.4377 0.41249 2.8033-1.0509 3.8263-2.8705 2.0067zm773.78-6.4444c0-3.1 0.6235-4.6667 1.8573-4.6667 2.5928 0 3.7344 3.6925 2.091 6.7633-2.1394 3.9975-3.9483 3.0369-3.9483-2.0966zm-606.67-1.5922c0-1.3647-0.93476-3.8157-2.0772-5.4468-3.441-4.9127-0.75196-5.9954 3.7383-1.5051 3.1964 3.1964 3.8448 4.6392 2.8169 6.2687-1.979 3.1373-4.478 3.5186-4.478 0.6832zm-160.42-2.6078c-0.5011-0.5011-0.9111-2.3611-0.9111-4.1334 0-3.6907 3.0669-3.4868 3.7917 0.2522 0.51082 2.6349-1.4649 5.2969-2.8806 3.8812zm-14.816-3.8953c-1.6119-1.6118-1.854-2.6793-0.8381-3.6952 1.0159-1.0159 2.0834-0.7738 3.6952 0.8381 1.6118 1.6118 1.854 2.6794 0.8381 3.6952-1.0159 1.0159-2.0834 0.7738-3.6952-0.8381zm775.48-0.8911c0.6323-4.4317 5.0927-4.8212 5.0927-0.4447 0 2.5806-0.6839 3.4311-2.7594 3.4311-2.0958 0-2.6569-0.7182-2.3333-2.9864zm-585.57-15.68c0-2.5989 1.4142-3.4747 3.0192-1.8696 1.0682 1.0681-0.32984 4.5363-1.8286 4.5363-0.65487 0-1.1907-1.2-1.1907-2.6667zm-201.86-0.7757c-0.44513-1.16-0.80932-3.1865-0.80932-4.5034s-0.9-3.1413-2-4.0542c-1.1-0.913-2-2.9664-2-4.5633s-0.75-3.7445-1.6667-4.7724c-1.4092-1.5804-1.3195-1.6073 0.58096-0.1746 1.2362 0.932 2.6402 3.4817 3.1199 5.666s2.0183 4.6871 3.419 5.5619c1.5073 0.9413 2.5468 3.0922 2.5468 5.2698 0 4.0088-1.8967 4.9423-3.1907 1.5702zm766.71-1.4828c-1.5016-1.5016-0.9145-3.0748 1.1474-3.0748 1.1 0 2 0.5646 2 1.2546 0 1.6813-2.0822 2.8855-3.1474 1.8202zm-9.5193-5.7415c-0.4532-0.7333 0.1468-1.3333 1.3333-1.3333 1.1866 0 1.7866 0.6 1.3334 1.3333-0.4533 0.7333-1.0533 1.3333-1.3334 1.3333s-0.8801-0.6-1.3333-1.3333zm166.85-0.9251c-0.4689-0.469-0.8526-2.3261-0.8526-4.127 0-2.7594 0.3146-3.0134 2-1.6146 1.1 0.913 2 2.451 2 3.4179 0 2.0929-1.9434 3.5276-3.1474 2.3237zm-715.52-1.5842c0-0.7333 0.6-1.7041 1.3333-2.1574 0.73333-0.4532 1.3333-0.224 1.3333 0.5093 0 0.7334-0.6 1.7042-1.3333 2.1574-0.73334 0.4532-1.3333 0.224-1.3333-0.5093zm-10.667-5.412c0-4.3756 2.1382-6.4738 4.3467-4.2654 1.0413 1.0414 1.0167 2.3935-0.0876 4.8172-2.07 4.543-4.2591 4.2594-4.2591-0.5518zm540.2-0.723c-5.2518-5.7713-8.5688-6.6315-20.643-5.3534-10.055 1.0644-12.157 1.0608-47.983-0.081-16.62-0.5295-22.286-1.1294-21.891-2.318 0.69391-2.0881 39.453-2.9983 41.477-0.974 1.7636 1.7636 21.75 1.7959 22.837 0.037 1.3191-2.1343 18.424-1.6356 21.412 0.6243 1.4235 1.0767 4.4182 1.9767 6.6548 2 5.0706 0.053 7.2667 2.1611 7.2667 6.9757 0 5.2671-3.8596 4.882-9.131-0.9109zm-733.27 1.711c-0.88-0.88-1.6-2.724-1.6-4.0978 0-4.0654 4.5965-2.2204 5.0886 2.0425 0.44927 3.8923-0.87268 4.6711-3.4886 2.0553zm643.73-1.0667c2.3737-1.534 15.551-1.5714 24-0.068 4.67 0.831 2.4534 1.1001-10 1.2141-10.767 0.098-15.346-0.2762-14-1.146zm64.667 0c0.45323-0.7333 4.6886-1.3333 9.412-1.3333 4.8364 0 8.588 0.5824 8.588 1.3333 0 0.763-4.0262 1.3333-9.412 1.3333-5.9351 0-9.1076-0.4925-8.588-1.3333zm-502-4.5739c0-1.049-1.35-2.099-3-2.3334-2.1975-0.3121-3-1.3177-3-3.7594 0-4.457 5.1316-4.754 5.7594-0.3333 0.47053 3.3131 1.7915 3.691 5.6616 1.6198 3.4725-1.8585 3.4206 0.5386-0.0876 4.0469-3.1293 3.1292-5.3333 3.4431-5.3333 0.7594zm-214.18-4.0928c-1.0674-2.7817 0.50933-6.3344 2.5185-5.6747 2.6196 0.8602 2.9564 7.6747 0.37935 7.6747-1.1717 0-2.4758-0.9-2.8979-2zm911.52-6.7673c0-2.8223 2.4678-7.2327 4.0469-7.2327 2.2842 0 1.366 4.6726-1.3802 7.024-2.3236 1.9895-2.6667 2.0164-2.6667 0.2087zm-924.82-5.1548c-1.0375-2.7038-0.13414-6.4274 1.7081-7.0408 0.85444-0.28447 1.918 0.63128 2.3636 2.035 1.542 4.8585-2.3107 9.595-4.0717 5.0058zm235.73-3.6017c0.23565-2.4619 1.0285-4.3262 1.7618-4.1428 1.9811 0.49526 1.6154 7.3504-0.42847 8.0317-1.2778 0.42595-1.6441-0.64232-1.3333-3.8889zm681.72 2.7814c-1.3892-2.2476 0.5729-7.9242 2.7389-7.9242 1.3678 0 1.9746 1.4341 1.9746 4.6667 0 4.6187-2.7134 6.4939-4.7135 3.2576zm-923.29-10.987c0-1.8163-2.1705-5.1821-5.3333-8.2706-2.9333-2.8643-5.3333-5.6861-5.3333-6.2706 0-0.5845-1.2-2.2627-2.6667-3.7294-3.0977-3.0977-3.5113-6.6667-0.77261-6.6667 1.0417 0 2.2894 1.8 2.7726 4 0.75958 3.4583 1.4741 4 5.276 4 5.135 0 6.7288 1.6061 7.9387 8 0.48571 2.5667 1.2292 6.3167 1.6522 8.3333 0.58788 2.8028 0.26222 3.6667-1.3822 3.6667-1.3552 0-2.1513-1.1334-2.1513-3.0627zm246.71 1.7552c-1.5241-0.94195-1.4576-1.7013 0.39698-4.5318 1.2254-1.8701 2.2279-5.1013 2.2279-7.1805 0-4.7363 2.1764-6.9802 6.7701-6.9802 4.2815 0 6.8966-2.7915 6.8966-7.3618 0-4.4796 2.0806-5.5538 3.4719-1.7926 1.51 4.082-0.94637 11.58-4.124 12.589-4.0142 1.2741-11.681 9.3969-11.681 12.376 0 3.293-1.5122 4.3941-3.9582 2.8823zm672.57-4.1145c-0.4834-0.78212-0.5587-1.7422-0.1674-2.1335 0.9551-0.95508 3.5555 0.72777 3.5555 2.3009 0 1.704-2.3018 1.5902-3.3881-0.1674zm-7.6876-3.6248c-2.9508-0.62618-5.6005-6.8103-3.7225-8.6882 0.8455-0.84555 2.7295 0.12787 5.3828 2.7812 5.7882 5.7881 5.3374 7.392-1.6603 5.907zm-7.4386-12.192c-1.1463-0.70847-1.2826-1.3956-0.3868-1.9493 0.7609-0.47029 1.7851-0.20537 2.2759 0.58871 1.2246 1.9815 0.2506 2.6829-1.8891 1.3606zm-13.977-5.03c-0.4631-0.46309-0.842-1.942-0.842-3.2864 0-2.9733 4.7007-3.3495 5.8077-0.46478 0.7901 2.0591-3.4527 5.2642-4.9657 3.7512zm-910.32-5.7977c-5.2876-8.0889-8.0589-14.928-6.6287-16.358 1.8921-1.8921 2.9939-0.53243 6.6357 8.1894 3.4478 8.257 3.4433 13.447-7e-3 8.169zm290.13-1.484c-0.8992-2.3433 3.6634-14.777 5.6676-15.445 3.822-1.274 1.5493 11.03-2.8501 15.429-1.8217 1.8217-2.1241 1.8234-2.8176 0.0164zm-7.7411-9.2444c-1.2693-4.8538 1.5873-8.7093 3.8001-5.129 1.1032 1.7851-0.3817 7.9242-1.9167 7.9242-0.63382 0-1.4814-1.2579-1.8834-2.7953zm-277.36 0.57304c-1.6598-1.6598-0.91739-7.1111 0.96845-7.1111 2.252 0 3.6771 3.2578 2.6248 6-0.82084 2.1391-2.1533 2.5511-3.5933 1.1111zm912.46-3.076c-2.9006-1.8339 0.2508-4.5549 3.9249-3.3888 2.2989 0.72964 2.5588 1.2875 1.3043 2.7991-1.8314 2.2067-2.5442 2.2871-5.2292 0.58964zm-782.22-3.426c-0.43425-1.1316-0.45533-2.3917-0.0468-2.8002 1.1676-1.1676 3.5868 0.81287 3.5868 2.9364 0 2.5585-2.5434 2.4606-3.5399-0.1362zm17.079-0.012c0.25336-1.307 1.268-2.6452 2.2547-2.9738 1.1475-0.38211 1.628 0.259 1.3333 1.779-0.25336 1.307-1.268 2.6452-2.2547 2.9738-1.1475 0.38211-1.628-0.259-1.3333-1.779zm771.35-6.8196c-1.3131-1.3129-1.0799-5.7776 0.3018-5.7776 1.1909 0 2.8093 3.1353 2.8093 5.4424 0 1.4259-1.8239 1.6226-3.1111 0.33539zm-786.62-2.5746c-3.6544-1.9814-3.9125-3.194-2.3852-11.203 0.0699-0.36667 1.3161 1.2833 2.7692 3.6667 2.2616 3.7092 3.3991 4.3333 7.8982 4.3333 3.9992 0 5.8747-0.78632 7.8426-3.2881 2.8594-3.6352 4.2738-3.1676 4.2738 1.4127 0 6.0674-12.73 9.2366-20.399 5.0786zm793.29-5.8446c-1.7816-3.0159-2.0117-4.6029-0.9541-6.579 0.7665-1.4322 1.3937-4.3235 1.3937-6.4251 0-4.7999 2.1685-7.021 6.8547-7.021 5.6982 0 5.8796 2.4689 0.5801 7.8961-4.4983 4.6067-4.8033 5.4143-3.9826 10.546 1.045 6.5352-0.5767 7.1948-3.8918 1.5829zm-811.11-6.1149c-0.96227-2.5076 1.3973-5.2422 3.436-3.9822 2.1977 1.3583 1.7379 6.0718-0.59233 6.0718-1.123 0-2.4027-0.94033-2.8437-2.0896zm48.469 1.2285c-0.50417-0.50396-0.91667-2.3165-0.91667-4.0276 0-2.2555 0.7577-3.1111 2.7552-3.1111 2.2028 0 2.6706 0.71458 2.3333 3.5638-0.42206 3.5653-2.4467 5.3003-4.1719 3.575zm593.15-4.3431c-2.2702-0.88828-2.0344-1.2134 1.8656-2.573 6.2536-2.18 13.4-2.0194 13.4 0.30115 0 3.3017-9.1521 4.6637-15.265 2.2718zm-629.7-1.0005c-0.89739-0.36345-3.4577-4.2544-5.6896-8.6464-2.2319-4.3921-5.3285-9.704-6.8813-11.804-2.7278-3.6896-2.574-9.9916 0.17654-7.2342 2.1404 2.1457 8.026 13.953 8.026 16.101 0 1.1387 1.5 3.8529 3.3333 6.0317 2.7433 3.2603 4.4062 6.7623 3 6.3182-0.18334-0.0579-1.0676-0.40264-1.965-0.76609zm26.298-1.7951c0-0.73334 1.224-2.5573 2.7199-4.0532 1.496-1.496 3.3127-4.2792 4.0373-6.1849 0.72458-1.9058 1.6726-3.1098 2.1068-2.6756 1.3169 1.3169-0.83184 10.024-3.0116 12.204-2.3032 2.3032-5.8524 2.7335-5.8524 0.70954zm547.57 0.18474c-6.1715-2.4248-0.39033-3.3111 22.441-3.4406 16.296-0.0924 24.524 0.32357 24.224 1.2246-0.27373 0.82245-7.5614 1.4677-18.344 1.6242-9.8393 0.14281-19.69 0.54937-21.89 0.90347-2.2 0.35408-5.0944 0.2138-6.432-0.31174zm-531.57-2.4234c0-1.2313 0.69369-4.1571 1.5416-6.5018 1.3468-3.7245 1.1677-4.7881-1.4176-8.4189-2.9254-4.1083-2.8052-6.8407 0.30072-6.8407 2.9224 0 4.5204 4.5778 4.6441 13.304 0.0761 5.3656-0.48081 9.0099-1.4732 9.6408-2.5099 1.5956-3.5956 1.2382-3.5956-1.1835zm-60.422-2.628c-1.367-1.367-1.0963-6.8615 0.38314-7.7758 1.731-1.0698 3.3888 5.8262 1.7859 7.429-0.69187 0.69187-1.6679 0.84794-2.1691 0.34683zm829.76-4.2624c0-2.1306 5.5514-12.431 6.2976-11.685 1.0391 1.0392-2.2775 9.8038-4.3658 11.537-1.3058 1.0837-1.9318 1.1316-1.9318 0.14772zm-135.77-6.4294c0.5652-2.9349 5.767-3.3332 5.767-0.44161 0 1.1-1.4033 2.1987-3.1186 2.4416-2.4184 0.34245-3.013-0.10653-2.6484-2zm-11.566-1.775c-1.0557-1.7081 0.1463-3.6277 3.3424-5.3382 2.3379-1.2512 2.4225-1.0519 1.1287 2.6595-1.4308 4.1042-3.0066 5.0483-4.4711 2.6787zm17.625-8.3333c-0.8618-2.4036 1.4685-6.3333 3.7556-6.3333 1.2813 0 1.9531 1.376 1.9531 4 0 3.0531-0.6049 4-2.5555 4-1.4056 0-2.8245-0.75-3.1532-1.6667zm-10.291-0.89095c0-2.7353 1.729-5.4424 3.476-5.4424 2.2795 0 2.4267 2.8974 0.2574 5.0667-1.9017 1.9017-3.7334 2.086-3.7334 0.37572zm142.1-4.9987c-0.4692-1.2226-0.2334-2.8426 0.524-3.6 0.9472-0.94716 1.377-0.25322 1.377 2.223 0 4.1131-0.666 4.5956-1.901 1.377zm-767.43-0.36501c0-0.69005 0.59313-1.6212 1.3181-2.0692 0.75581-0.46712 0.97933 0.0681 0.52401 1.2546-0.88639 2.3099-1.8421 2.7325-1.8421 0.81461zm-66.453-3.4748c-1.8447-4.0487-1.8964-4.6039-0.42805-4.6039 0.96924 0 4.214 5.695 4.214 7.3961 0 1.9191-2.4691 0.0981-3.786-2.7921zm-17.494-1.2066c-2.0483-2.4681-0.63756-7.0321 2.4794-8.0214 1.3179-0.41828 3.0743-2.249 3.9032-4.0682 1.9547-4.29 3.959-4.1967 5.6546 0.26318 1.162 3.0564 0.8928 3.9689-1.8686 6.3333-1.7744 1.5194-3.5814 3.8124-4.0155 5.0958-0.959 2.8354-3.9684 3.0297-6.1531 0.39732zm87.155 0.40041c-0.89701-1.4514 2.722-5.1311 5.0465-5.1311 1.99 0 1.1035 5.0384-1.0306 5.8574-2.8002 1.0746-2.9159 1.0536-4.016-0.72628zm15.689-3.0272c0.23976-1.9361 1.0359-3.5014 1.7693-3.4786 1.9944 0.062 1.609 5.7273-0.43592 6.409-1.236 0.41199-1.6379-0.47124-1.3333-2.9303zm747.55-7.7705c-0.3857-7.6554 0.5008-32.295 1.2044-33.476 0.3743-0.6283 1.1963-0.3283 1.8268 0.66666 1.298 2.0485 1.5772 29.551 0.3467 34.142-1.1835 4.4162-3.1269 3.649-3.3779-1.3333zm-754.45-1.5911c0-3.1817 2.5807-7.6194 3.9417-6.7783 1.5221 0.94072 0.23471 5.5631-2.0858 7.4889-1.461 1.2125-1.8559 1.0613-1.8559-0.71065zm764.02-3.7423c0.027-5.7952 2.0213-9.0696 3.221-5.2896 1.021 3.2168-0.3455 9.6229-2.0526 9.6229-0.6538 0-1.1796-1.95-1.1684-4.3333zm-862.09 0.21716c-0.49272-0.79724-0.22812-2.1172 0.58797-2.9333 1.0896-1.0896 1.4838-0.70439 1.4838 1.4495 0 3.2193-0.69261 3.7154-2.0718 1.4838zm104.94-10.51c0.25376-1.7408 1.2114-3.4121 2.128-3.714 2.3989-0.79002 2.0546 3.0248-0.46139 5.113-1.858 1.542-2.0695 1.3644-1.6667-1.399zm-103.21-0.14744c-2.6621-1.5505-3.0683-4.6149-0.79774-6.0182 1.6532-1.0217 5.1311 2.8508 5.1311 5.7132 0 2.07-1.1626 2.1518-4.3333 0.30503zm860.93-17.56c-0.5206-2.3833-2.0682-5.7642-3.4393-7.5131-3.6545-4.6614-3.07-13.487 0.8932-13.487 2.2745 0 2.9138 2.385 4.0206 15 0.9336 10.641 0.1952 13.646-1.4745 6zm-870.69-0.28134c-1.1825-1.8047-3.2949-3.6447-4.6943-4.0889-1.3994-0.44413-2.9147-2.2834-3.3674-4.0872-0.45273-1.8038-1.9056-3.859-3.2286-4.567-1.9064-1.0202-2.4135-2.9714-2.4443-9.4041-0.0325-6.8005 0.26326-7.8661 1.824-6.5708 1.0245 0.85028 2.5674 3.748 3.4285 6.4393 0.86117 2.6914 2.6632 6.1015 4.0046 7.5782 1.3414 1.4767 3.3584 4.8856 4.4822 7.5755 1.1239 2.6898 2.6525 5.2671 3.397 5.7272 1.7301 1.0693 1.7694 4.6791 0.0509 4.6791-0.71643 0-2.2701-1.4766-3.4526-3.2813zm122.09 1.2274c0-1.1297 1.114-3.6797 2.4755-5.6667s3.4754-5.2627 4.6974-7.2794c1.222-2.0167 2.7483-3.6667 3.3917-3.6667 2.1652 0 0.6451 7.9156-2.107 10.972-1.4998 1.6655-3.0974 4.0782-3.5504 5.3615-1.0158 2.8783-4.9072 3.0998-4.9072 0.27935zm604.75-18.411c-1.8778-1.8778-3.4142-4.5368-3.4142-5.909 0-3.2924-5.4312-8.293-9.0072-8.293-3.9909 0-4.806-2.0757-2.07-5.2711 3.0274-3.5357 3.943-3.4399 4.9359 0.51619 0.5718 2.2781 1.8936 3.3707 4.4359 3.6667 3.7897 0.44119 5.4357 2.8418 8.3565 12.188 2.0286 6.4912 1.0704 7.4095-3.2369 3.1022zm-592.75-3.4879c0-2.6233 5.7866-9.3808 8.0329-9.3808 1.4813 0 4.216-7.3587 3.729-10.035-0.23575-1.2955 0.32137-2.6177 1.238-2.9382s1.6667 0.31723 1.6667 1.4172 0.6387 2.2129 1.4193 2.4731 1.7528 2.9591 2.1603 5.9975c0.5224 3.8948 1.4784 5.7172 3.2406 6.1781 3.487 0.91187 4.6263 4.6984 2.1567 7.168-2.7591 2.7591-4.9769 1.1222-4.9769-3.6732 0-3.7289-0.27799-3.9199-5.6667-3.8924-5.0456 0.0257-5.8859 0.49307-7.6667 4.2644-2.4043 5.0918-5.3333 6.4213-5.3333 2.4209zm732.13-9.3808c-0.1842-1.1-0.5237-2.9-0.7545-4s-0.8128-4.4-1.2933-7.3333l-0.8737-5.3333 2.1357 3.7262c1.3469 2.3499 1.9483 5.7972 1.6283 9.3333-0.2791 3.0839-0.6582 4.7072-0.8425 3.6072zm-160.8-8c-0.45322-0.73333-0.18864-1.3333 0.58798-1.3333 0.77661 0 1.412 0.6 1.412 1.3333s-0.26458 1.3333-0.58797 1.3333-0.9588-0.6-1.412-1.3333zm-730.15-4.2781c-0.8668-1.6196-2.7338-3.8823-4.1489-5.0282-1.941-1.5717-2.3464-2.9858-1.6507-5.7577 0.72303-2.8807 1.308-3.3542 2.7083-2.192 2.2353 1.8552 8.5735 12.57 8.5735 14.493 0 2.5693-3.8684 1.4998-5.4822-1.5156zm711.01-3.5756c-1.2725-0.80629-1.3678-1.4189-0.3214-2.0656 1.8467-1.1413 6.7971 0.32201 6.7971 2.0092 0 1.553-4.058 1.5884-6.4757 0.0564zm-534.86-3.4009c0-2.1521 1.8884-3.7458 3.0555-2.5788 1.0405 1.0405-0.39314 4.5001-1.8648 4.5001-0.65486 0-1.1907-0.86459-1.1907-1.9213zm470.99-2.9645c-2.5681-1.0353-0.5599-3.1142 3.0083-3.1142 3.8282 0 5.4803 2.0691 2.55 3.1936-2.3548 0.90362-3.148 0.89228-5.5583-0.0795zm37.675-0.44752c-2.1392-0.91922-1.6776-1.1644 2.3333-1.2396 2.75-0.0516 5 0.50628 5 1.2396 0 1.5922-3.6281 1.5922-7.3333 0zm19.333-2.8609c-8.8326-2.551-7.7746-3.9536 2.6682-3.5375 7.8215 0.3117 9.9984 0.8339 9.9984 2.3984 0 2.4721-6.1396 3.0242-12.667 1.1391zm-521.65-3.2923c-0.98322-1.6573 1.2811-7.1801 2.9438-7.1801 1.7959 0 1.6763 1.2882-0.48094 5.1801-0.9695 1.7491-2.0778 2.6491-2.4629 2zm14.114-4.1801c-0.43406-1.2833-2.2484-3.5823-4.0319-5.1088-2.8937-2.4768-3.0682-3.1584-1.6216-6.3333 2.0093-4.41 2.9296-4.4538 5.1812-0.24657 0.97466 1.8212 2.8113 3.641 4.0813 4.0442 2.8685 0.91043 4.3117 5.9121 2.3781 8.2419-2.037 2.4544-5.0569 2.1532-5.9871-0.59728zm680.9-0.9398c-0.7753-2.039-2.5976-5.2177-4.0496-7.0636-3.2664-4.1525-3.8182-13.634-0.64-10.997 1.1 0.91292 2 2.697 2 3.9647 0 1.2676 1.5306 5.1836 3.4014 8.702 2.2987 4.3232 2.9632 6.8354 2.0496 7.749s-1.8089 0.14994-2.7614-2.3555zm-888.42-1.5309c-1.513-2.0185-3.7481-3.196-6.0667-3.196-4.7166 0-6.8711-2.2184-6.8711-7.0748 0-2.2941-1.6317-5.935-4-8.9252-4.3892-5.5418-5.5579-13.333-2-13.333 1.3468 0 2 1.3472 2 4.1248 0 3.0035 0.72494 4.3144 2.6667 4.8222 1.7087 0.44683 2.6667 1.8187 2.6667 3.8187 0 2.0026 2.5526 5.6505 7.1219 10.178 7.0179 6.9534 9.6662 11.088 7.8199 12.21-0.51797 0.3146-2.0198-0.86618-3.3374-2.624zm213.73-13.784c0-1.51 0.6-2.7454 1.3333-2.7454 0.73334 0 1.3333 0.86459 1.3333 1.9213s-0.6 2.2921-1.3333 2.7454c-0.73333 0.45322-1.3333-0.41136-1.3333-1.9213zm-2.4607-11.481c0.25336-1.307 1.268-2.6452 2.2547-2.9738 1.1475-0.38211 1.628 0.259 1.3333 1.779-0.25336 1.307-1.268 2.6452-2.2547 2.9738-1.1475 0.3821-1.628-0.259-1.3333-1.779zm664.52 0.82809c-0.4219-0.68266-0.2202-1.5792 0.4483-1.9923 0.6685-0.41312 1.5594 0.14541 1.9799 1.2412 0.8289 2.1602-1.1743 2.7799-2.4282 0.75114zm-911.82-17.252c-0.46881-2.3441-1.8249-4.1038-3.5-4.5418-2.2067-0.57708-2.7346-1.7903-2.7346-6.2844 0-7.1513 2.657-6.5906 5.1265 1.0818 1.2488 3.8799 2.5404 5.5712 4.2546 5.5712 3.1408 0 4.0181 1.4599 3.0657 5.1019-1.1252 4.3028-5.2904 3.6802-6.2122-0.92865zm261.94-0.22621c-2.8535-3.8595-3.4287-8.3129-1.1005-8.5189 0.5892-0.0521 2.3579 2.1565 3.9304 4.9081 3.7746 6.6048 1.5151 9.4878-2.83 3.6108zm628.45 2.6526c-1.267-2.05 0.4684-3.3726 2.1798-1.6613 0.9575 0.95757 0.9805 1.7034 0.07 2.2662-0.7465 0.4614-1.7589 0.1892-2.2497-0.60488zm-881.49-6.2868c-0.84476-0.53878-1.9207-3.9796-2.391-7.6463l-0.85508-6.6667 2.2464 4c1.2355 2.2 3.0614 4.4798 4.0577 5.0662 0.99624 0.58644 1.8113 2.2364 1.8113 3.6667 0 2.6531-2.1121 3.3385-4.8693 1.58zm260.42-1.2018c-0.48889-0.48888-0.88889-2.5889-0.88889-4.6667 0-2.8109 0.64269-3.7778 2.5112-3.7778 2.6259 0 3.9782 3.0275 3.1268 7-0.50039 2.3345-3.0757 3.1178-4.749 1.4444zm621.82-3.059c-1.0787-0.68223-1.5144-1.6873-0.9682-2.2336 0.5462-0.54623 2.0074 0.0212 3.2471 1.2608 2.4098 2.4098 0.9672 3.0256-2.2789 0.97272zm-14.628-11.976c-2.2426-2.1922-4.0774-4.3061-4.0774-4.6975 0-1.9823 3.9272-0.26676 7.1932 3.1422 5.0047 5.2238 2.1135 6.667-3.1158 1.5553zm-609.41 1.4337c0-0.89212 0.62047-2.3467 1.3788-3.2324 0.75833-0.88571 2.2392-2.8104 3.2909-4.277 1.9031-2.6542 1.9123-2.6537 1.9545 0.10093 0.0233 1.5222-1.4576 4.1768-3.2909 5.8991-1.8333 1.7223-3.3333 2.4016-3.3333 1.5095zm588.89 0.26829c-1.9294-1.9294-0.7298-4.4434 2.1111-4.424 3.9663 0.0271 6.9025 1.98 5.7588 3.8305-0.9979 1.6147-6.4384 2.025-7.8699 0.59351zm-856.62-4.7111c-2.0043-2.0043-2.0572-4.6267-0.1176-5.8255 1.7185-1.0621 3.8009 1.7061 3.8305 5.0921 0.0237 2.7152-1.4416 3.0046-3.7129 0.73333zm849.07-3.1644c0-1.2417 0.9071-1.9218 2.2228-1.6667 3.345 0.64873 3.8043 3.7644 0.5549 3.7644-1.6377 0-2.7777-0.86092-2.7777-2.0978zm15.333-3.2356c-0.4532-0.73333 0.076-1.3333 1.176-1.3333s2.3708 0.6 2.824 1.3333c0.4532 0.73334-0.076 1.3333-1.176 1.3333s-2.3708-0.6-2.824-1.3333zm-579.3-13.253c-2.2528-5.4388-0.38541-8.064 2.7945-3.9285 1.3454 1.7498 2.4596 4.2314 2.4759 5.5147 0.0477 3.7521-3.5016 2.6839-5.2704-1.5862zm555.63 3.0004c-1.2833-0.33536-2.3333-1.1239-2.3333-1.7522 0-1.1108 7.6523 0.54591 9.07 1.9636 0.8156 0.81562-3.3012 0.6865-6.7367-0.2113zm-862.66-1.1812c-1.9109-1.9109 3.6961-13.9 6.5007-13.9 3.7547 0 3.5597 8.3812-0.22884 9.835-1.0721 0.4114-1.9492 1.6668-1.9492 2.7899 0 1.9894-2.7863 2.8111-4.3226 1.2748zm848.29-4.233c-2.7136-1.9207-5.8261-2.2858-17.599-2.0644-12.999 0.24445-14.474 0.0239-16.186-2.4196-2.27-3.2409-1.3474-7.8494 1.5713-7.8494 1.1577 0 3.7267 1.5538 5.7089 3.4528 3.0357 2.9084 4.0476 3.2154 6.4177 1.947 2.214-1.1849 4.7605-0.92613 11.946 1.2138 5.0227 1.4958 10.325 2.7197 11.782 2.7197s3.7355 1.2 5.0629 2.6667c2.3611 2.6091 2.3288 2.6667-1.4967 2.6667-2.1505 0-5.3935-1.05-7.2067-2.3333zm-533.72-2.5333c-0.50111-0.5011-0.91111-2.6611-0.91111-4.8 0-4.6241 3.0961-4.4126 3.7796 0.25822 0.47183 3.2243-1.3312 6.0791-2.8684 4.5418zm-318.88-9.745c-0.55091-0.8914-0.34394-2.2784 0.45994-3.0823 2.0482-2.0482 3.3458-0.30748 1.8128 2.4318-0.93287 1.6669-1.5376 1.84-2.2727 0.65049zm142.55-24.679c-2.408-1.8213-2.1937-1.9606 3.0785-2 5.6618-0.0424 7.5403 1.62 3.5576 3.1483-3.0282 1.162-3.7458 1.0378-6.6361-1.1483zm50.802-0.61694c-0.42192-0.68266-0.15196-1.6214 0.59991-2.0861 1.9008-1.1748 6.886 0.57614 5.9505 2.0899-0.99132 1.604-5.5584 1.6013-6.5504-4e-3zm-68.974-1.0029c0.96249-0.38516 2.1125-0.3378 2.5556 0.1052 0.44305 0.44305-0.34445 0.75818-1.75 0.70029-1.5533-0.064-1.8692-0.37992-0.80556-0.80555zm-29.792-3.7559c-0.34365-1.1-0.906-2.9-1.2496-4-0.98304-3.1466 3.7696-2.4155 7.0591 1.0859 3.8526 4.1009 3.6635 4.9141-1.1428 4.9141-2.4262 0-4.2916-0.79948-4.6667-2zm122.04 1.2621c0-0.40584 1.65-2.8058 3.6667-5.3333 2.8569-3.5805 4.645-4.5954 8.0968-4.5954l4.4301-4e-5 -2.7634 3.5131c-1.5199 1.9322-2.7634 4.3322-2.7634 5.3333 0 1.2347-1.7156 1.8202-5.3333 1.8202-2.9333 0-5.3333-0.33205-5.3333-0.7379zm-139-6.1298c-5.5178-2.0384-4.4069-4.0058 2-3.5423 3.941 0.28515 5.6667 1.0135 5.6667 2.3917 0 2.4766-2.8992 2.9117-7.6667 1.1506zm157.22 0.64547c-1.6882-1.6882-0.88134-4.0005 1.4444-4.1396 1.2833-0.0768 4.6876 0.1936 7.565 0.60078l5.2317 0.74035-4.3848 1.8437c-4.7569 2.0001-8.453 2.3581-9.8564 0.95476zm499.68-7.4444c-18.322-13.064-105.69-79.418-127.24-96.641-12.833-10.255-31.133-25.83-40.667-34.612-19.916-18.346-54.062-53.333-60.427-61.916-2.3781-3.207-8.3871-11.231-13.353-17.831-17.606-23.398-32.547-47.817-41.607-68-2.3043-5.1333-4.7306-10.533-5.3918-12-3.1109-6.9003-5.1662-14.588-4.1673-15.587 0.60786-0.60787 30.759-0.9495 67.002-0.75916l65.897 0.34604 10.024 14.998c13.379 20.018 28.022 37.243 50.266 59.128 21.336 20.991 27.662 26.832 37.757 34.859 4.0333 3.207 13.852 11.112 21.818 17.567 28.376 22.991 50.609 39.447 53.295 39.447 1.5 0 10.857-6.15 20.794-13.667 71.164-53.833 121.03-102.39 145.49-141.67 3.1973-5.1333 6.4401-9.7741 7.2064-10.313 2.1496-1.5115 132.43-1.2494 133.37 0.26836 1.2128 1.9624-10.508 29.563-19.505 45.932-21.877 39.801-48.73 73.904-89.266 113.36-33.4 32.512-54.743 49.838-140.95 114.42-48.123 36.05-51.506 38.333-56.785 38.333-4.4687 0-7.2347-1.1558-13.561-5.6667zm-673.91 3c0-1.5367 3.2017-1.5367 8 0 2.8317 0.90686 2.4806 1.0875-2.3333 1.2004-3.1167 0.0731-5.6667-0.46709-5.6667-1.2004zm195.33 0c0.45323-0.73334 1.6886-1.3333 2.7454-1.3333s1.9213 0.6 1.9213 1.3333c0 0.73333-1.2354 1.3333-2.7454 1.3333s-2.3745-0.6-1.9213-1.3333zm10.698-3.7464c-2.5818-2.5818 2.167-4.0213 5.7579-1.7454 1.3084 0.82925 0.86886 1.31-1.6353 1.7887-1.8835 0.36007-3.7387 0.34055-4.1226-0.0433zm-189.19-1.7832c-2.0132-1.1696-2.1416-1.6714-0.66667-2.6057 2.5821-1.6357 7.4994-1.4728 8.5854 0.28442 0.92052 1.4894-1.604 3.8275-4.0921 3.79-0.73334-0.0107-2.4553-0.67199-3.8266-1.4687zm-38.173-2.4703c0-0.73334 0.56458-1.3333 1.2546-1.3333 0.69005 0 1.6255 0.6 2.0787 1.3333 0.45323 0.73333-0.11133 1.3333-1.2546 1.3333-1.1433 0-2.0787-0.6-2.0787-1.3333zm238.67 0c0-0.73334 0.9-1.3333 2-1.3333s2 0.6 2 1.3333c0 0.73333-0.9 1.3333-2 1.3333s-2-0.6-2-1.3333zm20-8.5768c0-1.0506 1.35-2.3023 3-2.7816 1.65-0.47929 4.2-2.2727 5.6667-3.9854 2.0034-2.3395 3.5786-2.9355 6.3333-2.3963 2.0167 0.39472 3.6667 1.1476 3.6667 1.6731 0 1.025-15.61 9.4004-17.521 9.4004-0.63034 0-1.1461-0.85957-1.1461-1.9102zm-285.12-3.439c-6.2852-2.8522-6.8268-5.7287-1.2046-6.3974 2.5202-0.29978 3.9247 0.43245 5.115 2.6667 0.90245 1.694 2.5928 3.8108 3.7563 4.7042 3.4456 2.6454-0.91094 2.0923-7.6667-0.97344zm-17.011-8.0213c-1.5364-0.58156-4.774-3.5582-7.1948-6.6147-3.3149-4.1854-5.0768-5.3807-7.1372-4.8419-1.5047 0.39348-3.581 0.014-4.614-0.84338-1.033-0.85735-3.1589-2.1973-4.7242-2.9777-1.5653-0.78039-3.0453-2.4538-3.2889-3.7187-0.59549-3.0922 4.5115-3.0896 6.2423 3e-3 0.76352 1.3643 4.1344 2.8588 8.2706 3.6667 3.84 0.75002 7.4203 2.2637 7.9563 3.3637 0.53592 1.1 1.7127 3.589 2.615 5.5311 0.90232 1.9421 2.8854 4.0865 4.4068 4.7654 3.5141 1.5681 1.2118 3.0834-2.5318 1.6664zm304.2 0.33658c-0.40912-0.40913-0.74386-1.2439-0.74386-1.855 0-1.4866 4.9807-1.427 5.9063 0.0707 0.80972 1.3102-3.9808 2.966-5.1625 1.7844zm20.589-0.82344c0-1.0215 0.9-2.2027 2-2.6248 1.1-0.42211 2-1.9128 2-3.3127 0-3.6236 3.0268-5.669 9.6144-6.497l5.719-0.71879-4.5949 4.8386c-2.5272 2.6613-5.5328 4.8387-6.6793 4.8387-1.1464 0-2.8338 1.2-3.7497 2.6667-1.9214 3.0766-4.3094 3.5251-4.3094 0.80932zm23.029-18c-5.0205-2.4988-5.4031-3.6324-1.6302-4.8298 3.1295-0.99325 9.7069 2.7043 8.9342 5.0224-0.74424 2.2327-2.5256 2.1858-7.3039-0.19253zm-347.88-0.80019c-0.46181-1.2035-0.20033-2.8275 0.58108-3.6089 2.0315-2.0315 5.8806-0.17478 5.3499 2.5807-0.59107 3.0692-4.8636 3.8099-5.931 1.0283zm324.18-0.67558c-1.2311-1.9919 0.48183-4 3.412-4 3.1039 0 3.4616 3.3794 0.47892 4.524-2.7658 1.0614-2.9243 1.04-3.891-0.52401zm-369-12.185c-3.4833-2.984-6.3333-5.9631-6.3333-6.6201 0-2.5255 5.4528-1.0578 6.7644 1.8207 0.75563 1.6584 3.1816 4.0528 5.3911 5.3209 2.2095 1.2681 3.643 2.9112 3.1855 3.6514-1.285 2.0792-2.2094 1.651-9.0077-4.1729zm415.67 0.18531c0.45323-0.73334 1.724-1.3333 2.824-1.3333s1.6292 0.6 1.176 1.3333c-0.45323 0.73333-1.724 1.3333-2.824 1.3333s-1.6292-0.6-1.176-1.3333zm6-5.1966c0-1.4527-1.1902-3.0015-2.6667-3.4701-2.8855-0.91584-3.5628-3.9555-1.2058-5.4122 1.2018-0.74275 9.2058 6.3122 9.2058 8.1142 0 0.29561-1.2 1.1797-2.6667 1.9646-2.2467 1.2024-2.6667 1.014-2.6667-1.1966zm-434.79-6.2905c-1.5465-1.8634-1.4485-2.0881 0.72625-1.6667 1.3826 0.26792 2.7635 1.2371 3.0687 2.1538 0.79195 2.3785-1.68 2.0612-3.7949-0.48712zm16.128-0.51288c0-0.73334 0.56459-1.3333 1.2546-1.3333 0.69006 0 1.6255 0.6 2.0787 1.3333 0.45322 0.73333-0.11134 1.3333-1.2546 1.3333-1.1433 0-2.0787-0.6-2.0787-1.3333zm428.7-2.8856c0.5228-1.713 1.7796-4.0617 2.7928-5.2194 1.0133-1.1578 1.8423-3.0343 1.8423-4.1701 0-2.4792 2.2624-4.411 6.3333-5.4075 2.4921-0.61008 3-0.18363 3 2.519 0 2.3049-1.3606 4.0562-4.6667 6.0069-2.5667 1.5144-4.6667 3.573-4.6667 4.5748s-1.2568 2.494-2.7928 3.3161c-2.5428 1.3609-2.7077 1.2158-1.8423-1.6197zm-454.87-6.1349c-2.1509-1.397-11.158-12.365-11.158-13.588 0-2.3094 6.4583 0.42337 7.7619 3.2844 0.77491 1.7007 2.6455 3.4847 4.1569 3.9644 1.7829 0.56588 2.748 2.0112 2.748 4.1157 0 3.3467-0.90006 3.9171-3.5082 2.2231zm5.7304-6.5351c-0.48889-0.48888-0.88889-2.2889-0.88889-4 0-3.6717 4.553-4.4011 5.8804-0.94211 1.29 3.3616-2.6605 7.2731-4.9915 4.9421zm-25.333-13.333c-1.8354-1.8354-0.79181-4.4444 1.7778-4.4444 1.4815 0 2.6667-0.88889 2.6667-2 0-1.1 0.9-2 2-2s2 0.9 2 2-0.95617 2-2.1248 2c-1.1686 0-2.4386 1.2-2.8222 2.6667-0.71486 2.7336-1.926 3.3492-3.4974 1.7778zm499.44-2.677c-4.3133-3.0088-3.931-9.2193 0.46369-7.5329 1.0283 0.3946 1.8696 1.4798 1.8696 2.4115 0 0.93176 0.8934 2.4355 1.9853 3.3418s1.6565 2.1797 1.2546 2.8299c-0.9923 1.6056-2.0523 1.4058-5.5733-1.0503zm-504.89-4.2552c-0.57436-0.92933-0.68421-2.0498-0.24411-2.4899 1.1933-1.1933 2.4944 0.56174 1.8498 2.4953-0.45163 1.3549-0.76569 1.3538-1.6057-5e-3zm510.45-3.3293c-1.5233-1.5673-3.1544-3.8996-3.6248-5.183-0.47037-1.2833-1.7741-2.3333-2.8971-2.3333-3.2224 0-2.4527-5.264 0.95816-6.5531 3.8987-1.4735 5.3158-0.54223 4.256 2.7969-0.70528 2.2222-0.39526 2.541 1.795 1.8458 2.2091-0.70115 2.7475-0.11587 3.2516 3.535 0.33224 2.4064 0.85009 5.2003 1.1508 6.2087 0.87994 2.9509-1.8878 2.7714-4.8896-0.31705zm-283.08-1.9122c-2.7394-0.91313-1.5384-4.2712 1.5209-4.2526 4.2261 0.0256 9 1.4356 9 2.6581 0 1.1384-8.1732 2.3771-10.521 1.5945zm53.854-1.6041c-0.50285-0.81364 1.5208-1.3333 5.1919-1.3333 3.3088 0 7.5424-0.69551 9.4081-1.5456 2.589-1.1796 4.665-1.1642 8.7679 0.0651 2.9567 0.88584 5.023 2.1813 4.5919 2.8789-1.0497 1.6985-26.907 1.6383-27.96-0.0651zm-77.458-4.2023c-1.9328-3.1274 3.25-4.7899 12.802-4.1065 6.8599 0.49083 9.323 0.23288 9.323-0.97634 0-1.2223 2.1352-1.4145 8.3333-0.74988 10.863 1.1647 13.851 2.0181 11.707 3.3431-0.90471 0.55913-3.834 0.50785-6.5095-0.114-8.5314-1.9828-13.142-1.495-13.918 1.4725-0.61951 2.369-1.8187 2.6667-10.743 2.6667-6.1414 0-10.415-0.59686-10.995-1.5356zm65.492-1.0768c-0.47166-0.76318-0.48674-1.9876-0.0335-2.7209 1.0383-1.68 9.5806-1.7573 10.607-0.096 0.69308 1.1214-0.29895 1.5965-7.4951 3.5894-1.2216 0.33832-2.607-9e-3 -3.0787-0.77245zm31.3-5.5409c0-1.0382 7.4463-3.8467 10.199-3.8467 3.015 0 2.0071 3.9017-1.199 4.6412-3.789 0.87399-9 0.41397-9-0.79449zm-315.49-1.7828c-0.94962-2.4747 0.43585-4.7305 2.9054-4.7305 1.0567 0 1.9213-0.6 1.9213-1.3333 0-0.73333 0.60508-1.3333 1.3446-1.3333 0.86688 0 0.90146 0.82905 0.09733 2.3333-0.68602 1.2833-1.5723 3.3833-1.9695 4.6667-0.87632 2.8315-3.2798 3.0535-4.2992 0.39719zm218.66-0.0279c-0.45399-1.1831-0.47924-2.4972-0.0561-2.9203 1.3714-1.3714 7.7661 0.93239 7.2171 2.6001-0.83353 2.5319-6.2198 2.7728-7.161 0.32017zm-19.828-7.3675c-0.47756-0.77271-3.5244-1.0025-7.2597-0.54755-4.0275 0.49055-6.7728 0.24035-7.3344-0.66848-0.551-0.89149 0.32161-1.4524 2.2595-1.4524 1.7364 0 4.2394-0.79132 5.5621-1.7585 2.0341-1.4874 3.22-1.3552 7.6918 0.85728 3.822 1.891 4.7964 2.9267 3.5166 3.7381-2.3408 1.484-3.4404 1.4423-4.4358-0.16838zm144.03 0.0549c-0.43392-0.70211 0.9047-2.1524 2.9747-3.2228 3.0338-1.5689 4.8522-1.6557 9.3769-0.448 3.0873 0.82405 5.6133 1.9743 5.6133 2.5561 0 1.5589-7.2369 1.2877-8.8565-0.33196-0.96424-0.96424-1.9125-0.76008-3.0966 0.66667-1.9242 2.3186-4.828 2.6953-6.0118 0.77996zm-348.38-2.7052c-0.90974-1.4567-1.6541-3.7234-1.6541-5.037s-1.2-3.4159-2.6667-4.6717c-3.6239-3.1029-3.4195-5.4541 0.39089-4.4977 2.5035 0.62835 3.3372 0.0265 4.601-3.3218 1.8271-4.8404 4.8244-4.502 5.43 0.61296 0.34275 2.8952-0.11957 3.5638-2.4642 3.5638-2.7418 0-2.8397 0.40013-1.9576 8 0.51068 4.4 0.71392 8 0.45165 8-0.26227 0-1.2212-1.1918-2.1309-2.6486zm507.68-0.11334c0-3.8276 3.7023-7.4025 5.6496-5.4552 1.0819 1.0819 1.0666 2.3812-0.0572 4.8476-1.8597 4.0817-5.5924 4.4873-5.5924 0.6076zm-326.26-3.4309c-0.49844-1.2989 0.0621-2.8536 1.3752-3.8137 2.8267-2.0669 2.8245-3.3269-5e-3 -3.3269-1.2222 0-1.8437-0.37855-1.381-0.84122 0.46267-0.46266 2.9246 0.14744 5.4711 1.3558l4.6298 2.197-3.0684 3.3109c-3.5643 3.846-5.8355 4.2076-7.0211 1.1181zm188.43 0.14921c-1.4056-3.6628-0.96728-4.2787 2.5643-3.6036 2.2252 0.42536 3.2558 1.3921 2.9847 2.7998-0.56291 2.9229-4.5161 3.4956-5.549 0.80377zm132.83-0.17277c-2.7232-1.0988-1.8967-5.2525 1.3333-6.7007 3.3428-1.4988 6.3333-0.9298 6.3333 1.2052 0 1.0861-5.2938 6.743-5.8707 6.2734-0.0711-0.0579-0.87932-0.40789-1.796-0.77777zm-493.88-3.7141c-0.85558-1.8778-1.184-3.7857-0.72984-4.2399 1.5599-1.5599 4.9408 0.75506 4.9408 3.3832 0 4.1177-2.4939 4.6251-4.2109 0.85675zm142.54-11.067c-2.8182-0.64172-3.1074-5.0868-0.39849-6.1263 1.0642-0.40836 3.2782 0.34531 4.9201 1.6748 2.9016 2.3496 2.9128 2.4532 0.3985 3.7-1.4227 0.7055-3.6367 1.0436-4.9201 0.75143zm250.56-1.2247c-0.48889-0.48888-0.88889-2.1689-0.88889-3.7333 0-1.5644-0.72248-3.5669-1.6055-4.45-1.2518-1.2518-0.37058-2.8638 4-7.3171 3.083-3.1414 5.6055-6.4518 5.6055-7.3564 0-0.90463 1.5-2.3282 3.3333-3.1636 1.8333-0.83533 3.3333-2.0225 3.3333-2.6381s0.61834-1.1193 1.3741-1.1193c2.0375 0 9.9593-9.4645 9.9593-11.899 0-1.1557 0.59984-3.0012 1.333-4.1012 0.73313-1.1 1.9331-3.1526 2.6667-4.5614 1.9296-3.7058 4.7271-4.1635 5.5773-0.91244 0.40375 1.5439 1.5641 2.8071 2.5786 2.8071 2.0763 0 2.5167 3.4272 0.59311 4.616-0.68827 0.42536-1.8562-0.28923-2.5954-1.588-1.0726-1.8844-1.8298-2.061-3.7486-0.87456-1.8869 1.1667-2.3061 2.8273-1.9471 7.7139 0.55608 7.5701-1.2859 10.133-7.2835 10.133-3.3062 0-5.9307 1.2929-9.8953 4.8748-5.6037 5.0626-5.5923 6.5897 0.0548 7.3457 2.5072 0.33564 3.4379 1.355 3.7552 4.1129 0.50939 4.427-2.8963 5.0963-5.0886 1-1.9629-3.6677-4.8312-3.3393-7.5884 0.86889-2.2459 3.4277-2.2265 3.5954 0.63593 5.496 3.8758 2.5735 3.7897 5.6352-0.15859 5.6352-1.7111 0-3.5111-0.4-4-0.8889zm83.519-1.3039c-0.51406-1.3396 0.1128-2.8906 1.6112-3.9862 1.3489-0.98638 2.0402-2.2058 1.5362-2.7099-0.50406-0.50404-1.7235 0.18726-2.7099 1.5362-1.0956 1.4984-2.6466 2.1252-3.9862 1.6112-3.125-1.1992-2.6424-3.8702 1.2054-6.6714 3.2755-2.3846 3.3618-2.3656 7.3506 1.6233 3.9126 3.9126 3.9685 4.1395 1.8237 7.4129-2.5305 3.862-5.5992 4.3939-6.831 1.1839zm-94.644-2.6084c-0.4505-1.174 0.0183-2.6648 1.0418-3.3129 3.6551-2.3144 4.7579-1.108 3.0516 3.3384-1.0418 2.7149-3.0467 2.7024-4.0935-0.0255zm-252.43-4.5321c0-4.3851 2.5578-5.3443 5.3333-2 1.3243 1.5956 1.3243 2.4044 0 4-2.7755 3.3443-5.3333 2.3851-5.3333-2zm24.667 2.6667c-0.45323-0.73333 0.11133-1.3333 1.2546-1.3333 1.1433 0 2.0787 0.6 2.0787 1.3333s-0.56459 1.3333-1.2546 1.3333-1.6255-0.6-2.0787-1.3333zm-177.45-5.9735c-1.1074-4.4121-0.1996-5.3108 3.4121-3.3779 3.2771 1.7538 3.1098 5.7743-0.26725 6.4247-1.5203 0.29279-2.5593-0.71376-3.1448-3.0468zm164.78-0.69316c-1.4667-1.4667-2.6742-3.1167-2.6833-3.6667-9e-3 -0.55-2.3851-3.55-5.2798-6.6667-4.1658-4.4851-6.1918-5.6667-9.7167-5.6667-6.118 0-7.6535-2.044-7.6535-10.188 0-3.8434-0.6-7.3588-1.3333-7.812-1.5425-0.95333-1.8235-6.0041-0.33333-5.9916 1.425 0.012 5.6622 7.781 5.69 10.433 0.0307 2.924 12.447 16.225 15.145 16.225 1.1529 0 3.0025 1.7527 4.1102 3.8949 1.1078 2.1422 3.8302 5.1881 6.0499 6.7686 4.005 2.8518 4.2809 5.3365 0.59241 5.3365-1.0567 0-3.1213-1.2-4.588-2.6667zm-170.59-9.5163c-3.6227-5.9422-3.6605-12.6-0.076834-13.537 1.5289-0.39982 2.6667-1.8187 2.6667-3.3256 0-3.6514 3.05-6.0381 5.0984-3.9897 2.4923 2.4924 1.8316 5.889-1.5803 8.1246-3.6711 2.4054-5.4536 9.2938-3.3985 13.134 2.481 4.6357 0.15157 4.2864-2.7094-0.40631zm499.48 3.2941c-0.48889-0.48888-0.88889-1.5089-0.88889-2.2667 0-0.83547 0.62103-0.75675 1.5778 0.2 0.86779 0.86779 1.2678 1.8878 0.8889 2.2667-0.3789 0.37889-1.0889 0.28889-1.5778-0.2zm-15.556-3.0592c0-0.70478-1.2638-2.4588-2.8085-3.8979-2.8766-2.68-2.4702-5.4874 0.79442-5.4874 1.0057 0 2.0203 1.1846 2.2546 2.6325 0.31823 1.9662 0.92947 2.3177 2.4149 1.3889 1.584-0.99044 1.6518-1.5807 0.33334-2.8992-0.91054-0.91053-1.6555-2.574-1.6555-3.6965 0-1.3754 1.3702-0.67084 4.2015 2.1604 3.9055 3.9055 4.0464 4.3565 2 6.4029-1.2108 1.2108-2.2015 2.7586-2.2015 3.4396 0 0.68095-1.2 1.2381-2.6667 1.2381s-2.6667-0.57662-2.6667-1.2814zm-6.0218-18.754c-0.46524-0.75278-1.5506-1.2817-2.412-1.1754-3.4305 0.4235-4.7562-0.23762-5.561-2.7731-0.48195-1.5185-2.6558-3.1207-5.0899-3.7514-2.3367-0.60551-4.0986-1.5128-3.9153-2.0162 0.18334-0.50339 0.33334-2.1152 0.33334-3.5819 0-5.0528 4.9715-2.9653 10.937 4.5922 3.1513 3.9924 6.4797 7.2924 7.3964 7.3333 1.9143 0.0855 2.3135 2.7411 0.41203 2.7411-0.69006 0-1.6353-0.61591-2.1006-1.3687zm-489.64-15.258c-1.0409-3.3949-1.1622-5.7539-0.33833-6.5778 2.0837-2.0836 2.8579-0.12307 2.3953 6.0655l-0.434 5.8054zm147.9-6.7068c-1.7848-3.9172 0.32599-4.587 2.3772-0.75432 1.6729 3.1259 1.7343 4.0877 0.26094 4.0877-0.61563 0-1.8028-1.5-2.6381-3.3333zm-13.576-4.4889c0-4.4879 5.6434-16.496 6.8549-14.586 1.5762 2.4852 1.4029 8.7576-0.27049 9.7919-0.77858 0.48118-1.9637 2.3166-2.6337 4.0787-1.4442 3.7987-3.9508 4.2523-3.9508 0.71495zm-138.46-6.8445c0-1.8333 0.30263-2.5833 0.67252-1.6667 0.36988 0.91667 0.36988 2.4167 0 3.3333-0.36988 0.91666-0.67252 0.16666-0.67252-1.6667zm0-6.6667c0-1.8333 0.30263-2.5833 0.67252-1.6667 0.36988 0.91666 0.36988 2.4167 0 3.3333-0.36988 0.91667-0.67252 0.16667-0.67252-1.6667zm132.38-0.11613c-0.49272-0.79724-0.22812-2.1172 0.58797-2.9333 1.0896-1.0896 1.4838-0.70443 1.4838 1.4495 0 3.2194-0.69261 3.7154-2.0718 1.4838zm-135.44-7.0811c-1.1478-2.5192-1.2012-3.9544-0.1848-4.9707 1.0164-1.0164 1.697-0.20848 2.3574 2.7982 1.1969 5.4493-0.09225 6.7384-2.1726 2.1726zm140.35-4.5259c-2.6519-4.1439-2.9366-5.5462-1.7601-8.6695 0.77192-2.0493 1.067-5.7993 0.6558-8.3333-0.4834-2.9789-0.21473-4.6074 0.76012-4.6074 0.91386 0 1.5078 2.5426 1.5078 6.4548 0 3.5501 0.89351 9.4001 1.9856 13 2.3403 7.7144 2.2711 7.2264 1.0144 7.1555-0.55-0.0311-2.4236-2.281-4.1636-5zm-133.93-7.8102c-0.50111-0.50111-0.91111-2.3611-0.91111-4.1333 0-3.6908 3.0669-3.4869 3.7917 0.25212 0.51082 2.635-1.4649 5.2969-2.8806 3.8812zm-4.9111-19.055c0-5.09-0.6-9.6255-1.3333-10.079-0.73333-0.45323-1.3333-4.9886-1.3333-10.079 0-5.2809 0.57251-9.2546 1.3333-9.2546 0.77037 0 1.3333 4.2222 1.3333 10 0 9.1111 0.23704 10 2.6667 10 1.4667 0 2.6667 0.79994 2.6667 1.7776 0 4.2286-3.1365 16.889-4.1841 16.889-0.6321 0-1.1493-4.1646-1.1493-9.2546zm-7.8671-33.745c0.07309-1.65 0.5643-4.5 1.0916-6.3333 0.89531-3.1131 1.023-3.0014 1.9318 1.6893 0.53521 2.7625 0.60859 5.6125 0.16308 6.3333-1.4594 2.3614-3.3221 1.3739-3.1864-1.6894zm8.8222-6.7757c-1.5428-3.9452-1.1025-8.553 1.02-10.676 1.7391-1.7391 3.2213-14.467 3.3337-28.627 0.01344-1.6933 0.5356-2.7628 1.1603-2.3767 1.7744 1.0967 1.5154 27.952-0.28036 29.067-0.83722 0.5199-2.1424 4.1199-2.9004 8-0.99549 5.0957-1.6434 6.3765-2.3333 4.6124zm-6.1556-17.224c0.07309-3.1167 0.58126-7.1667 1.1292-9 0.82189-2.7497 1.1735-2.0087 2.0081 4.2325 0.55648 4.1612 0.61291 8.2112 0.1254 9-1.9089 3.0886-3.3894 1.168-3.2628-4.2325zm140.23 4.1634c-1.545-1.545-0.8653-5.1634 0.96991-5.1634 1.5814 0 2.5487 3.3668 1.4692 5.1135-0.69985 1.1324-1.3435 1.1456-2.4391 0.05zm3.6366-15.571c0-1.4465 1.1256-4.0202 2.5014-5.7192l2.5014-3.0892-0.8396 5.1653c-0.87662 5.3931-4.1633 8.2691-4.1633 3.6431zm-141.82-6.2588c0.42211-1.1 1.0033-2 1.2915-2s0.52402 0.9 0.52402 2-0.58117 2-1.2915 2c-0.71032 0-0.94612-0.9-0.52402-2zm147.41-13.667c0.3468-5.4047 0.84628-6.3958 3.4064-6.7594 2.1026-0.29863 3 0.25254 3 1.8426 0 2.2354-4.9535 11.25-6.1818 11.25-0.34704 0-0.44811-2.85-0.22459-6.3333zm-9.926 0.3015c-0.35381-1.8508-0.12373-3.6862 0.51123-4.0787 0.63499-0.39245 1.1545 1.1219 1.1545 3.3652 0 4.9499-0.79113 5.2888-1.6658 0.71353zm-133.75-6.3805c-0.97553-2.5422 1.7631-7.9452 3.4871-6.8797 1.9289 1.1921 1.511 5.4291-0.71779 7.2789-1.6015 1.3292-2.1356 1.2522-2.7693-0.39923zm155.03-15.586c-0.38334-1.4659-0.18342-2.9827 0.44427-3.3707 1.384-0.85536 4.1961 4.0038 3.0059 5.194-1.5252 1.5252-2.7428 0.88176-3.4502-1.8234zm317.72-0.40133c0-2.2298 2.7036-4.9333 4.9333-4.9333 2.467 0 2.1535 4.8868-0.37572 5.8573-3.2377 1.2424-4.5576 0.97483-4.5576-0.92401zm9.3333-8.9333c0-0.73334-1.4511-1.3333-3.2246-1.3333-4.5747 0-9.3134-7.8484-8.0932-13.404 1.2911-5.8782 5.1887-4.7836 5.7232 1.6072 0.22296 2.6661 1.53 5.8652 2.9045 7.1091 5.093 4.6091 12.077-2.0966 7.477-7.1793-3.0424-3.3618-2.6443-5.726 0.87982-5.2255 2.148 0.30507 3.1198 1.4674 3.4219 4.0927 0.23204 2.0167 0.98204 3.6667 1.6667 3.6667 2.5386 0 1.1204 3.9192-2.8578 7.8974-4.0343 4.0343-7.8974 5.3889-7.8974 2.7692zm-320-3.1048c0-3.1929 8.321-14.417 11.617-15.67 7.5047-2.8533 6.7904-0.34135-2.9994 10.547-6.2588 6.9612-8.6179 8.3636-8.6179 5.1226zm-152-0.98421c0-2.3648 6.852-10.578 8.8249-10.578 2.3207 0 2.5097 8.132 0.24175 10.4-1.9816 1.9816-9.0667 2.1204-9.0667 0.17771zm451.45-4.0134c-3.387-4.0253-4.5352-7.8977-2.3417-7.8977 1.1385 0 9.5565 9.9143 9.5565 11.255 0 2.1771-4.2039 0.22079-7.2148-3.3574zm-306.49-2.0454c-1.4916-1.4916-1.1368-6.921 0.519-7.9444 1.3042-0.80605 3.7743 1.4535 3.8305 3.504 0.0476 1.7348-3.4671 5.3229-4.3495 4.4405zm344.62-4.6023c0.32084-0.96251 1.3708-2.0125 2.3333-2.3333 1-0.33333 1.5 0.16667 1.1667 1.1667-0.32084 0.96249-1.3708 2.0125-2.3333 2.3333-1 0.33334-1.5-0.16666-1.1667-1.1667zm-475.38-3.1937c-1.0875-2.8339 0.34474-6.0563 2.6918-6.0563 1.3255 0 1.8114 1.1362 1.524 3.5638-0.48046 4.0585-3.0352 5.569-4.2158 2.4925zm-9.4347-0.55346c-0.55057-0.89083-0.32875-2.4297 0.49292-3.4198 0.82167-0.99006 2.5233-4.9689 3.7815-8.8418 2.9086-8.9536 5.1309-9.8889 4.4949-1.8917-0.3155 3.9669-1.3273 6.617-2.9641 7.7634-1.3668 0.95734-3.0069 3.1511-3.6446 4.8751-0.79079 2.1377-1.4778 2.6194-2.1605 1.5148zm437.29-0.0775c-0.91077-1.4736 1.1925-3.0649 2.4238-1.8337 1.2677 1.2677 1.0314 3.0749-0.402 3.0749-0.69005 0-1.5998-0.55855-2.0218-1.2412zm642.6 0.19099c-1.8301-0.26235-4.343-3.6329-7.9524-10.667-6.47-12.608-23.771-30.522-36.705-38.006-21.858-12.647-51.605-16.152-75.333-8.876-16.731 5.1303-26.14 11.163-49.059 31.457-11.884 10.523-22.208 19.134-22.941 19.135-0.73333 7.7e-4 -8.8333-6.6736-18-14.832-24.262-21.593-28.843-25.04-40.667-30.597-30.111-14.153-64.956-11.671-92.978 6.622-12.234 7.9866-26.388 23.304-32.785 35.48l-4.9033 9.3334h-130.67l0.43967-8c0.93564-17.025 9.4409-47.654 18.522-66.701 13.794-28.932 35.599-55.92 62.372-77.196 24.054-19.116 45.244-30.331 74-39.167 21.676-6.6603 32.847-8.4561 57.539-9.2499 37.192-1.1956 61.447 3.1424 94.311 16.867 11.589 4.8398 15.092 5.0591 21.965 1.3753 8.0805-4.3309 34.987-12.85 48.851-15.468 19.752-3.729 63.775-3.4504 83.333 0.5274 48.24 9.8108 88.051 31.89 121.38 67.317 26.466 28.133 42.448 57.119 52.029 94.362 2.9654 11.527 6.0614 33.732 4.8693 34.924-0.8939 0.89385-121.88 2.1819-127.62 1.3587zm-587.66-2.3952c-1.9308-1.9308-0.96856-5.7582 1.9642-7.8124 3.1772-2.2254 6.37-2.7392 6.37-1.0252 0 2.0332-7.3474 9.8244-8.3342 8.8376zm-12.004-2.2212c-1.0082-2.9964 0.59866-6.3333 3.0496-6.3333 2.9358 0 4.0067 2.5334 2.3952 5.6667-1.3902 2.7031-4.6263 3.0993-5.4448 0.66667zm-312.99-6.3333c0-3.5556 0.44444-4 4-4 4.5967 0 5.2569 2.4492 1.5617 5.7934-3.6444 3.2981-5.5617 2.6799-5.5617-1.7934zm262.33 1.2269c-3.59-2.0914-3.006-6.5602 0.85735-6.5602 1.7549 0 3.536-0.9 3.9582-2 0.93428-2.4347 4.8512-2.674 4.8512-0.29632 0 0.93703-1.05 2.6455-2.3333 3.7966-1.2833 1.1511-2.9333 3.0663-3.6667 4.2561-1.0054 1.6311-1.9072 1.8288-3.6667 0.80385zm57.933-6.8268c-2.8459-2.8459-1.794-5.0667 2.4-5.0667 2.3932 0 4 0.69629 4 1.7333 0 1.7734-2.5621 4.9333-4 4.9333-0.44 0-1.52-0.72-2.4-1.6zm-306.69-3.9769c0.28181-1.925 1.7576-3.2643 4.359-3.9559 5.2651-1.3998 5.8149-0.4566 2.0621 3.5381-3.9121 4.1642-6.999 4.3651-6.4211 0.41784zm237.98 2.0213c-1.8196-1.8196-0.79663-3.283 2.0067-2.8705 3.6641 0.53916 4.8957 3.7594 1.4378 3.7594-1.4056 0-2.9556-0.4-3.4444-0.8889zm85.318-1.5494c-1.3939-1.5402-2.2067-4.7445-2.2067-8.6997 0-5.3554 0.45595-6.4347 3.1511-7.4594 1.7331-0.65892 3.5004-2.5338 3.9273-4.1665 0.73756-2.8205 1.2531-2.9285 10.34-2.1666 5.2601 0.44098 9.9255 1.1634 10.367 1.6053 1.6755 1.6755-2.9057 2.9422-7.1658 1.9814-8.3914-1.8926-19.438 8.6262-16.298 15.519 0.79152 1.7372 1.9782 3.1586 2.6371 3.1586s0.82718 0.6 0.37396 1.3333c-1.206 1.9513-2.6407 1.642-5.1267-1.105zm-493.88-5.6556c1.7598-4.3127 4.0636-5.3526 4.7371-2.1384 0.42325 2.0198-3.0682 6.2323-5.1657 6.2323-0.68306 0-0.4902-1.8423 0.42857-4.0939zm395.91-4.1914c-6.1442-4.7222-7.2061-7.0536-2.5757-5.6547 3.2206 0.97294 10.333 7.0689 10.333 8.8562 0 1.9981-2.1431 1.1137-7.7576-3.2015zm107.99 2.0884c0.25835-1.3415 1.5673-2.6505 2.9088-2.9088 1.7614-0.33922 2.3086 0.20794 1.9694 1.9694-0.25835 1.3415-1.5673 2.6505-2.9088 2.9088-1.7614 0.33922-2.3086-0.20794-1.9694-1.9694zm-324.51-3.1364c-0.47585-3.2422-0.10907-4 1.9363-4 3.0164 0 7.6814 2.3278 7.6814 3.8329 0 1.0854-5.8508 4.1671-7.9114 4.1671-0.6156 0-1.3835-1.8-1.7064-4zm200.62-7.3212c-2.3833-1.0359-4.3333-2.5124-4.3333-3.2811 0-2.6474 5.7002-1.3912 8.7834 1.9356 3.4508 3.7235 2.0179 4.1568-4.4501 1.3455zm-192.09-0.82512c-1.6971-0.64046-2.7117-1.7696-2.2546-2.5091 1.0531-1.704 8.2568-1.7645 9.299-0.0781 1.2758 2.0642-3.6431 3.8709-7.0443 2.5873zm11.27-0.52038c-0.52203-1.3604 0.072-2 1.8574-2 1.4443 0 2.6248 0.89952 2.6248 2 0 1.1-0.83581 2-1.8573 2-1.0216 0-2.2027-0.9-2.6248-2zm198.41 0.55049c-1.4786-2.3924 1.4451-4.1056 6.2247-3.6476 3.0026 0.28773 4.6385 1.2041 4.934 2.7638 0.36148 1.9081-0.53334 2.3333-4.9104 2.3333-2.9438 0-5.7555-0.65228-6.2483-1.4495zm-383.07-5.2624c-0.99678-2.2593-1.4988-4.4213-1.1157-4.8045 1.338-1.338 7.7124 3.9205 7.3066 6.0275-0.72554 3.7674-4.3008 3.0611-6.1909-1.223zm505.76-0.0369c-0.48118-0.77857-2.3166-1.9637-4.0787-2.6337-1.9269-0.73263-3.2038-2.2941-3.2038-3.9178 0-3.2741 2.2688-3.473 5.5671-0.48812 1.9888 1.7999 3.0633 1.9293 5.7716 0.69526 3.7263-1.6978 4.3733-5.7127 1.3279-8.2401-2.8095-2.3317-2.4892-5.3334 0.56902-5.3334 2.3332 0 6.7643 6.3167 6.7643 9.6427 0 1.1312-10.264 11.691-11.363 11.691-0.26355 0-0.87288-0.63701-1.3541-1.4156zm-305.95-4.474c0-2.7629 0.90383-3.4191 6.3333-4.5979 9.4396-2.0495 22.741-6.5132 25.806-8.6599 2.6497-1.8559 7.861-1.5349 7.861 0.48425 0 1.8699-18.118 9.2678-22.801 9.3104-1.1741 0.0107-4.9559 1.5194-8.4039 3.3527-7.7793 4.1363-8.7947 4.149-8.7947 0.11048zm-192.42 1.0229c-0.50111-0.50111-0.91111-2.9611-0.91111-5.4667 0-5.5528 3.1134-5.3338 3.7709 0.26525 0.44709 3.8074-1.2206 6.8406-2.8598 5.2014zm338.09-0.76066c-4.6727-2.2535-3.8281-5.2881 1.3333-4.7905 3.3213 0.32023 4.4328 1.1185 4.7594 3.4178 0.46863 3.2997-1.2802 3.6937-6.0927 1.3727zm-22.111-7.2616c-1.9417-1.9417-0.70536-3.2665 2.675-2.8663 4.592 0.54361 5.8203 3.7552 1.4362 3.7552-1.7722 0-3.6222-0.4-4.1111-0.88889zm175.69-3.5324c-1.0002-2.6066 0.29376-4.912 2.757-4.912 3.0995 0 3.4096 2.1843 0.66303 4.67-2.3356 2.1137-2.6921 2.139-3.42 0.24205zm-297.91-2.9965c0-1.5402 1.1046-1.9754 4.2307-1.6667 6.1124 0.60366 6.5715 3.7512 0.54712 3.7512-3.4441 0-4.7778-0.58187-4.7778-2.0845zm106.67 0.70931c0-2.5008 4.1688-3.0275 6.3891-0.80715 2.0209 2.0209 1.8653 2.1823-2.1034 2.1823-2.3572 0-4.2857-0.61883-4.2857-1.3752zm34 0.13684c-2.3344-0.91998-2.1308-1.1698 1.6341-2.0051 4.5661-1.013 7.5811-0.0561 6.3089 2.0022-0.90678 1.4672-4.2242 1.4684-7.943 3e-3zm178.92 0.37722c-0.50418-0.50417-0.91667-2.3607-0.91667-4.1255 0-2.3384 0.63299-3.087 2.3333-2.7595 1.4502 0.27928 2.3333 1.662 2.3333 3.6533 0 3.2077-2.0271 4.9547-3.75 3.2317zm-493.45-1.453c-1.3033-1.3033-0.90527-6.795 0.55806-7.6994 0.74529-0.46061 1.0099-1.396 0.58798-2.0787-0.42191-0.68266-0.20168-1.2412 0.48941-1.2412 1.3058 0 2.8511 4.3906 2.8826 8.1907 0.0189 2.2681-3.116 4.2307-4.5181 2.8286zm232.54-0.35258c0-0.73333 1.2354-1.3333 2.7454-1.3333s2.3745 0.6 1.9213 1.3333c-0.45323 0.73334-1.6886 1.3333-2.7454 1.3333s-1.9213-0.6-1.9213-1.3333zm6.6667 0c0-0.7619 4-1.3333 9.3333-1.3333s9.3333 0.57143 9.3333 1.3333c0 0.76191-4 1.3333-9.3333 1.3333s-9.3333-0.57143-9.3333-1.3333zm-253.93-1.2204c-1.0115-1.6367 5.6651-9.4462 8.0759-9.4462 1.5205 0 1.3553 1.0844-0.81229 5.3333-2.5844 5.0658-5.6143 6.7815-7.2636 4.1129zm516.6-4.2446c0-0.80577-1.792-3.139-3.9821-5.1849-3.4685-3.2401-3.7223-3.9355-1.9678-5.3916 1.6796-1.394 2.8118-0.87426 6.8135 3.1274 3.0063 3.0063 4.5042 5.5678 4.0096 6.8567-0.89785 2.3398-4.8732 2.8231-4.8732 0.59245zm-501.82-8.5544c-0.46404-1.2093-0.84371-3.6996-0.84371-5.5341 0-4.5652 3.2088-3.3011 3.7709 1.4854 0.51334 4.3715-1.6533 7.3683-2.9272 4.0487zm9.3182-6.9298c-0.45569-0.45569-0.82853-2.1931-0.82853-3.861 0-1.6678-0.60979-3.4093-1.3551-3.8699-0.7453-0.46062-1.0099-1.396-0.58798-2.0787 1.3137-2.1256 3.0718-1.3653 3.517 1.5208 0.23434 1.5191 2.0726 3.7559 4.0849 4.9708 3.5001 2.1129 3.7881 2.0795 6.6374-0.76978 2.8624-2.8624 2.8909-3.1213 0.73134-6.6374-1.3275-2.1614-3.3618-3.6155-4.9708-3.553-1.498 0.0582-2.7236-0.71896-2.7236-1.7271 0-1.3896 1.2094-1.6147 5-0.93075 2.75 0.49622 5.4245 1.143 5.9433 1.4374 0.51882 0.29436 0.81882 3.9656 0.66667 8.1582l-0.27663 7.623-7.5048 0.27297c-4.1276 0.15013-7.8776-0.0999-8.3333-0.55556zm463.35-0.27099c-2.0382-1.2597-1.5903-5.6455 0.65273-6.3923 1.9576-0.6517 3.4617 3.3178 2.1472 5.6666-0.62909 1.1241-1.7043 1.4028-2.8 0.72564zm10.484-5.4464c-3.0148-3.0148-3.5751-8-0.89908-8 2.7987 0 7.9968 6.2869 7.1096 8.5988-1.0702 2.7887-3.01 2.6017-6.2105-0.59882zm-12.721-15.226c-1.9663-1.4511-2.2354-2.3113-1.0877-3.4764 2.2403-2.2742 6.475-1.0038 6.475 1.9424 0 3.3237-2.1374 3.9323-5.3872 1.5339zm-434.62-0.78382c-1.0124-1.638 2.6571-3.2362 4.6304-2.0166 0.78042 0.48232 1.0738 1.4355 0.65183 2.1182-1.0176 1.6466-4.2401 1.5846-5.2822-0.10155zm416.26 0.48164c-1.7388-1.7388-0.90865-3.1389 1.8611-3.1389 1.5517 0 2.5448 0.69889 2.25 1.5833-0.64948 1.9485-2.8758 2.7909-4.1111 1.5556zm-426.25-6.9815c0-0.73334 0.6-1.7042 1.3333-2.1574 0.73333-0.45322 1.3333-0.22404 1.3333 0.50929s-0.6 1.7042-1.3333 2.1574c-0.73334 0.45322-1.3333 0.22404-1.3333-0.50929zm431-3.7233c-3.6715-2.5611-4.0167-7.1008-0.53998-7.1008 2.9736 0 6.8733 4.0311 6.8733 7.105 0 2.7524-2.3838 2.7508-6.3333-0.0043zm-418.91-1.4341c-2.5496-2.0689-2.6631-2.6232-1.0017-4.8908 1.8355-2.5053 1.9593-2.4966 6.0611 0.42412 2.303 1.6399 4.1873 3.8408 4.1873 4.8908 0 2.6775-5.7494 2.4138-9.2467-0.42412zm17.247-10.245c0-1.4443 1.2682-2.0886 4.1111-2.0886 5.1013 0 4.6436 3.1407-0.54726 3.7552-2.5257 0.299-3.5638-0.1865-3.5638-1.6667zm375.33 0.5781c-0.45323-0.73333 0.11133-1.3333 1.2546-1.3333 1.1433 0 2.0787 0.6 2.0787 1.3333 0 0.73333-0.56458 1.3333-1.2546 1.3333-0.69005 0-1.6255-0.6-2.0787-1.3333zm-383.04-5.5393c0.69204-2.0761 3.675-2.4397 3.7795-0.46067 0.0387 0.73333-0.93036 1.5406-2.1536 1.794-1.3903 0.28798-1.9998-0.21184-1.626-1.3333zm389.31-0.06067c-0.88-0.88-1.6-2.3929-1.6-3.3619 0-0.96906-1.5-2.4454-3.3333-3.2807-1.8333-0.83532-3.3333-1.9225-3.3333-2.4159 0-2.3924 1.9792-2.1689 6.4418 0.72726 8.8171 5.7222 10.892 7.3717 10.892 8.6601 0 1.8286-7.1692 1.5685-9.0667-0.32891zm-379.32-4.5646c-1.2639-1.2639 1.5996-4.5021 3.9811-4.5021 2.5654 0 1.6603 4.5169-1.008 5.0308-1.1273 0.2171-2.4652-0.0208-2.9731-0.52868zm23.927-12.274c-2.8515-3.1509-2.7869-4.2283 0.25336-4.2283 2.7802 0 7.3524 4.4099 5.9874 5.7749-1.5619 1.5619-3.967 0.96587-6.2407-1.5465zm12.46 1.4602c0-1.991 3.093-4.3552 5.6978-4.3552 4.0654 0 2.2204 4.5965-2.0425 5.0886-2.0104 0.23204-3.6553-0.09796-3.6553-0.73333zm308.67-0.35523c-0.45323-0.73333 0.44677-1.3333 2-1.3333s2.4532 0.6 2 1.3333-1.3532 1.3333-2 1.3333-1.5468-0.6-2-1.3333zm-15.319-1.983c-1.9738-2.3782-0.86533-6.017 1.8328-6.017 1.0619 0 3.0769-1.5735 4.4779-3.4968 2.3902-3.2812 2.7702-3.3799 6.1647-1.6014l3.6175 1.8954-3.7202 3.5179c-2.0461 1.9348-4.4938 4.4554-5.4394 5.6014-2.1639 2.6224-4.8085 2.6607-6.9333 0.10051zm24.816-2.0732c-2.1056-2.2309-3.5304-4.3542-3.1661-4.7184 1.06-1.06 10.218 5.272 10.28 7.108 0.0983 2.9011-3.1504 1.8099-7.1139-2.3895zm-308.6-3.5106c0.30376-1.5773 1.6347-2.4332 3.7837-2.4332 4.7444 0 4.3339 3.8834-0.4686 4.4332-3.0594 0.35027-3.694-0.03256-3.3151-2zm-13.568-3.0999c0-0.73333 1.05-1.3415 2.3333-1.3515 1.2833-0.01 3.8333-0.34292 5.6667-0.7398 2.424-0.52475 2.1095-0.15607-1.1531 1.3515-5.2203 2.4123-6.8469 2.588-6.8469 0.7398zm22.667-10.667c0-0.73333 1.3834-1.3333 3.0743-1.3333 1.6909 0 5.1074-1.5 7.5924-3.3333 5.3548-3.9506 9.7374-4.433 9.0864-1-0.26318 1.3877-1.8843 2.5005-4.0002 2.7458-1.9567 0.22686-4.2751 1.2769-5.1519 2.3333-1.7939 2.1615-10.601 2.6496-10.601 0.58752zm232.97 0.52754c-2.0904-2.0904 1.0567-3.1942 9.1067-3.1942 5.0103 0 8.588 0.57285 8.588 1.3751 0 0.75631-1.95 1.2594-4.3333 1.118-2.3833-0.14142-6.1622 0.16086-8.3976 0.67174-2.2353 0.51088-4.469 0.52411-4.9637 0.02939zm28.973-0.61624c-1.4213-2.2997-0.17536-2.4894 3.3902-0.5161 3.2126 1.778 3.2272 1.8453 0.41001 1.8909-1.6067 0.02599-3.3168-0.59267-3.8002-1.3748zm-6.2785-2.3039c-4.6928-0.57744-4.9449-4.2741-0.2915-4.2741 1.8564 0 3.7305 0.92588 4.1647 2.0575 0.98938 2.5783 0.64906 2.773-3.8732 2.2166zm-223.33-6.4904c-2.8173-1.1368-1.8637-2.7874 2.4865-4.3039 4.493-1.5663 6.5135-1.0111 6.5135 1.7896 0 2.775-4.9363 4.154-9 2.5143zm200 0c-2.3899-0.96435-2.0601-4.4503 0.42099-4.4503 3.1786 0 7.4204 2.6387 6.5377 4.0669-0.82406 1.3333-4.1503 1.5166-6.9587 0.38339zm-127-12.372c0-2.2453 2.4008-2.8194 8.0274-1.9197 3.7322 0.59681 4.9471 1.2478 3.7476 2.0083-2.4244 1.5369-11.775 1.4665-11.775-0.08862zm20.667-0.07869c-0.45323-0.73333-0.18864-1.3333 0.58797-1.3333 0.77662 0 1.412 0.6 1.412 1.3333 0 0.73333-0.26459 1.3333-0.58797 1.3333-0.32339 0-0.9588-0.6-1.412-1.3333zm18 0c0-0.73333 0.63541-1.3333 1.412-1.3333 0.77661 0 1.0412 0.6 0.58797 1.3333-0.45323 0.73333-1.0886 1.3333-1.412 1.3333-0.32338 0-0.58797-0.6-0.58797-1.3333zm10.667 0c-1.1-0.71087-1.7-1.3391-1.3333-1.3961 9.8899-1.5374 13.333-1.3833 13.333 0.59683 0 1.5791-1.2977 2.1273-5 2.1122-2.75-0.01123-5.9-0.60204-7-1.3129zm-70.456-1.1749c-1.2888-0.81683-0.72933-1.3376 2-1.8618 4.4214-0.8492 5.8851-0.01601 3.084 1.7555-2.4088 1.5234-2.8342 1.5323-5.084 0.10637zm84.456-2.8251c0.45322-0.73333 2.5532-1.3333 4.6667-1.3333s4.2134 0.6 4.6667 1.3333c0.49841 0.80644-1.3457 1.3333-4.6667 1.3333-3.3209 0-5.1651-0.52689-4.6667-1.3333zm-70.333-0.88304c0.91667-0.36988 2.4167-0.36988 3.3333 0 0.91666 0.36988 0.16666 0.67252-1.6667 0.67252s-2.5833-0.30263-1.6667-0.67252z" fill="#f23e6e"/>
   <path d="m925.91 623.67c-18.322-13.064-105.69-79.418-127.24-96.641-12.833-10.255-31.133-25.83-40.667-34.612-19.916-18.346-54.062-53.333-60.427-61.916-2.3781-3.207-8.3871-11.231-13.353-17.831-17.606-23.398-32.547-47.817-41.607-68-2.3043-5.1333-4.7306-10.533-5.3918-12-3.1109-6.9003-5.1662-14.588-4.1673-15.587 0.60786-0.60787 30.759-0.9495 67.002-0.75916l65.897 0.34604 10.024 14.998c13.379 20.018 28.022 37.243 50.266 59.128 21.336 20.991 27.662 26.832 37.757 34.859 4.0333 3.207 13.852 11.112 21.818 17.567 28.376 22.991 50.609 39.447 53.295 39.447 1.5 0 10.857-6.15 20.794-13.667 71.164-53.833 121.03-102.39 145.49-141.67 3.1973-5.1333 6.4401-9.7741 7.2064-10.313 2.1496-1.5115 132.43-1.2494 133.37 0.26836 1.2128 1.9624-10.508 29.563-19.505 45.932-21.877 39.801-48.73 73.904-89.266 113.36-33.4 32.512-54.743 49.838-140.95 114.42-48.123 36.05-51.506 38.333-56.785 38.333-4.4687 0-7.2347-1.1558-13.561-5.6667zm205.42-411.38c-1.8301-0.26235-4.343-3.6328-7.9524-10.667-6.47-12.608-23.771-30.522-36.705-38.006-21.858-12.647-51.605-16.152-75.333-8.876-16.731 5.1303-26.14 11.163-49.059 31.457-11.884 10.523-22.208 19.134-22.941 19.135-0.73333 7.7e-4 -8.8333-6.6736-18-14.832-24.262-21.593-28.843-25.04-40.667-30.597-30.111-14.153-64.956-11.671-92.978 6.622-12.234 7.9866-26.388 23.304-32.785 35.48l-4.9033 9.3333h-130.67l0.43967-8c0.93564-17.025 9.4409-47.654 18.522-66.701 13.794-28.932 35.599-55.92 62.372-77.196 24.054-19.116 45.244-30.331 74-39.167 21.676-6.6603 32.847-8.4561 57.539-9.2499 37.192-1.1956 61.447 3.1424 94.311 16.867 11.589 4.8398 15.092 5.0591 21.965 1.3753 8.0805-4.3309 34.987-12.85 48.851-15.468 19.752-3.729 63.775-3.4504 83.333 0.5274 48.24 9.8108 88.051 31.89 121.38 67.317 26.466 28.133 42.448 57.119 52.029 94.362 2.9654 11.527 6.0614 33.732 4.8693 34.924-0.8939 0.89385-121.88 2.1819-127.62 1.3587z" fill="#831ffc"/>
   <path d="m780.12 512.06c-18.044-14.978-75.368-71.517-82.527-81.396-2.3911-3.3-8.4108-11.4-13.377-18-17.606-23.398-32.547-47.817-41.607-68-2.3043-5.1333-4.7306-10.533-5.3918-12-3.1109-6.9003-5.1662-14.588-4.1673-15.587 0.60786-0.60787 30.759-0.9495 67.002-0.75916l65.897 0.34604 10.024 14.998c13.379 20.018 28.022 37.243 50.266 59.128 21.336 20.991 27.662 26.832 37.757 34.859 4.0333 3.207 13.852 11.112 21.818 17.567 28.376 22.991 50.609 39.447 53.295 39.447 1.5 0 10.857-6.15 20.794-13.667 71.164-53.833 121.03-102.39 145.49-141.67 3.1973-5.1333 6.4401-9.7741 7.2064-10.313 2.1496-1.5115 132.43-1.2494 133.37 0.26836 1.2128 1.9624-10.508 29.563-19.505 45.932-14.045 25.552-32.883 52.27-54.796 77.717-14.894 17.295-56.199 57.289-74.805 72.431l-14.866 12.098-285.09 0.53373zm351.2-299.78c-1.8301-0.26235-4.343-3.6328-7.9524-10.667-6.47-12.608-23.771-30.522-36.705-38.006-21.858-12.647-51.605-16.152-75.333-8.876-16.731 5.1303-26.14 11.163-49.059 31.457-11.884 10.523-22.208 19.134-22.941 19.135-0.73333 7.7e-4 -8.8333-6.6736-18-14.832-24.262-21.593-28.843-25.04-40.667-30.597-30.111-14.153-64.956-11.671-92.978 6.622-12.234 7.9866-26.388 23.304-32.785 35.48l-4.9033 9.3333h-130.67l0.43967-8c0.93564-17.025 9.4409-47.654 18.522-66.701 13.794-28.932 35.599-55.92 62.372-77.196 24.054-19.116 45.244-30.331 74-39.167 21.676-6.6603 32.847-8.4561 57.539-9.2499 37.192-1.1956 61.447 3.1424 94.311 16.867 11.589 4.8398 15.092 5.0591 21.965 1.3753 8.0805-4.3309 34.987-12.85 48.851-15.468 19.752-3.729 63.775-3.4504 83.333 0.5274 48.24 9.8108 88.051 31.89 121.38 67.317 26.466 28.133 42.448 57.119 52.029 94.362 2.9654 11.527 6.0614 33.732 4.8693 34.924-0.8939 0.89385-121.88 2.1819-127.62 1.3587z" fill="#fb9803"/>
   <path d="m780.12 512.06c-18.044-14.978-75.368-71.517-82.527-81.396-2.3911-3.3-8.4108-11.4-13.377-18-17.606-23.398-32.547-47.817-41.607-68-2.3043-5.1333-4.7306-10.533-5.3918-12-3.1109-6.9003-5.1662-14.588-4.1673-15.587 0.60786-0.60787 30.759-0.9495 67.002-0.75916l65.897 0.34604 10.024 14.998c13.379 20.018 28.022 37.243 50.266 59.128 21.336 20.991 27.662 26.832 37.757 34.859 4.0333 3.207 13.852 11.112 21.818 17.567 28.376 22.991 50.609 39.447 53.295 39.447 1.5 0 10.857-6.15 20.794-13.667 71.164-53.833 121.03-102.39 145.49-141.67 3.1973-5.1333 6.4401-9.7741 7.2064-10.313 2.1496-1.5115 132.43-1.2494 133.37 0.26836 1.2128 1.9624-10.508 29.563-19.505 45.932-14.045 25.552-32.883 52.27-54.796 77.717-14.894 17.295-56.199 57.289-74.805 72.431l-14.866 12.098-285.09 0.53373zm-119.22-412.4c14.561-18.982 38.639-41.208 59.097-54.55 14.221-9.2741 35.585-18.985 54.667-24.848 21.676-6.6603 32.847-8.4561 57.539-9.2499 37.192-1.1956 61.447 3.1424 94.311 16.867 11.589 4.8398 15.092 5.0591 21.965 1.3753 8.0805-4.3309 34.987-12.85 48.851-15.468 19.752-3.729 63.775-3.4504 83.333 0.5274 48.101 9.7826 88.066 31.907 121.13 67.058 5.545 5.8945 12.803 14.295 16.129 18.669l6.0473 7.9517h-569.47z" fill="#8cc32b"/>
   <path d="m780.12 512.03c-18.204-15.145-70.116-66.114-81.354-79.875-3.8222-4.6807-6.45-9.0098-5.8396-9.6202 0.61045-0.61046 38.21-1.1744 83.556-1.2532l82.446-0.1433 6.2007 5.1985c32.458 27.211 70.699 56.329 73.981 56.329 3.067 0 28.429-18.835 59.852-44.45l20.998-17.117 82.341 0.17308c45.288 0.0952 82.799 0.63085 83.358 1.1903 3.0808 3.0809-59.102 66.739-88.798 90.905l-14.866 12.098-285.09 0.53373zm-119.22-412.36c14.561-18.982 38.639-41.208 59.097-54.55 14.221-9.2741 35.585-18.985 54.667-24.848 21.676-6.6603 32.847-8.4561 57.539-9.2499 37.192-1.1956 61.447 3.1424 94.311 16.867 11.589 4.8398 15.092 5.0591 21.965 1.3753 8.0805-4.3309 34.987-12.85 48.851-15.468 19.752-3.729 63.775-3.4504 83.333 0.5274 48.101 9.7826 88.066 31.907 121.13 67.058 5.545 5.8945 12.803 14.295 16.129 18.669l6.0473 7.9517h-569.47z" fill="#fc4633"/>
   <path d="m780.12 512.03c-18.204-15.145-70.116-66.114-81.354-79.875-3.8222-4.6807-6.45-9.0098-5.8396-9.6202 0.61045-0.61046 38.21-1.1744 83.556-1.2532l82.446-0.1433 6.2007 5.1985c32.458 27.211 70.699 56.329 73.981 56.329 3.067 0 28.429-18.835 59.852-44.45l20.998-17.117 82.341 0.17308c45.288 0.0952 82.799 0.63085 83.358 1.1903 3.0808 3.0809-59.102 66.739-88.798 90.905l-14.866 12.098-285.09 0.53373z" fill="#0493d1"/>
  </g>
 </g>
</svg>
