<?xml version="1.0" encoding="UTF-8" standalone="no"?>
<svg
   xmlns:dc="http://purl.org/dc/elements/1.1/"
   xmlns:cc="http://creativecommons.org/ns#"
   xmlns:rdf="http://www.w3.org/1999/02/22-rdf-syntax-ns#"
   xmlns:svg="http://www.w3.org/2000/svg"
   xmlns="http://www.w3.org/2000/svg"
   xmlns:sodipodi="http://sodipodi.sourceforge.net/DTD/sodipodi-0.dtd"
   xmlns:inkscape="http://www.inkscape.org/namespaces/inkscape"
   width="30px"
   height="30px"
   viewBox="0 0 210 297">
  <g
     id="g46"
     transform="matrix(0.36572941,0,0,0.36567009,-44.391498,-11.629362)">
    <path
       style="fill:#e1e1e1;fill-opacity:1"
       d="m 591.8125,186.31689 c 0.72187,-0.28887 1.58438,-0.25335 1.91667,0.0789 0.33229,0.33229 -0.25834,0.56864 -1.3125,0.52522 -1.16495,-0.048 -1.4019,-0.28494 -0.60417,-0.60416 z"
       id="path98" />
    <path
       style="fill:#dfdfdf;fill-opacity:1"
       d="m 638.8125,188.31689 c 0.72187,-0.28887 1.58438,-0.25335 1.91667,0.0789 0.33229,0.33229 -0.25834,0.56864 -1.3125,0.52522 -1.16495,-0.048 -1.4019,-0.28494 -0.60417,-0.60416 z m -68,-2 c 0.72187,-0.28887 1.58438,-0.25335 1.91667,0.0789 0.33229,0.33229 -0.25834,0.56864 -1.3125,0.52522 -1.16495,-0.048 -1.4019,-0.28494 -0.60417,-0.60416 z m 15.4375,-0.006 c 0.9625,-0.25152 2.5375,-0.25152 3.5,0 0.9625,0.25153 0.175,0.45733 -1.75,0.45733 -1.925,0 -2.7125,-0.2058 -1.75,-0.45733 z"
       id="path96" />
    <path
       style="fill:#dcdcdc;fill-opacity:1"
       d="m 788.5,819 c 0.99549,-1.1 2.03498,-2 2.30998,-2 0.275,0 -0.31449,0.9 -1.30998,2 -0.99549,1.1 -2.03498,2 -2.30998,2 -0.275,0 0.31449,-0.9 1.30998,-2 z"
       id="path94" />
    <path
       style="fill:#d8d8d8;fill-opacity:1"
       d="m 549.48428,644.5 c 3e-5,-67.1 0.11956,-94.40266 0.26561,-60.67258 0.14605,33.73008 0.14602,88.63008 -7e-5,122 C 549.60374,739.19734 549.48425,711.6 549.48428,644.5 Z M 549.45312,375 c 0,-20.625 0.13297,-29.0625 0.2955,-18.75 0.16253,10.3125 0.16253,27.1875 0,37.5 -0.16253,10.3125 -0.2955,1.875 -0.2955,-18.75 z m 26.81063,-188.71758 c 1.52006,-0.22986 3.77006,-0.22371 5,0.0136 1.22994,0.23736 -0.0137,0.42542 -2.76375,0.41792 -2.75,-0.008 -3.75631,-0.20172 -2.23625,-0.43157 z"
       id="path92" />
    <path
       style="fill:#d3d3d3;fill-opacity:1"
       d="m 339.46621,467.5 c 1.5e-4,-29.7 0.12761,-41.70574 0.28324,-26.67942 0.15562,15.02632 0.15549,39.32632 -2.9e-4,54 -0.15578,14.67368 -0.28311,2.37942 -0.28295,-27.32058 z m 24.85265,-55.24928 c 13.10037,-0.15798 34.25037,-0.15782 47,3.7e-4 12.74963,0.15819 2.03114,0.28745 -23.81886,0.28724 -25.85,-2e-4 -36.28151,-0.12962 -23.18114,-0.28761 z m 211.93114,-10e-6 c 14.7125,-0.15586 38.7875,-0.15586 53.5,0 14.7125,0.15585 2.675,0.28337 -26.75,0.28337 -29.425,0 -41.4625,-0.12752 -26.75,-0.28337 z m -27.17105,-75.83404 c 0.048,-1.16495 0.28494,-1.4019 0.60416,-0.60417 0.28887,0.72187 0.25335,1.58438 -0.0789,1.91667 -0.33229,0.33229 -0.56864,-0.25834 -0.52522,-1.3125 z"
       id="path90" />
    <path
       style="fill:#cccccc;fill-opacity:1"
       d="M 32.872445,820.25 C 31.628574,818.66394 31.663944,818.62857 33.25,819.87244 34.915748,821.17881 35.445479,822 34.622445,822 c -0.207656,0 -0.995156,-0.7875 -1.75,-1.75 z M 549.07895,333.41667 c 0.048,-1.16495 0.28494,-1.4019 0.60416,-0.60417 0.28887,0.72187 0.25335,1.58438 -0.0789,1.91667 -0.33229,0.33229 -0.56864,-0.25834 -0.52522,-1.3125 z M 789.87244,63.25 C 788.62857,61.663944 788.66394,61.628574 790.25,62.872445 791.91575,64.178814 792.44548,65 791.62244,65 c -0.20765,0 -0.99515,-0.7875 -1.75,-1.75 z"
       id="path88" />
    <path
       style="fill:#c4c4c4;fill-opacity:1"
       d="m 559,303.62244 c 0,-0.20765 0.7875,-0.99515 1.75,-1.75 1.58606,-1.24387 1.62143,-1.2085 0.37756,0.37756 C 559.82119,303.91575 559,304.44548 559,303.62244 Z"
       id="path86" />
    <path
       style="fill:#bdbdbd;fill-opacity:1"
       d="m 435.07895,318.41667 c 0.048,-1.16495 0.28494,-1.4019 0.60416,-0.60417 0.28887,0.72187 0.25335,1.58438 -0.0789,1.91667 -0.33229,0.33229 -0.56864,-0.25834 -0.52522,-1.3125 z"
       id="path84" />
    <path
       style="fill:#b4b4b4;fill-opacity:1"
       d="m 364.31886,522.25072 c 13.10037,-0.15798 34.25037,-0.15782 47,3.7e-4 12.74963,0.15819 2.03114,0.28745 -23.81886,0.28724 -25.85,-2e-4 -36.28151,-0.12962 -23.18114,-0.28761 z m 208.43114,2e-4 c 12.7875,-0.15828 33.7125,-0.15828 46.5,0 12.7875,0.15828 2.325,0.28778 -23.25,0.28778 -25.575,0 -36.0375,-0.1295 -23.25,-0.28778 z"
       id="path82" />
    <path
       style="fill:#b1b1b1;fill-opacity:1"
       d="m 661.46274,240 c 0,-26.675 0.12889,-37.5875 0.28641,-24.25 0.15752,13.3375 0.15752,35.1625 0,48.5 -0.15752,13.3375 -0.28641,2.425 -0.28641,-24.25 z"
       id="path80" />
    <path
       style="fill:#adadad;fill-opacity:1"
       d="m 10.493998,440.5 c 5e-6,-180.4 0.115199,-254.05101 0.255986,-163.66892 0.140787,90.38209 0.140783,237.98209 -9e-6,328 C 10.609183,694.84899 10.493993,620.9 10.493998,440.5 Z M 246.83108,40.250016 c 90.38209,-0.140787 237.98209,-0.140783 328,9e-6 C 664.84899,40.390817 590.9,40.506007 410.5,40.506002 230.1,40.505997 156.44899,40.390803 246.83108,40.250016 Z"
       id="path78" />
    <path
       style="fill:#a3a3a3;fill-opacity:1"
       d="m 610.8125,187.31689 c 0.72187,-0.28887 1.58438,-0.25335 1.91667,0.0789 0.33229,0.33229 -0.25834,0.56864 -1.3125,0.52522 -1.16495,-0.048 -1.4019,-0.28494 -0.60417,-0.60416 z"
       id="path76" />
    <path
       style="fill:#979797;fill-opacity:1"
       d="m 614.75,289.25202 c 8.3875,-0.16726 22.1125,-0.16726 30.5,0 8.3875,0.16726 1.525,0.3041 -15.25,0.3041 -16.775,0 -23.6375,-0.13684 -15.25,-0.3041 z"
       id="path74" />
    <path
       style="fill:#959595;fill-opacity:1"
       d="M 83.497731,440 83.5,113.5 410.25,113.498 737.00001,113.496 410.50152,113.74979 84.003026,114.00303 83.749244,440.25151 83.495462,766.5 Z M 607.8125,187.31689 c 0.72187,-0.28887 1.58438,-0.25335 1.91667,0.0789 0.33229,0.33229 -0.25834,0.56864 -1.3125,0.52522 -1.16495,-0.048 -1.4019,-0.28494 -0.60417,-0.60416 z"
       id="path72" />
    <path
       style="fill:#898989;fill-opacity:1"
       d="m 604.8125,187.31689 c 0.72187,-0.28887 1.58438,-0.25335 1.91667,0.0789 0.33229,0.33229 -0.25834,0.56864 -1.3125,0.52522 -1.16495,-0.048 -1.4019,-0.28494 -0.60417,-0.60416 z"
       id="path70" />
    <path
       style="fill:#7d7d7d;fill-opacity:1"
       d="m 565.8125,187.31689 c 0.72187,-0.28887 1.58438,-0.25335 1.91667,0.0789 0.33229,0.33229 -0.25834,0.56864 -1.3125,0.52522 -1.16495,-0.048 -1.4019,-0.28494 -0.60417,-0.60416 z m 32.94916,-0.0241 c 1.24391,-0.23919 3.04391,-0.23011 4,0.0202 0.95609,0.25029 -0.0617,0.446 -2.26166,0.4349 -2.2,-0.0111 -2.98225,-0.21589 -1.73834,-0.45508 z"
       id="path68" />
    <path
       style="fill:#767676;fill-opacity:1"
       d="m 435.07895,325.41667 c 0.048,-1.16495 0.28494,-1.4019 0.60416,-0.60417 0.28887,0.72187 0.25335,1.58438 -0.0789,1.91667 -0.33229,0.33229 -0.56864,-0.25834 -0.52522,-1.3125 z"
       id="path66" />
    <path
       style="fill:#676767;fill-opacity:1"
       d="m 435.07895,328.41667 c 0.048,-1.16495 0.28494,-1.4019 0.60416,-0.60417 0.28887,0.72187 0.25335,1.58438 -0.0789,1.91667 -0.33229,0.33229 -0.56864,-0.25834 -0.52522,-1.3125 z"
       id="path64" />
    <path
       style="fill:#5e5e5e;fill-opacity:1"
       d="m 591.8125,187.31689 c 0.72187,-0.28887 1.58438,-0.25335 1.91667,0.0789 0.33229,0.33229 -0.25834,0.56864 -1.3125,0.52522 -1.16495,-0.048 -1.4019,-0.28494 -0.60417,-0.60416 z"
       id="path62" />
    <path
       style="fill:#575757;fill-opacity:1"
       d="m 171.82918,767.25006 c 48.58106,-0.14353 127.78106,-0.14351 176,3e-5 48.21895,0.14353 8.47082,0.26096 -88.32918,0.26095 -96.8,-2e-5 -136.25187,-0.11746 -87.67082,-0.26098 z m 471.91931,0.003 93.24848,-0.26281 0.25379,-326.49488 0.25379,-326.49488 -0.002,326.75001 -0.002,326.75 -93.5,0.008 -93.5,0.008 93.24849,-0.26282 z M 435.48428,644.5 c 3e-5,-67.1 0.11956,-94.40266 0.26561,-60.67258 0.14605,33.73008 0.14602,88.63008 -7e-5,122 -0.14608,33.36992 -0.26557,5.77258 -0.26554,-61.32742 z m -0.0276,-273 c -2.6e-4,-22.55 0.13111,-31.91763 0.29192,-20.81697 0.16082,11.10067 0.16103,29.55067 4.7e-4,41 -0.16055,11.44934 -0.29213,2.36697 -0.29239,-20.18303 z M 586.25,187.31067 c 0.9625,-0.25152 2.5375,-0.25152 3.5,0 0.9625,0.25153 0.175,0.45733 -1.75,0.45733 -1.925,0 -2.7125,-0.2058 -1.75,-0.45733 z"
       id="path60" />
    <path
       style="fill:#525252;fill-opacity:1"
       d="m 582.8125,187.31689 c 0.72187,-0.28887 1.58438,-0.25335 1.91667,0.0789 0.33229,0.33229 -0.25834,0.56864 -1.3125,0.52522 -1.16495,-0.048 -1.4019,-0.28494 -0.60417,-0.60416 z"
       id="path58" />
    <path
       style="fill:#4d4d4d;fill-opacity:1"
       d="m 575.75,187.29427 c 1.2375,-0.23836 3.2625,-0.23836 4.5,0 1.2375,0.23835 0.225,0.43337 -2.25,0.43337 -2.475,0 -3.4875,-0.19502 -2.25,-0.43337 z"
       id="path56" />
    <path
       style="fill:#434343;fill-opacity:1"
       d="m 363.75,413.25092 c 12.7875,-0.15828 33.7125,-0.15828 46.5,0 12.7875,0.15828 2.325,0.28778 -23.25,0.28778 -25.575,0 -36.0375,-0.1295 -23.25,-0.28778 z m 212.57036,-3.5e-4 c 14.7512,-0.15592 38.6012,-0.15579 53,3e-4 14.3988,0.15609 2.32964,0.28367 -26.82036,0.2835 -29.15,-1.6e-4 -40.93084,-0.12787 -26.17964,-0.2838 z"
       id="path54" />
    <path
       style="fill:#414141;fill-opacity:1"
       d="m 623.8125,188.31689 c 0.72187,-0.28887 1.58438,-0.25335 1.91667,0.0789 0.33229,0.33229 -0.25834,0.56864 -1.3125,0.52522 -1.16495,-0.048 -1.4019,-0.28494 -0.60417,-0.60416 z"
       id="path52" />
    <path
       style="fill:#3a3a3a;fill-opacity:1"
       d="m 548.48434,645 c 0,-67.375 0.11948,-94.9375 0.26552,-61.25 0.14603,33.6875 0.14603,88.8125 0,122.5 -0.14604,33.6875 -0.26552,6.125 -0.26552,-61.25 z m -0.0323,-269 c 0,-20.075 0.13345,-28.2875 0.29656,-18.25 0.16311,10.0375 0.16311,26.4625 0,36.5 -0.16311,10.0375 -0.29656,1.825 -0.29656,-18.25 z"
       id="path50" />
    <path
       style="fill:#333333;fill-opacity:1"
       d="M 76.5,839.32356 C 45.994665,835.38839 21.271187,814.14341 13.281892,785 11.589014,778.8247 11.5,761.59041 11.5,440 V 101.5 l 2.347057,-7.474777 C 17.007052,83.961448 20.162876,77.875722 26.663435,69.309978 35.574725,57.567628 48.600196,48.690469 64.025223,43.847057 L 71.5,41.5 H 410 c 321.59041,0 338.8247,0.08901 345,1.781892 26.33508,7.219428 46.84751,28.740487 53.23603,55.85374 C 809.24149,103.40285 809.5,173.11818 809.5,440 c 0,322.72339 -0.0703,335.80006 -1.84697,343.37927 -5.9975,25.58563 -26.27356,46.47685 -52.29813,53.88481 L 747.5,839.5 l -334,0.10528 c -183.7,0.0579 -335.35,-0.0689 -337,-0.28172 z M 435.75395,644.7597 436.0079,522.0194 388.25395,521.7597 340.5,521.5 340.24132,467.7597 339.98264,414.0194 387.74132,413.7597 435.5,413.5 436.12005,360 c 0.34103,-29.425 0.92193,-54.85 1.2909,-56.5 0.36896,-1.65 1.15579,-5.7 1.74851,-9 3.43473,-19.12315 11.48696,-38.92892 22.02365,-54.17078 6.21753,-8.99397 21.52682,-23.89233 30.49436,-29.67582 14.79867,-9.5442 29.64118,-15.53508 48.82253,-19.70623 8.56295,-1.86208 14.18855,-2.24563 39.14691,-2.66899 26.16378,-0.44381 67.72037,0.83503 77.60309,2.38812 l 3.75,0.58932 v 48.78158 48.78159 l -38.25,0.38102 -38.25,0.38102 -7.94605,2.76833 c -18.60053,6.48025 -25.42103,16.55129 -27.53032,40.65084 -1.08269,12.37021 -1.42071,76.80166 -0.41664,79.41821 0.54301,1.41506 6.23505,1.58179 54,1.58179 29.36615,0 53.39301,0.38253 53.39301,0.85007 0,2.11594 -13.05961,104.7887 -13.46884,105.89002 -0.35575,0.95741 -11.12556,1.29934 -47.24597,1.5 L 548.5,522.5 V 645 767.5 H 643 737.5 L 737.75151,440.25 738.00302,113 H 410.50151 83 V 440.50278 768.00556 L 259.25,767.75278 435.5,767.5 Z"
       id="path48" />
  </g>
  <path
     style="fill:#e6e6e6;stroke-width:0.0544218"
     d="M 3.203955,39.647416 C 1.9854969,39.327964 1.0055779,38.422331 0.61172687,37.251701 L 0.49271289,36.897959 0.47470412,20.18955 0.45669535,3.4811415 0.62745795,2.9973346 C 0.8492235,2.3690256 1.1396619,1.9163356 1.5990444,1.4829774 2.0234832,1.0825833 2.3877991,0.86125287 2.9556243,0.65882302 L 3.3534255,0.5170068 19.880795,0.5193966 c 9.090052,0.001314 16.704599,0.0229332 16.921215,0.0480418 0.703866,0.0815874 1.598795,0.6097406 2.110101,1.2453025 0.318256,0.3955971 0.654864,1.0878261 0.732797,1.506987 0.04405,0.2369188 0.0563,4.896732 0.04464,16.9795921 l -0.01608,16.653061 -0.145281,0.397648 c -0.391553,1.071721 -1.248221,1.882061 -2.394927,2.265413 l -0.417758,0.13966 -16.561833,-0.003 C 4.159927,39.749212 3.5785319,39.745621 3.203955,39.647416 Z m 18.156589,-9.434697 v -6.059388 l -1.102041,-0.03571 c -0.606122,-0.01964 -1.659183,-0.03577 -2.340136,-0.03585 l -1.238095,-1.43e-4 v -2.612245 -2.612245 h 1.433485 c 0.788417,0 1.837453,-0.01593 2.331192,-0.03541 l 0.897706,-0.0354 0.05696,-2.780922 c 0.05549,-2.708936 0.06057,-2.79511 0.196223,-3.32901 0.359001,-1.412928 0.849137,-2.300666 1.759067,-3.186039 0.913951,-0.8892854 2.0097,-1.4249056 3.385704,-1.6549899 0.491195,-0.082134 0.845255,-0.089602 2.936178,-0.061931 1.307696,0.017306 2.457222,0.047529 2.554501,0.067161 l 0.17687,0.035696 v 2.3883809 2.388381 h -1.872901 -1.872901 l -0.43605,0.166512 c -0.490805,0.18742 -0.878189,0.490734 -1.045427,0.818547 -0.260766,0.511145 -0.289728,0.811503 -0.293236,3.041099 l -0.0033,2.094185 0.217687,0.03873 c 0.119728,0.0213 1.301361,0.04014 2.62585,0.04187 l 2.408161,0.0031 v 0.14991 c 0,0.08245 -0.123744,1.117144 -0.274987,2.29932 -0.151243,1.182175 -0.292062,2.284103 -0.31293,2.448729 l -0.03794,0.29932 -0.408159,0.0337 c -0.224487,0.01854 -1.271424,0.0369 -2.326526,0.04082 l -1.918367,0.0071 v 6.068028 6.068027 h 4.671245 4.671246 l 0.03622,-11.306123 c 0.01992,-6.218367 0.03623,-13.479591 0.03624,-16.1360542 L 36.272109,4 H 20.108844 3.9455782 v 16.136054 16.136055 h 8.7074828 8.707483 z"
     id="path37"
     transform="matrix(7.425,0,0,7.425,-43.5,0)" />
</svg>
