<?xml version="1.0" encoding="UTF-8" standalone="no"?>
<svg
   xmlns:dc="http://purl.org/dc/elements/1.1/"
   xmlns:cc="http://creativecommons.org/ns#"
   xmlns:rdf="http://www.w3.org/1999/02/22-rdf-syntax-ns#"
   xmlns:svg="http://www.w3.org/2000/svg"
   xmlns="http://www.w3.org/2000/svg"
   xmlns:sodipodi="http://sodipodi.sourceforge.net/DTD/sodipodi-0.dtd"
   xmlns:inkscape="http://www.inkscape.org/namespaces/inkscape"
   width="40px"
   height="40px"
   viewBox="0 0 40 40">
    <g
       id="g201"
       transform="matrix(0.26458333,0,0,0.26458333,-3.4017824,45.344809)">
      <path
         style="fill:#e3e3e3;fill-opacity:1"
         d="m 161.48548,250 c 0,-72.875 0.11898,-102.6875 0.2644,-66.25 0.14542,36.4375 0.14542,96.0625 0,132.5 -0.14542,36.4375 -0.2644,6.625 -0.2644,-66.25 z"
         id="path265" />
      <path
         style="fill:#e0e0e0;fill-opacity:1"
         d="m 555,129.62244 c 0,-0.20765 0.7875,-0.99515 1.75,-1.75 1.58606,-1.24387 1.62143,-1.2085 0.37756,0.37756 C 555.82119,129.91575 555,130.44548 555,129.62244 Z"
         id="path263" />
      <path
         style="fill:#dedede;fill-opacity:1"
         d="m 307,345.62244 c 0,-0.20765 0.7875,-0.99515 1.75,-1.75 1.58606,-1.24387 1.62143,-1.2085 0.37756,0.37756 C 307.82119,345.91575 307,346.44548 307,345.62244 Z M 510.87244,344.25 c -1.24387,-1.58606 -1.2085,-1.62143 0.37756,-0.37756 0.9625,0.75485 1.75,1.54235 1.75,1.75 0,0.82304 -0.82119,0.29331 -2.12756,-1.37244 z m 44.53255,-50.5 -1.90499,-2.25 2.25,1.90499 c 2.11444,1.79022 2.70524,2.59501 1.90499,2.59501 -0.18976,0 -1.20226,-1.0125 -2.25,-2.25 z"
         id="path261" />
      <path
         style="fill:#dadada;fill-opacity:1"
         d="m 395.8125,306.31689 c 0.72187,-0.28887 1.58438,-0.25335 1.91667,0.0789 0.33229,0.33229 -0.25834,0.56864 -1.3125,0.52522 -1.16495,-0.048 -1.4019,-0.28494 -0.60417,-0.60416 z"
         id="path259" />
      <path
         style="fill:#d3d3d3;fill-opacity:1"
         d="m 398.8125,306.31689 c 0.72187,-0.28887 1.58438,-0.25335 1.91667,0.0789 0.33229,0.33229 -0.25834,0.56864 -1.3125,0.52522 -1.16495,-0.048 -1.4019,-0.28494 -0.60417,-0.60416 z m 21,0 c 0.72187,-0.28887 1.58438,-0.25335 1.91667,0.0789 0.33229,0.33229 -0.25834,0.56864 -1.3125,0.52522 -1.16495,-0.048 -1.4019,-0.28494 -0.60417,-0.60416 z"
         id="path257" />
      <path
         style="fill:#cfcfcf;fill-opacity:1"
         d="m 548.87244,330.25 c -1.24387,-1.58606 -1.2085,-1.62143 0.37756,-0.37756 1.66575,1.30637 2.19548,2.12756 1.37244,2.12756 -0.20765,0 -0.99515,-0.7875 -1.75,-1.75 z"
         id="path255" />
      <path
         style="fill:#c8c8c8;fill-opacity:1"
         d="m 303,349.62244 c 0,-0.20765 0.7875,-0.99515 1.75,-1.75 1.58606,-1.24387 1.62143,-1.2085 0.37756,0.37756 C 303.82119,349.91575 303,350.44548 303,349.62244 Z"
         id="path253" />
      <path
         style="fill:#c2c2c2;fill-opacity:1"
         d="m 519,565.62244 c 0,-0.20765 0.7875,-0.99515 1.75,-1.75 1.58606,-1.24387 1.62143,-1.2085 0.37756,0.37756 C 519.82119,565.91575 519,566.44548 519,565.62244 Z"
         id="path251" />
      <path
         style="fill:#bebebe;fill-opacity:1"
         d="m 733.46621,211.5 c 1.5e-4,-29.7 0.12761,-41.70574 0.28324,-26.67942 0.15562,15.02632 0.15549,39.32632 -2.9e-4,54 -0.15578,14.67368 -0.28311,2.37942 -0.28295,-27.32058 z"
         id="path249" />
      <path
         style="fill:#bcbcbc;fill-opacity:1"
         d="m 275,325.62244 c 0,-0.20765 0.7875,-0.99515 1.75,-1.75 1.58606,-1.24387 1.62143,-1.2085 0.37756,0.37756 C 275.82119,325.91575 275,326.44548 275,325.62244 Z"
         id="path247" />
      <path
         style="fill:#b9b9b9;fill-opacity:1"
         d="m 134.25,116.25543 c 4.8125,-0.18331 12.6875,-0.18331 17.5,0 4.8125,0.18332 0.875,0.3333 -8.75,0.3333 -9.625,0 -13.5625,-0.14998 -8.75,-0.3333 z m 79,10e-4 c 4.2625,-0.18745 11.2375,-0.18745 15.5,0 4.2625,0.18745 0.775,0.34082 -7.75,0.34082 -8.525,0 -12.0125,-0.15337 -7.75,-0.34082 z m 397.5,-0.006 c 14.9875,-0.15555 39.5125,-0.15555 54.5,0 14.9875,0.15556 2.725,0.28283 -27.25,0.28283 -29.975,0 -42.2375,-0.12727 -27.25,-0.28283 z"
         id="path245" />
      <path
         style="fill:#b8b8b8;fill-opacity:1"
         d="m 301.87244,567.25 c -1.24387,-1.58606 -1.2085,-1.62143 0.37756,-0.37756 1.66575,1.30637 2.19548,2.12756 1.37244,2.12756 -0.20765,0 -0.99515,-0.7875 -1.75,-1.75 z"
         id="path243" />
      <path
         style="fill:#b5b5b5;fill-opacity:1"
         d="m 272,328.62244 c 0,-0.20765 0.7875,-0.99515 1.75,-1.75 1.58606,-1.24387 1.62143,-1.2085 0.37756,0.37756 C 272.82119,328.91575 272,329.44548 272,328.62244 Z"
         id="path241" />
      <path
         style="fill:#ababab;fill-opacity:1"
         d="m 720.87244,128.25 c -1.24387,-1.58606 -1.2085,-1.62143 0.37756,-0.37756 1.66575,1.30637 2.19548,2.12756 1.37244,2.12756 -0.20765,0 -0.99515,-0.7875 -1.75,-1.75 z"
         id="path239" />
      <path
         style="fill:#a3a3a3;fill-opacity:1"
         d="m 287.75,725.25004 c 67.7875,-0.14185 178.7125,-0.14185 246.5,0 67.7875,0.14185 12.325,0.2579 -123.25,0.2579 -135.575,0 -191.0375,-0.11605 -123.25,-0.2579 z M 124.49314,403 c 0,-157.575 0.11558,-222.0375 0.25683,-143.25 0.14126,78.7875 0.14126,207.7125 0,286.5 -0.14125,78.7875 -0.25683,14.325 -0.25683,-143.25 z m 570.99418,133 c 0,-83.875 0.11816,-118.1875 0.26259,-76.25 0.14442,41.9375 0.14442,110.5625 0,152.5 -0.14443,41.9375 -0.26259,7.625 -0.26259,-76.25 z"
         id="path237" />
      <path
         style="fill:#9e9e9e;fill-opacity:1"
         d="m 610.32036,306.25057 c 14.7512,-0.15592 38.6012,-0.15579 53,3e-4 14.3988,0.15609 2.32964,0.28367 -26.82036,0.2835 -29.15,-1.6e-4 -40.93084,-0.12787 -26.17964,-0.2838 z m 80.49214,0.0663 c 0.72187,-0.28887 1.58438,-0.25335 1.91667,0.0789 0.33229,0.33229 -0.25834,0.56864 -1.3125,0.52522 -1.16495,-0.048 -1.4019,-0.28494 -0.60417,-0.60416 z"
         id="path235" />
      <path
         style="fill:#9b9b9b;fill-opacity:1"
         d="m 404.8125,611.31689 c 0.72187,-0.28887 1.58438,-0.25335 1.91667,0.0789 0.33229,0.33229 -0.25834,0.56864 -1.3125,0.52522 -1.16495,-0.048 -1.4019,-0.28494 -0.60417,-0.60416 z m 9,0 c 0.72187,-0.28887 1.58438,-0.25335 1.91667,0.0789 0.33229,0.33229 -0.25834,0.56864 -1.3125,0.52522 -1.16495,-0.048 -1.4019,-0.28494 -0.60417,-0.60416 z"
         id="path233" />
      <path
         style="fill:#939393;fill-opacity:1"
         d="m 543.46677,211.5 c -1.5e-4,-30.25 0.12694,-42.76936 0.28242,-27.82079 0.15548,14.94856 0.15561,39.69856 2.8e-4,55 -0.15534,15.30143 -0.28255,3.07079 -0.2827,-27.17921 z"
         id="path231" />
      <path
         style="fill:#8e8e8e;fill-opacity:1"
         d="m 408.75,611.33772 c 0.6875,-0.27741 1.8125,-0.27741 2.5,0 0.6875,0.27741 0.125,0.50439 -1.25,0.50439 -1.375,0 -1.9375,-0.22698 -1.25,-0.50439 z"
         id="path229" />
      <path
         style="fill:#898989;fill-opacity:1"
         d="m 238.4851,245.5 c -3e-5,-70.95 0.1191,-100.12248 0.26474,-64.82773 0.14564,35.29475 0.14567,93.34475 6e-5,129 -0.14561,35.65525 -0.26477,6.77773 -0.2648,-64.17227 z M 555,128.5 c 1.29175,-1.375 2.57363,-2.5 2.84863,-2.5 0.275,0 -0.55688,1.125 -1.84863,2.5 -1.29175,1.375 -2.57363,2.5 -2.84863,2.5 -0.275,0 0.55688,-1.125 1.84863,-2.5 z"
         id="path227" />
      <path
         style="fill:#7c7c7c;fill-opacity:1"
         d="m 554.87244,294.25 c -1.24387,-1.58606 -1.2085,-1.62143 0.37756,-0.37756 0.9625,0.75485 1.75,1.54235 1.75,1.75 0,0.82304 -0.82119,0.29331 -2.12756,-1.37244 z"
         id="path225" />
      <path
         style="fill:#797979;fill-opacity:1"
         d="m 200.48548,249 c 0,-72.875 0.11898,-102.6875 0.2644,-66.25 0.14542,36.4375 0.14542,96.0625 0,132.5 -0.14542,36.4375 -0.2644,6.625 -0.2644,-66.25 z m 380.59347,-39.58333 c 0.048,-1.16495 0.28494,-1.4019 0.60416,-0.60417 0.28887,0.72187 0.25335,1.58437 -0.0789,1.91667 -0.33229,0.33229 -0.56864,-0.25834 -0.52522,-1.3125 z"
         id="path223" />
      <path
         style="fill:#6f6f6f;fill-opacity:1"
         d="m 162.48532,250.5 c 3e-5,-72.05 0.11909,-101.37749 0.26458,-65.17219 0.14549,36.2053 0.14547,95.1553 -5e-5,131 -0.14552,35.8447 -0.26456,6.22219 -0.26453,-65.82781 z"
         id="path221" />
      <path
         style="fill:#6d6d6d;fill-opacity:1"
         d="m 408.75,268.33772 c 0.6875,-0.27741 1.8125,-0.27741 2.5,0 0.6875,0.27741 0.125,0.50439 -1.25,0.50439 -1.375,0 -1.9375,-0.22698 -1.25,-0.50439 z"
         id="path219" />
      <path
         style="fill:#696969;fill-opacity:1"
         d="m 405.8125,268.31689 c 0.72187,-0.28887 1.58438,-0.25335 1.91667,0.0789 0.33229,0.33229 -0.25834,0.56864 -1.3125,0.52522 -1.16495,-0.048 -1.4019,-0.28494 -0.60417,-0.60416 z"
         id="path217" />
      <path
         style="fill:#646464;fill-opacity:1"
         d="m 548.87244,329.25 c -1.24387,-1.58606 -1.2085,-1.62143 0.37756,-0.37756 1.66575,1.30637 2.19548,2.12756 1.37244,2.12756 -0.20765,0 -0.99515,-0.7875 -1.75,-1.75 z"
         id="path215" />
      <path
         style="fill:#5f5f5f;fill-opacity:1"
         d="m 297,356.62244 c 0,-0.20765 0.7875,-0.99515 1.75,-1.75 1.58606,-1.24387 1.62143,-1.2085 0.37756,0.37756 C 297.82119,356.91575 297,357.44548 297,356.62244 Z"
         id="path213" />
      <path
         style="fill:#535353;fill-opacity:1"
         d="m 514.87244,349.25 c -1.24387,-1.58606 -1.2085,-1.62143 0.37756,-0.37756 0.9625,0.75485 1.75,1.54235 1.75,1.75 0,0.82304 -0.82119,0.29331 -2.12756,-1.37244 z"
         id="path211" />
      <path
         style="fill:#494949;fill-opacity:1"
         d="m 299.87244,564.25 c -1.24387,-1.58606 -1.2085,-1.62143 0.37756,-0.37756 0.9625,0.75485 1.75,1.54235 1.75,1.75 0,0.82304 -0.82119,0.29331 -2.12756,-1.37244 z"
         id="path209" />
      <path
         style="fill:#434343;fill-opacity:1"
         d="m 302.87244,567.25 c -1.24387,-1.58606 -1.2085,-1.62143 0.37756,-0.37756 1.66575,1.30637 2.19548,2.12756 1.37244,2.12756 -0.20765,0 -0.99515,-0.7875 -1.75,-1.75 z"
         id="path207" />
      <path
         style="fill:#3c3c3c;fill-opacity:1"
         d="m 761.5,798 c 0.99549,-1.1 2.03498,-2 2.30998,-2 0.275,0 -0.31449,0.9 -1.30998,2 -0.99549,1.1 -2.03498,2 -2.30998,2 -0.275,0 0.31449,-0.9 1.30998,-2 z M 761.40499,81.75 759.5,79.5 l 2.25,1.904988 c 1.2375,1.047743 2.25,2.060243 2.25,2.25 0,0.800253 -0.80479,0.209457 -2.59501,-1.904988 z"
         id="path205" />
      <path
         style="fill:#333333;fill-opacity:1"
         d="m 151.5,839.30925 c -10.9241,-1.0187 -28.3787,-4.68165 -37.64555,-7.90013 C 59.77633,812.62718 21.824822,767.76587 12.336422,711.40777 10.587141,701.01759 10.5,688.13894 10.5,440 10.5,189.09667 10.569629,179.09477 12.390076,168.5 18.590042,132.417 34.770152,103.16047 62.17702,78.476327 82.878027,59.831851 109.07379,47.446237 138.5,42.390076 149.0955,40.569503 159.11606,40.5 411,40.5 h 261.5 l 11.81799,2.307352 C 748.14855,55.269673 795.50434,102.86138 807.25267,166.35445 L 809.5,178.5 V 440 701.5 l -2.24733,12.14555 c -11.69851,63.22382 -58.61929,110.57172 -122.41364,123.52799 l -11.33903,2.30289 -259,0.10292 c -142.45,0.0566 -260.8,-0.0649 -263,-0.2701 z M 673.46767,722.56996 c 7.13061,-3.50104 13.74265,-9.36634 17.1898,-15.24845 5.54666,-9.46466 5.31782,-2.18525 5.33066,-169.57151 L 696,383 641.25,382.9847 c -30.1125,-0.008 -55.25612,-0.34592 -55.87472,-0.75 C 584.75669,381.83061 582.2163,377.45 579.72997,372.5 550.9103,315.1233 494.06837,276.16852 428.78941,269.05776 355.52212,261.07684 281.12438,300.01799 244.5,365.51822 l -5,8.94217 -0.25376,-129.2302 L 238.99248,116 H 219.49989 200.0073 L 199.75365,249.25 199.5,382.5 h -18 -18 L 163.24635,249.25 162.9927,116 h -19.50474 -19.50474 l 0.25839,290.75 0.25839,290.75 2.93004,5.96767 c 5.1854,10.56119 14.06502,18.20632 24.50566,21.09878 3.63173,1.00613 56.76788,1.23068 260.0643,1.09902 L 667.5,725.5 Z M 392.00012,609.84746 C 361.52252,606.66777 329.05723,591.41714 306.12026,569.50524 281.97517,546.43921 267.81685,520.94599 260.85422,488 c -3.28993,-15.56739 -3.27381,-41.96131 0.0354,-58 11.25391,-54.54375 49.66137,-98.09684 101.61036,-115.22358 17.51586,-5.77469 33.92073,-8.12482 52,-7.4494 38.53692,1.43968 71.89646,15.23552 99.11535,40.98917 24.16007,22.8595 38.81211,49.17427 45.48147,81.68381 3.28424,16.00893 3.30714,42.52248 0.0499,57.77344 -5.61425,26.28696 -15.72404,47.9521 -31.05633,66.5533 -33.90591,41.1348 -82.79673,61.08078 -136.09028,55.52072 z M 701.79141,305.96121 c 11.53857,-2.66159 23.8664,-12.71814 28.98383,-23.64386 L 733.5,276.5 v -65 -65 l -2.70861,-5.78085 C 727.00524,132.63857 718.159,123.67398 710.06002,119.71041 L 703.5,116.5 l -63,-0.28558 c -62.50546,-0.28335 -63.0471,-0.26854 -69,1.88578 -11.46964,4.1508 -19.53982,11.54407 -24.86179,22.77642 L 543.5,147.5 v 64 64 l 3.18498,6.72333 c 5.48715,11.58309 16.60994,21.00621 27.93276,23.66437 5.3779,1.26251 121.72751,1.32977 127.17367,0.0735 z m -75.07988,-39.10267 c -9.90338,-1.89813 -20.57262,-7.92865 -28.75557,-16.25335 -26.36504,-26.82179 -18.69614,-72.59766 14.98679,-89.4565 10.23873,-5.12464 17.1089,-6.51935 29.0528,-5.89797 C 672.09878,156.81681 695,181.12 695,211.5 c 0,21.62991 -11.90683,40.84991 -31.15133,50.28444 -11.99234,5.87919 -24.21993,7.54987 -37.13714,5.0741 z"
         id="path203" />
    </g>
  </g>
</svg>
