<?xml version="1.0" encoding="UTF-8" standalone="no"?>
<svg
   xmlns:dc="http://purl.org/dc/elements/1.1/"
   xmlns:cc="http://creativecommons.org/ns#"
   xmlns:rdf="http://www.w3.org/1999/02/22-rdf-syntax-ns#"
   xmlns:svg="http://www.w3.org/2000/svg"
   xmlns="http://www.w3.org/2000/svg"
   xmlns:sodipodi="http://sodipodi.sourceforge.net/DTD/sodipodi-0.dtd"
   xmlns:inkscape="http://www.inkscape.org/namespaces/inkscape"
   width="39px"
   height="39px"
   viewBox="0 0 210 297">
  <g
     id="g201"
     transform="matrix(0.26495102,0,0,0.26679363,-3.7567049,43.25951)"
     style="fill:#cccccc">
    <path
       style="fill:#cccccc;fill-opacity:1"
       d="m 161.48548,250 c 0,-72.875 0.11898,-102.6875 0.2644,-66.25 0.14542,36.4375 0.14542,96.0625 0,132.5 -0.14542,36.4375 -0.2644,6.625 -0.2644,-66.25 z"
       id="path265" />
    <path
       style="fill:#cccccc;fill-opacity:1"
       d="m 555,129.62244 c 0,-0.20765 0.7875,-0.99515 1.75,-1.75 1.58606,-1.24387 1.62143,-1.2085 0.37756,0.37756 C 555.82119,129.91575 555,130.44548 555,129.62244 Z"
       id="path263" />
    <path
       style="fill:#cccccc;fill-opacity:1"
       d="m 307,345.62244 c 0,-0.20765 0.7875,-0.99515 1.75,-1.75 1.58606,-1.24387 1.62143,-1.2085 0.37756,0.37756 C 307.82119,345.91575 307,346.44548 307,345.62244 Z M 510.87244,344.25 c -1.24387,-1.58606 -1.2085,-1.62143 0.37756,-0.37756 0.9625,0.75485 1.75,1.54235 1.75,1.75 0,0.82304 -0.82119,0.29331 -2.12756,-1.37244 z m 44.53255,-50.5 -1.90499,-2.25 2.25,1.90499 c 2.11444,1.79022 2.70524,2.59501 1.90499,2.59501 -0.18976,0 -1.20226,-1.0125 -2.25,-2.25 z"
       id="path261" />
    <path
       style="fill:#cccccc;fill-opacity:1"
       d="m 395.8125,306.31689 c 0.72187,-0.28887 1.58438,-0.25335 1.91667,0.0789 0.33229,0.33229 -0.25834,0.56864 -1.3125,0.52522 -1.16495,-0.048 -1.4019,-0.28494 -0.60417,-0.60416 z"
       id="path259" />
    <path
       style="fill:#cccccc;fill-opacity:1"
       d="m 398.8125,306.31689 c 0.72187,-0.28887 1.58438,-0.25335 1.91667,0.0789 0.33229,0.33229 -0.25834,0.56864 -1.3125,0.52522 -1.16495,-0.048 -1.4019,-0.28494 -0.60417,-0.60416 z m 21,0 c 0.72187,-0.28887 1.58438,-0.25335 1.91667,0.0789 0.33229,0.33229 -0.25834,0.56864 -1.3125,0.52522 -1.16495,-0.048 -1.4019,-0.28494 -0.60417,-0.60416 z"
       id="path257" />
    <path
       style="fill:#cccccc;fill-opacity:1"
       d="m 548.87244,330.25 c -1.24387,-1.58606 -1.2085,-1.62143 0.37756,-0.37756 1.66575,1.30637 2.19548,2.12756 1.37244,2.12756 -0.20765,0 -0.99515,-0.7875 -1.75,-1.75 z"
       id="path255" />
    <path
       style="fill:#cccccc;fill-opacity:1"
       d="m 303,349.62244 c 0,-0.20765 0.7875,-0.99515 1.75,-1.75 1.58606,-1.24387 1.62143,-1.2085 0.37756,0.37756 C 303.82119,349.91575 303,350.44548 303,349.62244 Z"
       id="path253" />
    <path
       style="fill:#cccccc;fill-opacity:1"
       d="m 519,565.62244 c 0,-0.20765 0.7875,-0.99515 1.75,-1.75 1.58606,-1.24387 1.62143,-1.2085 0.37756,0.37756 C 519.82119,565.91575 519,566.44548 519,565.62244 Z"
       id="path251" />
    <path
       style="fill:#cccccc;fill-opacity:1"
       d="m 733.46621,211.5 c 1.5e-4,-29.7 0.12761,-41.70574 0.28324,-26.67942 0.15562,15.02632 0.15549,39.32632 -2.9e-4,54 -0.15578,14.67368 -0.28311,2.37942 -0.28295,-27.32058 z"
       id="path249" />
    <path
       style="fill:#cccccc;fill-opacity:1"
       d="m 275,325.62244 c 0,-0.20765 0.7875,-0.99515 1.75,-1.75 1.58606,-1.24387 1.62143,-1.2085 0.37756,0.37756 C 275.82119,325.91575 275,326.44548 275,325.62244 Z"
       id="path247" />
    <path
       style="fill:#cccccc;fill-opacity:1"
       d="m 134.25,116.25543 c 4.8125,-0.18331 12.6875,-0.18331 17.5,0 4.8125,0.18332 0.875,0.3333 -8.75,0.3333 -9.625,0 -13.5625,-0.14998 -8.75,-0.3333 z m 79,10e-4 c 4.2625,-0.18745 11.2375,-0.18745 15.5,0 4.2625,0.18745 0.775,0.34082 -7.75,0.34082 -8.525,0 -12.0125,-0.15337 -7.75,-0.34082 z m 397.5,-0.006 c 14.9875,-0.15555 39.5125,-0.15555 54.5,0 14.9875,0.15556 2.725,0.28283 -27.25,0.28283 -29.975,0 -42.2375,-0.12727 -27.25,-0.28283 z"
       id="path245" />
    <path
       style="fill:#cccccc;fill-opacity:1"
       d="m 301.87244,567.25 c -1.24387,-1.58606 -1.2085,-1.62143 0.37756,-0.37756 1.66575,1.30637 2.19548,2.12756 1.37244,2.12756 -0.20765,0 -0.99515,-0.7875 -1.75,-1.75 z"
       id="path243" />
    <path
       style="fill:#cccccc;fill-opacity:1"
       d="m 272,328.62244 c 0,-0.20765 0.7875,-0.99515 1.75,-1.75 1.58606,-1.24387 1.62143,-1.2085 0.37756,0.37756 C 272.82119,328.91575 272,329.44548 272,328.62244 Z"
       id="path241" />
    <path
       style="fill:#cccccc;fill-opacity:1"
       d="m 720.87244,128.25 c -1.24387,-1.58606 -1.2085,-1.62143 0.37756,-0.37756 1.66575,1.30637 2.19548,2.12756 1.37244,2.12756 -0.20765,0 -0.99515,-0.7875 -1.75,-1.75 z"
       id="path239" />
    <path
       style="fill:#cccccc;fill-opacity:1"
       d="m 287.75,725.25004 c 67.7875,-0.14185 178.7125,-0.14185 246.5,0 67.7875,0.14185 12.325,0.2579 -123.25,0.2579 -135.575,0 -191.0375,-0.11605 -123.25,-0.2579 z M 124.49314,403 c 0,-157.575 0.11558,-222.0375 0.25683,-143.25 0.14126,78.7875 0.14126,207.7125 0,286.5 -0.14125,78.7875 -0.25683,14.325 -0.25683,-143.25 z m 570.99418,133 c 0,-83.875 0.11816,-118.1875 0.26259,-76.25 0.14442,41.9375 0.14442,110.5625 0,152.5 -0.14443,41.9375 -0.26259,7.625 -0.26259,-76.25 z"
       id="path237" />
    <path
       style="fill:#cccccc;fill-opacity:1"
       d="m 610.32036,306.25057 c 14.7512,-0.15592 38.6012,-0.15579 53,3e-4 14.3988,0.15609 2.32964,0.28367 -26.82036,0.2835 -29.15,-1.6e-4 -40.93084,-0.12787 -26.17964,-0.2838 z m 80.49214,0.0663 c 0.72187,-0.28887 1.58438,-0.25335 1.91667,0.0789 0.33229,0.33229 -0.25834,0.56864 -1.3125,0.52522 -1.16495,-0.048 -1.4019,-0.28494 -0.60417,-0.60416 z"
       id="path235" />
    <path
       style="fill:#cccccc;fill-opacity:1"
       d="m 404.8125,611.31689 c 0.72187,-0.28887 1.58438,-0.25335 1.91667,0.0789 0.33229,0.33229 -0.25834,0.56864 -1.3125,0.52522 -1.16495,-0.048 -1.4019,-0.28494 -0.60417,-0.60416 z m 9,0 c 0.72187,-0.28887 1.58438,-0.25335 1.91667,0.0789 0.33229,0.33229 -0.25834,0.56864 -1.3125,0.52522 -1.16495,-0.048 -1.4019,-0.28494 -0.60417,-0.60416 z"
       id="path233" />
    <path
       style="fill:#cccccc;fill-opacity:1"
       d="m 543.46677,211.5 c -1.5e-4,-30.25 0.12694,-42.76936 0.28242,-27.82079 0.15548,14.94856 0.15561,39.69856 2.8e-4,55 -0.15534,15.30143 -0.28255,3.07079 -0.2827,-27.17921 z"
       id="path231" />
    <path
       style="fill:#cccccc;fill-opacity:1"
       d="m 408.75,611.33772 c 0.6875,-0.27741 1.8125,-0.27741 2.5,0 0.6875,0.27741 0.125,0.50439 -1.25,0.50439 -1.375,0 -1.9375,-0.22698 -1.25,-0.50439 z"
       id="path229" />
    <path
       style="fill:#cccccc;fill-opacity:1"
       d="m 238.4851,245.5 c -3e-5,-70.95 0.1191,-100.12248 0.26474,-64.82773 0.14564,35.29475 0.14567,93.34475 6e-5,129 -0.14561,35.65525 -0.26477,6.77773 -0.2648,-64.17227 z M 555,128.5 c 1.29175,-1.375 2.57363,-2.5 2.84863,-2.5 0.275,0 -0.55688,1.125 -1.84863,2.5 -1.29175,1.375 -2.57363,2.5 -2.84863,2.5 -0.275,0 0.55688,-1.125 1.84863,-2.5 z"
       id="path227" />
    <path
       style="fill:#cccccc;fill-opacity:1"
       d="m 554.87244,294.25 c -1.24387,-1.58606 -1.2085,-1.62143 0.37756,-0.37756 0.9625,0.75485 1.75,1.54235 1.75,1.75 0,0.82304 -0.82119,0.29331 -2.12756,-1.37244 z"
       id="path225" />
    <path
       style="fill:#cccccc;fill-opacity:1"
       d="m 200.48548,249 c 0,-72.875 0.11898,-102.6875 0.2644,-66.25 0.14542,36.4375 0.14542,96.0625 0,132.5 -0.14542,36.4375 -0.2644,6.625 -0.2644,-66.25 z m 380.59347,-39.58333 c 0.048,-1.16495 0.28494,-1.4019 0.60416,-0.60417 0.28887,0.72187 0.25335,1.58437 -0.0789,1.91667 -0.33229,0.33229 -0.56864,-0.25834 -0.52522,-1.3125 z"
       id="path223" />
    <path
       style="fill:#cccccc;fill-opacity:1"
       d="m 162.48532,250.5 c 3e-5,-72.05 0.11909,-101.37749 0.26458,-65.17219 0.14549,36.2053 0.14547,95.1553 -5e-5,131 -0.14552,35.8447 -0.26456,6.22219 -0.26453,-65.82781 z"
       id="path221" />
    <path
       style="fill:#cccccc;fill-opacity:1"
       d="m 408.75,268.33772 c 0.6875,-0.27741 1.8125,-0.27741 2.5,0 0.6875,0.27741 0.125,0.50439 -1.25,0.50439 -1.375,0 -1.9375,-0.22698 -1.25,-0.50439 z"
       id="path219" />
    <path
       style="fill:#cccccc;fill-opacity:1"
       d="m 405.8125,268.31689 c 0.72187,-0.28887 1.58438,-0.25335 1.91667,0.0789 0.33229,0.33229 -0.25834,0.56864 -1.3125,0.52522 -1.16495,-0.048 -1.4019,-0.28494 -0.60417,-0.60416 z"
       id="path217" />
    <path
       style="fill:#cccccc;fill-opacity:1"
       d="m 548.87244,329.25 c -1.24387,-1.58606 -1.2085,-1.62143 0.37756,-0.37756 1.66575,1.30637 2.19548,2.12756 1.37244,2.12756 -0.20765,0 -0.99515,-0.7875 -1.75,-1.75 z"
       id="path215" />
    <path
       style="fill:#cccccc;fill-opacity:1"
       d="m 297,356.62244 c 0,-0.20765 0.7875,-0.99515 1.75,-1.75 1.58606,-1.24387 1.62143,-1.2085 0.37756,0.37756 C 297.82119,356.91575 297,357.44548 297,356.62244 Z"
       id="path213" />
    <path
       style="fill:#cccccc;fill-opacity:1"
       d="m 514.87244,349.25 c -1.24387,-1.58606 -1.2085,-1.62143 0.37756,-0.37756 0.9625,0.75485 1.75,1.54235 1.75,1.75 0,0.82304 -0.82119,0.29331 -2.12756,-1.37244 z"
       id="path211" />
    <path
       style="fill:#cccccc;fill-opacity:1"
       d="m 299.87244,564.25 c -1.24387,-1.58606 -1.2085,-1.62143 0.37756,-0.37756 0.9625,0.75485 1.75,1.54235 1.75,1.75 0,0.82304 -0.82119,0.29331 -2.12756,-1.37244 z"
       id="path209" />
    <path
       style="fill:#cccccc;fill-opacity:1"
       d="m 302.87244,567.25 c -1.24387,-1.58606 -1.2085,-1.62143 0.37756,-0.37756 1.66575,1.30637 2.19548,2.12756 1.37244,2.12756 -0.20765,0 -0.99515,-0.7875 -1.75,-1.75 z"
       id="path207" />
    <path
       style="fill:#cccccc;fill-opacity:1"
       d="m 761.5,798 c 0.99549,-1.1 2.03498,-2 2.30998,-2 0.275,0 -0.31449,0.9 -1.30998,2 -0.99549,1.1 -2.03498,2 -2.30998,2 -0.275,0 0.31449,-0.9 1.30998,-2 z M 761.40499,81.75 759.5,79.5 l 2.25,1.904988 c 1.2375,1.047743 2.25,2.060243 2.25,2.25 0,0.800253 -0.80479,0.209457 -2.59501,-1.904988 z"
       id="path205" />
    <path
       style="fill:#cccccc;fill-opacity:1;stroke-width:1.37406"
       d="M 60.239547,943.05557 C 45.214109,941.65722 21.206375,936.62913 8.4603924,932.21118 -65.92075,906.42945 -118.12073,844.84893 -131.17144,767.48692 c -2.40603,-14.26246 -2.52588,-31.9408 -2.52588,-372.55781 0,-344.411642 0.0958,-358.14111 2.59968,-372.68441 8.52767,-49.530655 30.78242,-89.690696 68.478891,-123.57429 28.472968,-25.59302 64.5036371,-42.59459 104.977588,-49.53511 14.573456,-2.49908 28.356122,-2.59449 374.807061,-2.59449 h 359.67723 l 16.25492,3.16728 c 87.79504,17.10686 152.93002,82.435356 169.08914,169.591441 l 3.09106,16.672036 V 394.92911 753.88666 l -3.09106,16.67204 C 946.0966,857.34519 881.55994,922.33901 793.81471,940.12392 l -15.59613,3.16113 -356.23865,0.14128 C 226.04869,943.50403 63.265511,943.3372 60.239547,943.05557 Z M 778.1741,782.80911 c 9.80772,-4.80583 18.90218,-12.85705 23.64352,-20.93134 7.6291,-12.99201 7.31434,-2.99966 7.332,-232.76854 l 0.0164,-212.42325 -75.30528,-0.021 c -41.4179,-0.0116 -76.0014,-0.47484 -76.85226,-1.02951 -0.85082,-0.55469 -4.34498,-6.5679 -7.76477,-13.36269 C 609.60394,223.51253 531.42135,170.03984 441.63413,160.27899 340.85947,149.32369 238.52994,202.77769 188.15535,292.68897 l -6.8772,12.2748 -0.34903,-177.39257 -0.34904,-177.392545 H 153.76923 126.95836 L 126.60949,133.08915 126.2606,315.99964 H 101.50271 76.744811 L 76.39593,133.08915 76.047048,-49.821345 H 49.219471 22.391895 l 0.355408,399.108635 0.355395,399.10862 4.030092,8.19174 c 7.132202,14.49721 19.345569,24.99158 33.706031,28.96202 4.995218,1.3811 78.080749,1.68933 357.702519,1.50861 l 351.4246,-0.22714 z M 391.03272,628.07645 c -41.92006,-4.36472 -86.57409,-25.29906 -118.12249,-55.37723 -33.21008,-31.66243 -52.68399,-66.65663 -62.26065,-111.88115 -4.5251,-21.36914 -4.50292,-57.59973 0.0486,-79.61582 15.47906,-74.87148 68.30617,-134.65623 139.75882,-158.16587 24.092,-7.92684 46.65589,-11.15283 71.52283,-10.22569 53.00517,1.97623 98.88917,20.9136 136.32709,56.26529 33.23069,31.37893 53.38367,67.50085 62.55697,112.12627 4.51728,21.97524 4.54878,58.37004 0.0686,79.30483 -7.72206,36.08376 -21.62744,65.8232 -42.71608,91.35682 -46.6355,56.46519 -113.88183,83.84477 -187.18384,76.21255 z M 817.13168,210.93587 c 15.87059,-3.65354 32.82677,-17.45803 39.86547,-32.45561 l 3.74775,-7.98541 V 81.27022 -7.9544103 l -3.72552,-7.9352877 c -5.20763,-11.092111 -17.37509,-23.397675 -28.51474,-28.838424 l -9.02291,-4.406879 -86.65264,-0.392013 c -85.97243,-0.38895 -86.71742,-0.368625 -94.90526,2.588579 -15.77579,5.697747 -26.87583,15.84639 -34.19589,31.26489 l -4.3164,9.0918226 V 81.27022 169.12216 l 4.38074,9.22904 c 7.54724,15.89995 22.84596,28.83494 38.41979,32.48376 7.39697,1.73302 167.42875,1.82535 174.91961,0.10093 z M 713.8639,157.26015 C 700.24241,154.65461 685.56752,146.3766 674.31238,134.94939 638.04888,98.131482 648.59697,35.295559 694.92578,12.153658 709.00853,5.1191323 718.45803,3.2046299 734.88613,4.0575855 776.29128,6.2073398 807.7905,39.568002 807.7905,81.27022 c 0,29.69109 -16.37711,56.07413 -42.84674,69.02478 -16.49472,8.07029 -33.31302,10.36361 -51.07986,6.96515 z"
       id="path203" />
  </g>
</svg>
