<?xml version="1.0" encoding="UTF-8" standalone="no"?>
<svg
   xmlns:dc="http://purl.org/dc/elements/1.1/"
   xmlns:cc="http://creativecommons.org/ns#"
   xmlns:rdf="http://www.w3.org/1999/02/22-rdf-syntax-ns#"
   xmlns:svg="http://www.w3.org/2000/svg"
   xmlns="http://www.w3.org/2000/svg"
   xmlns:sodipodi="http://sodipodi.sourceforge.net/DTD/sodipodi-0.dtd"
   xmlns:inkscape="http://www.inkscape.org/namespaces/inkscape"
   width="29px"
   height="29px"
   viewBox="0 0 210 297">
  <g
     id="g22"
     transform="matrix(0.22499874,0,0,0.22592007,-41.166232,1.3327244)">
    <path
       style="fill:#c8c8c8;fill-opacity:1;stroke-width:1.33333"
       d="m 437.16326,821.66669 c -1.65849,-2.11475 -1.61133,-2.16191 0.50342,-0.50342 1.28333,1.00647 2.33333,2.05647 2.33333,2.33334 0,1.09738 -1.09492,0.39108 -2.83675,-1.82992 z M 254.77194,472.55557 c 0.064,-1.55326 0.37992,-1.8692 0.80555,-0.80556 0.38516,0.9625 0.3378,2.11251 -0.1052,2.55556 -0.44307,0.44306 -0.75819,-0.34445 -0.7003,-1.75 z"
       id="path84" />
    <path
       style="fill:#a6a6a6;fill-opacity:1;stroke-width:1.33333"
       d="m 859.75002,1051.0892 c 0.9625,-0.3851 2.11251,-0.3378 2.55556,0.1052 0.44306,0.4431 -0.34445,0.7582 -1.75,0.7003 -1.55326,-0.064 -1.8692,-0.3799 -0.80556,-0.8055 z"
       id="path82" />
    <path
       style="fill:#898989;fill-opacity:1;stroke-width:1.33333"
       d="m 602.4966,709.66668 c -1.65849,-2.11474 -1.61133,-2.1619 0.50342,-0.50341 2.221,1.74183 2.9273,2.83675 1.82992,2.83675 -0.27687,0 -1.32687,-1.05 -2.33334,-2.33334 z"
       id="path80" />
    <path
       style="fill:#767676;fill-opacity:1;stroke-width:1.33333"
       d="m 610.4966,717.66668 c -1.65849,-2.11474 -1.61133,-2.1619 0.50342,-0.50341 1.28333,1.00647 2.33333,2.05647 2.33333,2.33334 0,1.09738 -1.09492,0.39108 -2.83675,-1.82993 z"
       id="path78" />
    <path
       style="fill:#666666;fill-opacity:1;stroke-width:1.33333"
       d="m 841.08335,1051.0892 c 0.9625,-0.3851 2.11251,-0.3378 2.55556,0.1052 0.44306,0.4431 -0.34445,0.7582 -1.75,0.7003 -1.55326,-0.064 -1.8692,-0.3799 -0.80556,-0.8055 z"
       id="path76" />
    <path
       style="fill:#636363;fill-opacity:1;stroke-width:1.33333"
       d="m 499.33335,533.33335 c 3.61153,-3.66667 6.86642,-6.66667 7.23309,-6.66667 0.36667,0 -2.28823,3 -5.89976,6.66667 -3.61153,3.66666 -6.86643,6.66666 -7.23309,6.66666 -0.36667,0 2.28822,-3 5.89976,-6.66666 z m 15.33333,-15.33334 c 3.98323,-4.03333 7.54224,-7.33333 7.90891,-7.33333 0.36666,0 -2.59235,3.3 -6.57558,7.33333 -3.98322,4.03334 -7.54224,7.33334 -7.9089,7.33334 -0.36667,0 2.59234,-3.3 6.57557,-7.33334 z m 15.33333,-15.33333 c 3.61154,-3.66667 6.86643,-6.66667 7.2331,-6.66667 0.36666,0 -2.28823,3 -5.89976,6.66667 -3.61154,3.66667 -6.86643,6.66667 -7.2331,6.66667 -0.36666,0 2.28823,-3 5.89976,-6.66667 z m 14.66667,-14.66667 c 3.61153,-3.66666 6.86643,-6.66666 7.23309,-6.66666 0.36667,0 -2.28822,3 -5.89976,6.66666 -3.61153,3.66667 -6.86642,6.66667 -7.23309,6.66667 -0.36667,0 2.28823,-3 5.89976,-6.66667 z m 13.94428,-13.66666 c 5.52528,-5.88692 6.72239,-6.94546 6.72239,-5.94428 0,0.21398 -2.85,3.06398 -6.33334,6.33333 l -6.33333,5.94428 z m 13.33333,-13.33334 c 5.52528,-5.88692 6.72239,-6.94545 6.72239,-5.94428 0,0.21399 -2.85,3.06399 -6.33333,6.33334 l -6.33334,5.94428 z"
       id="path74" />
    <path
       style="fill:#626262;fill-opacity:1;stroke-width:1.33333"
       d="m 254.77194,455.22224 c 0.064,-1.55327 0.37992,-1.8692 0.80555,-0.80556 0.38516,0.96249 0.3378,2.1125 -0.1052,2.55556 -0.44307,0.44305 -0.75819,-0.34446 -0.7003,-1.75 z"
       id="path72" />
    <path
       style="fill:#5a5a5a;fill-opacity:1;stroke-width:1.33333"
       d="m 254.77194,459.22224 c 0.064,-1.55327 0.37992,-1.8692 0.80555,-0.80556 0.38516,0.96249 0.3378,2.11251 -0.1052,2.55556 -0.44307,0.44305 -0.75819,-0.34445 -0.7003,-1.75 z"
       id="path70" />
    <path
       style="fill:#545454;fill-opacity:1;stroke-width:1.33333"
       d="m 388.33334,1183 c 145.75001,-0.1869 384.25001,-0.1869 530.00002,0 145.75004,0.187 26.5,0.34 -265.00001,0.34 -291.50001,0 -410.75001,-0.153 -265.00001,-0.34 z m 457.33335,-131.9191 c 1.28333,-0.3353 3.38333,-0.3353 4.66667,0 1.28333,0.3354 0.23333,0.6098 -2.33334,0.6098 -2.56667,0 -3.61667,-0.2744 -2.33333,-0.6098 z M 388.33334,123.00002 c 145.75001,-0.18696 384.25001,-0.18696 530.00002,0 145.75004,0.18697 26.5,0.33994 -265.00001,0.33994 -291.50001,0 -410.75001,-0.15297 -265.00001,-0.33994 z"
       id="path68" />
    <path
       style="fill:#525252;fill-opacity:1;stroke-width:1.33333"
       d="m 996.66669,969.33336 c 26.39241,-26.4 48.28611,-48 48.65281,-48 0.3666,0 -20.9271,21.6 -47.31947,48 -26.39237,26.4 -48.28611,48.00004 -48.65278,48.00004 -0.36667,0 20.92708,-21.60004 47.31944,-48.00004 z"
       id="path66" />
    <path
       style="fill:#4d4d4d;fill-opacity:1;stroke-width:1.33333"
       d="m 123.32672,653.33335 c 0,-291.50001 0.15297,-410.75001 0.33993,-265.00001 0.18697,145.75001 0.18697,384.25001 0,530.00002 -0.18696,145.75004 -0.33993,26.5 -0.33993,-265.00001 z"
       id="path64" />
    <path
       style="fill:#4a4a4a;fill-opacity:1;stroke-width:1.33333"
       d="m 881.87334,730.33335 -2.53998,-3 3,2.53999 c 2.81925,2.38696 3.60698,3.46001 2.53998,3.46001 -0.25301,0 -1.60301,-1.35 -3,-3 z"
       id="path62" />
    <path
       style="fill:#4a4a4a;fill-opacity:1;stroke-width:1.33333"
       d="m 886.49661,735.00002 c -1.65849,-2.11475 -1.61133,-2.16191 0.50341,-0.50341 1.28334,1.00646 2.33334,2.05646 2.33334,2.33333 0,1.09739 -1.09492,0.39108 -2.83675,-1.82992 z"
       id="path60" />
    <path
       style="fill:#484848;fill-opacity:1;stroke-width:1.33333"
       d="m 897.16328,745.66669 c -1.6585,-2.11475 -1.61134,-2.16191 0.50341,-0.50342 1.28333,1.00647 2.33333,2.05647 2.33333,2.33334 0,1.09738 -1.09492,0.39108 -2.83674,-1.82992 z"
       id="path58" />
    <path
       style="fill:#474747;fill-opacity:1;stroke-width:1.33333"
       d="m 904.58281,753.00002 -3.91612,-4.33333 4.33333,3.91612 c 4.03928,3.65037 4.9462,4.75054 3.91612,4.75054 -0.22946,0 -2.17946,-1.95 -4.33333,-4.33333 z"
       id="path56" />
    <path
       style="fill:#474747;fill-opacity:1;stroke-width:1.33333"
       d="m 914.49661,763.00002 c -1.65849,-2.11475 -1.61133,-2.16191 0.50341,-0.50341 1.28334,1.00646 2.33334,2.05646 2.33334,2.33333 0,1.09739 -1.09492,0.39108 -2.83675,-1.82992 z"
       id="path54" />
    <path
       style="fill:#454545;fill-opacity:1;stroke-width:1.33333"
       d="m 923.24948,771.66669 -3.91612,-4.33334 4.33333,3.91612 c 4.03928,3.65038 4.9462,4.75055 3.91612,4.75055 -0.22947,0 -2.17947,-1.95 -4.33333,-4.33333 z"
       id="path52" />
    <path
       style="fill:#454545;fill-opacity:1;stroke-width:1.33333"
       d="m 931.82994,780.33335 c -1.65849,-2.11474 -1.61133,-2.1619 0.50342,-0.50341 1.28333,1.00647 2.33333,2.05647 2.33333,2.33333 0,1.09739 -1.09492,0.39108 -2.83675,-1.82992 z"
       id="path50" />
    <path
       style="fill:#404040;fill-opacity:1;stroke-width:1.33333"
       d="m 336.66668,309.33334 c 26.39236,-26.4 48.2861,-48 48.65277,-48 0.36667,0 -20.92708,21.6 -47.31944,48 -26.39236,26.4 -48.28611,48 -48.65278,48 -0.36666,0 20.92708,-21.6 47.31945,-48 z"
       id="path48" />
    <path
       style="fill:#404040;fill-opacity:1;stroke-width:1.33333"
       d="m 777.33335,802.00002 c 1.72234,-1.83333 3.43151,-3.33333 3.79818,-3.33333 0.36666,0 -0.74251,1.5 -2.46484,3.33333 -1.72234,1.83333 -3.43151,3.33333 -3.79818,3.33333 -0.36666,0 0.74251,-1.5 2.46484,-3.33333 z"
       id="path46" />
    <path
       style="fill:#3d3d3d;fill-opacity:1;stroke-width:1.33333"
       d="m 765.33335,814.16327 c 0,-0.27686 1.05,-1.32686 2.33334,-2.33333 2.11474,-1.65849 2.1619,-1.61133 0.50341,0.50341 -1.74183,2.221 -2.83675,2.92731 -2.83675,1.82992 z m 198.49659,-1.82992 c -1.65849,-2.11474 -1.61133,-2.1619 0.50342,-0.50341 1.28333,1.00647 2.33333,2.05647 2.33333,2.33333 0,1.09739 -1.09492,0.39108 -2.83675,-1.82992 z m -21.33333,-21.33333 c -1.65849,-2.11475 -1.61133,-2.16191 0.50341,-0.50341 1.28334,1.00646 2.33334,2.05646 2.33334,2.33333 0,1.09739 -1.09492,0.39108 -2.83675,-1.82992 z m -5.9566,-6 -2.53999,-3 3,2.53999 c 2.81926,2.38696 3.60699,3.46001 2.53999,3.46001 -0.25301,0 -1.60301,-1.35 -3,-3 z"
       id="path44" />
    <path
       style="fill:#3b3b3b;fill-opacity:1;stroke-width:1.33333"
       d="m 954.49661,803.00002 c -1.65849,-2.11475 -1.61133,-2.16191 0.50341,-0.50341 2.221,1.74182 2.92731,2.83674 1.82992,2.83674 -0.27686,0 -1.32686,-1.05 -2.33333,-2.33333 z m -500.50467,-500.66668 -41.32526,-41.66667 41.66666,41.32527 c 22.91667,22.72889 41.66667,41.4789 41.66667,41.66667 0,0.94152 -3.60261,-2.60255 -42.00807,-41.32527 z"
       id="path42" />
    <path
       style="fill:#3b3b3b;fill-opacity:1;stroke-width:1.33333"
       d="m 969.23244,817.66669 -3.23242,-3.66667 3.66667,3.23241 c 2.01667,1.77784 3.66667,3.42784 3.66667,3.66667 0,1.04571 -1.07974,0.19464 -4.10092,-3.23241 z m -394.02577,-394.00001 -2.53999,-3 3,2.53998 c 2.81925,2.38696 3.60699,3.46002 2.53999,3.46002 -0.25302,0 -1.60302,-1.35 -3,-3 z m -6.0434,-6 c -1.6585,-2.11475 -1.61134,-2.16191 0.50341,-0.50342 1.28333,1.00647 2.33333,2.05647 2.33333,2.33334 0,1.09738 -1.09492,0.39108 -2.83674,-1.82992 z m -5.9566,-6 -2.53999,-3 3,2.53998 c 2.81925,2.38696 3.60699,3.46002 2.53999,3.46002 -0.25302,0 -1.60302,-1.35 -3,-3 z m -6.0434,-6 c -1.6585,-2.11475 -1.61134,-2.16191 0.50341,-0.50342 2.221,1.74183 2.92731,2.83675 1.82992,2.83675 -0.27687,0 -1.32687,-1.05 -2.33333,-2.33333 z m -5.33334,-5.33334 c -1.65849,-2.11474 -1.61133,-2.1619 0.50342,-0.50341 1.28333,1.00647 2.33333,2.05647 2.33333,2.33333 0,1.09739 -1.09492,0.39108 -2.83675,-1.82992 z m -5.33333,-5.33333 c -1.65849,-2.11475 -1.61133,-2.16191 0.50341,-0.50341 1.28334,1.00646 2.33334,2.05646 2.33334,2.33333 0,1.09739 -1.09492,0.39108 -2.83675,-1.82992 z m -5.33333,-5.33333 c -1.6585,-2.11475 -1.61134,-2.16191 0.50341,-0.50342 2.221,1.74183 2.92731,2.83675 1.82992,2.83675 -0.27687,0 -1.32687,-1.05 -2.33333,-2.33333 z m -5.33334,-5.33334 c -1.65849,-2.11474 -1.61133,-2.1619 0.50342,-0.50341 1.28333,1.00647 2.33333,2.05647 2.33333,2.33333 0,1.09739 -1.09492,0.39108 -2.83675,-1.82992 z m -5.33333,-5.33333 c -1.65849,-2.11475 -1.61133,-2.16191 0.50341,-0.50341 1.28334,1.00646 2.33334,2.05646 2.33334,2.33333 0,1.09739 -1.09492,0.39108 -2.83675,-1.82992 z m -5.33333,-5.33333 c -1.6585,-2.11475 -1.61134,-2.16191 0.50341,-0.50342 2.221,1.74183 2.92731,2.83675 1.82992,2.83675 -0.27687,0 -1.32687,-1.05 -2.33333,-2.33333 z m -9.33334,-9.33334 c -1.65849,-2.11474 -1.61133,-2.1619 0.50342,-0.50341 2.221,1.74183 2.9273,2.83675 1.82992,2.83675 -0.27687,0 -1.32687,-1.05 -2.33334,-2.33334 z m -13.88004,-14 -6.61654,-7 7,6.61655 c 6.50452,6.14821 7.61146,7.38345 6.61654,7.38345 -0.2109,0 -3.3609,-3.15 -7,-7 z"
       id="path40" />
    <path
       style="fill:#3a3a3a;fill-opacity:1;stroke-width:1.33333"
       d="m 975.8991,824.33335 -3.23241,-3.66666 3.66667,3.23241 c 2.01666,1.77784 3.66666,3.42784 3.66666,3.66667 0,1.0457 -1.07973,0.19464 -4.10092,-3.23242 z"
       id="path38" />
    <path
       style="fill:#383838;fill-opacity:1;stroke-width:1.33333"
       d="m 985.23244,833.66669 -3.23241,-3.66667 3.66666,3.23241 c 2.01667,1.77784 3.66667,3.42784 3.66667,3.66667 0,1.04571 -1.07973,0.19464 -4.10092,-3.23241 z"
       id="path36" />
    <path
       style="fill:#383838;fill-opacity:1;stroke-width:1.33333"
       d="m 793.33335,786.24947 c 0,-0.22946 1.95,-2.17946 4.33334,-4.33333 l 4.33333,-3.91612 -3.91612,4.33333 c -3.65037,4.03928 -4.75055,4.9462 -4.75055,3.91612 z"
       id="path34" />
    <path
       style="fill:#363636;fill-opacity:1;stroke-width:1.33333"
       d="m 806.00002,773.33335 c 2.86432,-2.93333 5.50787,-5.33333 5.87453,-5.33333 0.36667,0 -1.67688,2.4 -4.5412,5.33333 -2.86432,2.93334 -5.50786,5.33334 -5.87453,5.33334 -0.36667,0 1.67688,-2.4 4.5412,-5.33334 z"
       id="path32" />
    <path
       style="fill:#363636;fill-opacity:1;stroke-width:1.33333"
       d="m 815.33335,764.00002 c 1.32732,-1.46667 2.71331,-2.66667 3.07998,-2.66667 0.36666,0 -0.41932,1.2 -1.74664,2.66667 -1.32732,1.46667 -2.71331,2.66667 -3.07998,2.66667 -0.36666,0 0.41932,-1.2 1.74664,-2.66667 z"
       id="path30" />
    <path
       style="fill:#353535;fill-opacity:1;stroke-width:1.33333"
       d="m 822.66669,756.91614 c 0,-0.22947 1.95,-2.17947 4.33333,-4.33333 l 4.33333,-3.91612 -3.91612,4.33333 c -3.65037,4.03928 -4.75054,4.9462 -4.75054,3.91612 z"
       id="path28" />
    <path
       style="fill:#333333;fill-opacity:1;stroke-width:1.33333"
       d="m 837.33335,742.16327 c 0,-0.27686 1.05,-1.32686 2.33334,-2.33333 2.11474,-1.65849 2.1619,-1.61133 0.50341,0.50341 -1.74183,2.221 -2.83675,2.92731 -2.83675,1.82992 z"
       id="path26" />
    <path
       style="fill:#333333;fill-opacity:1;stroke-width:1.33333"
       d="M 20.971279,1304.9004 C 14.079098,1302.7527 7.2469173,1296.9789 3.6634617,1290.274 L 0.66666668,1284.6667 0.26335607,657.33335 C -0.03994001,185.56854 0.24313255,28.213281 1.404852,22.795013 3.4461606,13.274336 12.381486,3.8943924 21.627343,1.5662588 c 9.002195,-2.2667788 1254.409857,-2.2667788 1263.412057,0 8.5418,2.1508586 17.9102,11.5192502 20.061,20.0610842 2.1637,8.592707 2.2773,1254.368157 0.1152,1262.954657 -1.8212,7.233 -7.8237,14.6132 -15.0112,18.4567 l -5.5377,2.9613 -629.33335,0.2338 c -478.95812,0.1779 -630.534931,-0.1407 -634.362071,-1.3334 z M 1182.6667,653.33168 V 122.66334 l -529.66668,0.335 -529.66668,0.335 -0.34109,528.66668 c -0.1876,290.76667 -0.0564,529.41668 0.29148,530.33338 0.5046,1.3294 107.73388,1.6666 530.00778,1.6666 H 1182.6667 Z M 812.55583,1048.6121 C 715.0866,1034.3824 595.41006,969.2865 491.5954,874.03152 c -16.53116,-15.16815 -53.34692,-52.20329 -66.30307,-66.69817 -81.30788,-90.96435 -139.44879,-192.28719 -160.66915,-280 -6.92891,-28.64012 -9.01605,-47.8101 -8.202,-75.33334 0.78031,-26.38221 3.23397,-39.62727 10.76141,-58.09063 8.74198,-21.44237 15.09146,-29.022 71.40814,-85.24271 l 52.08877,-52 h 8.65899 8.65899 l 87.42969,87.4297 c 82.71011,82.71011 87.46944,87.72604 88.16603,92.91947 0.40497,3.01937 0.32316,7.17601 -0.18181,9.23697 -0.61638,2.51565 -15.8411,18.70711 -46.32402,49.2655 l -45.40589,45.51829 7.60773,17.81504 c 41.90871,98.13778 130.86754,194.10067 221.01457,238.41586 10.06705,4.94885 24.37141,11.0382 31.78744,13.53188 l 13.48369,4.53397 44.52403,-45.02469 c 24.48821,-24.76357 46.07292,-45.61357 47.96602,-46.33333 4.66094,-1.77208 12.64722,-1.57091 16.08808,0.40528 4.28497,2.46097 170.89506,167.68016 173.89516,172.44345 3.1,4.92182 3.4331,13.7699 0.712,18.90884 -1.0485,1.98026 -25.1985,26.79338 -53.66665,55.14028 -59.98307,59.72772 -65.74158,64.16992 -94.83186,73.15502 -21.28985,6.5757 -60.15032,8.6068 -87.70586,4.5839 z"
       id="path24" />
  </g>
  <path
     style="fill:#e6e6e6;stroke-width:0.0544218"
     d="M 2.6837721,39.865373 0.85053736,39.836735 0.6789135,39.673469 C 0.58452038,39.583673 0.47274131,39.444073 0.43051557,39.363247 0.3648565,39.237565 0.3537415,36.45231 0.3537415,20.124792 0.3537415,7.8713067 0.37276827,0.96695254 0.40686359,0.84806912 0.46878373,0.6321662 0.64027789,0.43358975 0.8707483,0.31092793 1.0189302,0.232062 2.4769916,0.22226058 16.653061,0.20483571 c 8.590476,-0.0105592 17.215426,2.5759e-4 19.166554,0.0240373 l 3.547506,0.0432358 0.173482,0.16326531 c 0.09542,0.0897959 0.207201,0.24207056 0.248413,0.33838808 0.06315,0.1475945 0.07493,3.1833805 0.07493,19.3123188 v 19.137195 l -0.121864,0.216827 c -0.06809,0.121151 -0.220289,0.274509 -0.344918,0.347547 L 39.17411,39.918367 21.845559,39.906189 C 12.314855,39.899492 3.6920512,39.881124 2.6837721,39.865373 Z M 36.163265,20.054422 V 3.8911565 H 20.081633 4 V 20.023221 c 0,15.318107 0.00481,16.133319 0.095238,16.156952 0.052381,0.01369 7.289116,0.02773 16.081633,0.0312 l 15.986394,0.0063 z"
     id="path43"
     transform="matrix(7.425,0,0,7.425,-43.5,0)" />
  <path
     style="fill:#e6e6e6;stroke-width:0.0544218"
     d="M 25.150814,32.082248 C 22.489041,31.745869 19.27001,30.136085 16.244898,27.628546 15.424362,26.948398 13.549742,25.097049 12.84627,24.272109 10.120463,21.075638 8.3776855,17.582123 8.1391929,14.836458 8.0710781,14.05228 8.1492607,13.060821 8.3222184,12.515453 8.5769377,11.712275 8.7315614,11.514827 10.526492,9.7006803 l 1.655743,-1.6734694 h 0.258173 0.258172 l 2.548669,2.5856641 c 1.401768,1.422116 2.595438,2.66609 2.652599,2.764387 0.06851,0.117805 0.09193,0.226518 0.06874,0.318944 -0.02061,0.08213 -0.599095,0.715653 -1.396446,1.529307 -0.74869,0.763998 -1.361254,1.417008 -1.361254,1.451136 0,0.148887 0.646352,1.477017 1.028868,2.114127 1.205357,2.007617 2.836579,3.739305 4.685418,4.97399 0.609674,0.40715 1.650122,0.937571 2.231977,1.137863 l 0.354426,0.122004 1.38707,-1.389752 c 0.891109,-0.892831 1.439233,-1.401987 1.532954,-1.42397 0.08024,-0.01882 0.206709,-0.01109 0.281052,0.01717 0.197837,0.07522 5.300371,5.1678 5.370075,5.359601 0.0318,0.08751 0.04317,0.225819 0.02527,0.307347 -0.04073,0.185428 -2.876706,3.051578 -3.428274,3.464745 -0.437221,0.327513 -0.863329,0.513425 -1.458558,0.636373 -0.512515,0.105863 -1.566961,0.149713 -2.070346,0.0861 z"
     id="path45"
     transform="matrix(7.425,0,0,7.425,-43.5,0)" />
</svg>
